999
dxfrw 0.6.1
  0
SECTION
  2
HEADER
  9
$ACADVER
  1
AC1021
  9
$DWGCODEPAGE
  3
ANSI_1252
  9
$INSBASE
 10
0
 20
0
 30
0
  9
$EXTMIN
 10
0
 20
0
 30
0
  9
$EXTMAX
 10
0
 20
0
 30
0
  9
$LIMMIN
 10
0
 20
0
  9
$LIMMAX
 10
420
 20
297
  9
$ORTHOMODE
 70
    0
  9
$REGENMODE
 70
    1
  9
$FILLMODE
 70
    1
  9
$QTEXTMODE
 70
    0
  9
$MIRRTEXT
 70
    0
  9
$LTSCALE
 40
1
  9
$ATTMODE
 70
    0
  9
$TEXTSIZE
 40
2.5
  9
$TRACEWID
 40
15.68
  9
$TEXTSTYLE
  7
STANDARD
  9
$CLAYER
  8
0
  9
$CELTYPE
  6
BYLAYER
  9
$CECOLOR
 62
  256
  9
$CELTSCALE
 40
1
  9
$DISPSILH
 70
    0
  9
$DIMSCALE
 40
1
  9
$DIMASZ
 40
2.5
  9
$DIMEXO
 40
0.625
  9
$DIMDLI
 40
3.75
  9
$DIMRND
 40
0
  9
$DIMDLE
 40
0
  9
$DIMEXE
 40
1.25
  9
$DIMTP
 40
0
  9
$DIMTM
 40
0
  9
$DIMTXT
 40
2.5
  9
$DIMCEN
 40
2.5
  9
$DIMTSZ
 40
0
  9
$DIMTOL
 70
    0
  9
$DIMLIM
 70
    0
  9
$DIMTIH
 70
    0
  9
$DIMTOH
 70
    0
  9
$DIMSE1
 70
    0
  9
$DIMSE2
 70
    0
  9
$DIMTAD
 70
    1
  9
$DIMZIN
 70
    8
  9
$DIMBLK
  1

  9
$DIMASO
 70
    1
  9
$DIMSHO
 70
    1
  9
$DIMPOST
  1

  9
$DIMAPOST
  1

  9
$DIMALT
 70
    0
  9
$DIMALTD
 70
    3
  9
$DIMALTF
 40
0.03937
  9
$DIMLFAC
 40
1
  9
$DIMTOFL
 70
    1
  9
$DIMTVP
 40
0
  9
$DIMTIX
 70
    0
  9
$DIMSOXD
 70
    0
  9
$DIMSAH
 70
    0
  9
$DIMBLK1
  1

  9
$DIMBLK2
  1

  9
$DIMSTYLE
  2
STANDARD
  9
$DIMCLRD
 70
    0
  9
$DIMCLRE
 70
    0
  9
$DIMCLRT
 70
    0
  9
$DIMTFAC
 40
1
  9
$DIMGAP
 40
0.625
  9
$DIMJUST
 70
    0
  9
$DIMSD1
 70
    0
  9
$DIMSD2
 70
    0
  9
$DIMTOLJ
 70
    0
  9
$DIMTZIN
 70
    8
  9
$DIMALTZ
 70
    0
  9
$DIMALTTZ
 70
    0
  9
$DIMUPT
 70
    0
  9
$DIMDEC
 70
    2
  9
$DIMTDEC
 70
    2
  9
$DIMALTU
 70
    2
  9
$DIMALTTD
 70
    3
  9
$DIMTXSTY
  7
STANDARD
  9
$DIMAUNIT
 70
    0
  9
$DIMADEC
 70
    0
  9
$DIMALTRND
 40
0
  9
$DIMAZIN
 70
    0
  9
$DIMDSEP
 70
   44
  9
$DIMATFIT
 70
    3
  9
$DIMFRAC
 70
    0
  9
$DIMLDRBLK
  1
STANDARD
  9
$DIMLUNIT
 70
    2
  9
$DIMLWD
 70
   -2
  9
$DIMLWE
 70
   -2
  9
$DIMTMOVE
 70
    0
  9
$DIMFXL
 40
1
  9
$DIMFXLON
 70
    0
  9
$DIMJOGANG
 40
0.7854
  9
$DIMTFILL
 70
    0
  9
$DIMTFILLCLR
 70
    0
  9
$DIMARCSYM
 70
    0
  9
$DIMLTYPE
  6

  9
$DIMLTEX1
  6

  9
$DIMLTEX2
  6

  9
$LUNITS
 70
    2
  9
$LUPREC
 70
    4
  9
$SKETCHINC
 40
1
  9
$FILLETRAD
 40
0
  9
$AUNITS
 70
    0
  9
$AUPREC
 70
    2
  9
$MENU
  1
.
  9
$ELEVATION
 40
0
  9
$PELEVATION
 40
0
  9
$THICKNESS
 40
0
  9
$LIMCHECK
 70
    0
  9
$CHAMFERA
 40
0
  9
$CHAMFERB
 40
0
  9
$CHAMFERC
 40
0
  9
$CHAMFERD
 40
0
  9
$SKPOLY
 70
    0
  9
$USRTIMER
 70
    1
  9
$ANGBASE
 50
0
  9
$ANGDIR
 70
    0
  9
$PDMODE
 70
   34
  9
$PDSIZE
 40
0
  9
$PLINEWID
 40
0
  9
$SPLFRAME
 70
    0
  9
$SPLINETYPE
 70
    2
  9
$SPLINESEGS
 70
    8
  9
$HANDSEED
  5
20000
  9
$SURFTAB1
 70
    6
  9
$SURFTAB2
 70
    6
  9
$SURFTYPE
 70
    6
  9
$SURFU
 70
    6
  9
$SURFV
 70
    6
  9
$UCSBASE
  2

  9
$UCSNAME
  2

  9
$UCSORG
 10
0
 20
0
 30
0
  9
$UCSXDIR
 10
1
 20
0
 30
0
  9
$UCSYDIR
 10
0
 20
1
 30
0
  9
$UCSORTHOREF
  2

  9
$UCSORTHOVIEW
 70
    0
  9
$UCSORGTOP
 10
0
 20
0
 30
0
  9
$UCSORGBOTTOM
 10
0
 20
0
 30
0
  9
$UCSORGLEFT
 10
0
 20
0
 30
0
  9
$UCSORGRIGHT
 10
0
 20
0
 30
0
  9
$UCSORGFRONT
 10
0
 20
0
 30
0
  9
$UCSORGBACK
 10
0
 20
0
 30
0
  9
$PUCSBASE
  2

  9
$PUCSNAME
  2

  9
$PUCSORG
 10
0
 20
0
 30
0
  9
$PUCSXDIR
 10
1
 20
0
 30
0
  9
$PUCSYDIR
 10
0
 20
1
 30
0
  9
$PUCSORTHOREF
  2

  9
$PUCSORTHOVIEW
 70
    0
  9
$PUCSORGTOP
 10
0
 20
0
 30
0
  9
$PUCSORGBOTTOM
 10
0
 20
0
 30
0
  9
$PUCSORGLEFT
 10
0
 20
0
 30
0
  9
$PUCSORGRIGHT
 10
0
 20
0
 30
0
  9
$PUCSORGFRONT
 10
0
 20
0
 30
0
  9
$PUCSORGBACK
 10
0
 20
0
 30
0
  9
$USERI1
 70
    0
  9
$USERI2
 70
    0
  9
$USERI3
 70
    0
  9
$USERI4
 70
    0
  9
$USERI5
 70
    0
  9
$USERR1
 40
0
  9
$USERR2
 40
0
  9
$USERR3
 40
0
  9
$USERR4
 40
0
  9
$USERR5
 40
0
  9
$WORLDVIEW
 70
    1
  9
$SHADEDGE
 70
    3
  9
$SHADEDIF
 70
   70
  9
$TILEMODE
 70
    1
  9
$MAXACTVP
 70
   64
  9
$PINSBASE
 10
0
 20
0
 30
0
  9
$PLIMCHECK
 70
    0
  9
$PEXTMIN
 10
0
 20
0
 30
0
  9
$PEXTMAX
 10
0
 20
0
 30
0
  9
$SNAPSTYLE
 70
    0
  9
$PLIMMIN
 10
0
 20
0
  9
$PLIMMAX
 10
297
 20
210
  9
$UNITMODE
 70
    0
  9
$VISRETAIN
 70
    1
  9
$PLINEGEN
 70
    0
  9
$PSLTSCALE
 70
    1
  9
$TREEDEPTH
 70
 3020
  9
$CMLSTYLE
  2
Standard
  9
$CMLJUST
 70
    0
  9
$CMLSCALE
 40
20
  9
$PROXYGRAPHICS
 70
    1
  9
$MEASUREMENT
 70
    1
  9
$CELWEIGHT
370
   -1
  9
$ENDCAPS
280
    0
  9
$JOINSTYLE
280
    0
  9
$LWDISPLAY
290
    0
  9
$INSUNITS
 70
    4
  9
$HYPERLINKBASE
  1

  9
$STYLESHEET
  1

  9
$XEDIT
290
    1
  9
$CEPSNTYPE
380
    0
  9
$PSTYLEMODE
290
    1
  9
$EXTNAMES
290
    1
  9
$PSVPSCALE
 40
1
  9
$OLESTARTUP
290
    0
  9
$SORTENTS
280
  127
  9
$INDEXCTL
280
    0
  9
$HIDETEXT
280
    1
  9
$XCLIPFRAME
290
    0
  9
$HALOGAP
280
    0
  9
$OBSCOLOR
 70
  257
  9
$OBSLTYPE
280
    0
  9
$INTERSECTIONDISPLAY
280
    0
  9
$INTERSECTIONCOLOR
 70
  257
  9
$DIMASSOC
280
    0
  9
$PROJECTNAME
  1

  9
$CAMERADISPLAY
290
    0
  9
$LENSLENGTH
 40
50
  9
$CAMERAHEIGHT
 40
0
  9
$STEPSPERSEC
 40
2
  9
$STEPSIZE
 40
50
  9
$3DDWFPREC
 40
2
  9
$PSOLWIDTH
 40
5
  9
$PSOLHEIGHT
 40
80
  9
$LOFTANG1
 40
1.570796326794897
  9
$LOFTANG2
 40
1.570796326794897
  9
$LOFTMAG1
 40
0
  9
$LOFTMAG2
 40
0
  9
$LOFTPARAM
 70
    7
  9
$LOFTNORMALS
280
    1
  9
$LATITUDE
 40
1
  9
$LONGITUDE
 40
1
  9
$NORTHDIRECTION
 40
0
  9
$TIMEZONE
 70
-8000
  9
$LIGHTGLYPHDISPLAY
280
    1
  9
$TILEMODELIGHTSYNCH
280
    1
  9
$SOLIDHIST
280
    1
  9
$SHOWHIST
280
    1
  9
$DWFFRAME
280
    2
  9
$DGNFRAME
280
    0
  9
$REALWORLDSCALE
290
    1
  9
$INTERFERECOLOR
 62
    1
  9
$CSHADOW
280
    0
  9
$SHADOWPLANELOCATION
 40
0
  0
ENDSEC
  0
SECTION
  2
CLASSES
  0
ENDSEC
  0
SECTION
  2
TABLES
  0
TABLE
  2
VPORT
  5
8
330
0
100
AcDbSymbolTable
 70
    1
  0
VPORT
  5
31
330
2
100
AcDbSymbolTableRecord
100
AcDbViewportTableRecord
  2
*ACTIVE
 70
    0
 10
0
 20
0
 11
1
 21
1
 12
206.3751220703296
 22
61.7980957031301
 13
0
 23
0
 14
10
 24
10
 15
10
 25
10
 16
0
 26
0
 36
1
 17
0
 27
0
 37
0
 40
369.2626953125305
 41
2.570247933884298
 42
50
 43
0
 44
0
 50
0
 51
0
 71
    0
 72
  100
 73
    1
 74
    3
 75
    0
 76
    1
 77
    0
 78
    0
281
    0
 65
    1
110
0
120
0
130
0
111
1
121
0
131
0
112
0
122
1
132
0
 79
    0
146
0
348
10020
 60
    7
 61
    5
292
1
282
    1
141
0
142
0
 63
  250
421
3358443
  0
ENDTAB
  0
TABLE
  2
LTYPE
  5
5
330
0
100
AcDbSymbolTable
 70
    4
  0
LTYPE
  5
14
330
5
100
AcDbSymbolTableRecord
100
AcDbLinetypeTableRecord
  2
ByBlock
 70
    0
  3

 72
   65
 73
    0
 40
0
  0
LTYPE
  5
15
330
5
100
AcDbSymbolTableRecord
100
AcDbLinetypeTableRecord
  2
ByLayer
 70
    0
  3

 72
   65
 73
    0
 40
0
  0
LTYPE
  5
16
330
5
100
AcDbSymbolTableRecord
100
AcDbLinetypeTableRecord
  2
Continuous
 70
    0
  3
Solid line
 72
   65
 73
    0
 40
0
  0
LTYPE
  5
32
330
5
100
AcDbSymbolTableRecord
100
AcDbLinetypeTableRecord
  2
DOT
 70
    0
  3
Dot . . . . . . . . . . . . . . . . . . . . . .
 72
   65
 73
    2
 40
6.35
 49
0
 74
    0
 49
-6.35
 74
    0
  0
LTYPE
  5
33
330
5
100
AcDbSymbolTableRecord
100
AcDbLinetypeTableRecord
  2
DOTTINY
 70
    0
  3
Dot (.15x) .....................................
 72
   65
 73
    2
 40
0.9525
 49
0
 74
    0
 49
-0.9525
 74
    0
  0
LTYPE
  5
34
330
5
100
AcDbSymbolTableRecord
100
AcDbLinetypeTableRecord
  2
DOT2
 70
    0
  3
Dot (.5x) .....................................
 72
   65
 73
    2
 40
3.175
 49
0
 74
    0
 49
-3.175
 74
    0
  0
LTYPE
  5
35
330
5
100
AcDbSymbolTableRecord
100
AcDbLinetypeTableRecord
  2
DOTX2
 70
    0
  3
Dot (2x) .  .  .  .  .  .  .  .  .  .  .  .  .
 72
   65
 73
    2
 40
12.7
 49
0
 74
    0
 49
-12.7
 74
    0
  0
LTYPE
  5
36
330
5
100
AcDbSymbolTableRecord
100
AcDbLinetypeTableRecord
  2
DASHED
 70
    0
  3
Dashed _ _ _ _ _ _ _ _ _ _ _ _ _ _ _ _ _
 72
   65
 73
    2
 40
19.05
 49
12.7
 74
    0
 49
-6.35
 74
    0
  0
LTYPE
  5
37
330
5
100
AcDbSymbolTableRecord
100
AcDbLinetypeTableRecord
  2
DASHEDTINY
 70
    0
  3
Dashed (.15x) _ _ _ _ _ _ _ _ _ _ _ _ _ _ _ _ _
 72
   65
 73
    2
 40
2.8575
 49
1.905
 74
    0
 49
-0.9525
 74
    0
  0
LTYPE
  5
38
330
5
100
AcDbSymbolTableRecord
100
AcDbLinetypeTableRecord
  2
DASHED2
 70
    0
  3
Dashed (.5x) _ _ _ _ _ _ _ _ _ _ _ _ _ _ _ _ _
 72
   65
 73
    2
 40
9.524999999999999
 49
6.35
 74
    0
 49
-3.175
 74
    0
  0
LTYPE
  5
39
330
5
100
AcDbSymbolTableRecord
100
AcDbLinetypeTableRecord
  2
DASHEDX2
 70
    0
  3
Dashed (2x) ____  ____  ____  ____  ____  ___
 72
   65
 73
    2
 40
38.09999999999999
 49
25.4
 74
    0
 49
-12.7
 74
    0
  0
LTYPE
  5
3A
330
5
100
AcDbSymbolTableRecord
100
AcDbLinetypeTableRecord
  2
DASHDOT
 70
    0
  3
Dash dot __ . __ . __ . __ . __ . __ . __ . __
 72
   65
 73
    4
 40
25.4
 49
12.7
 74
    0
 49
-6.35
 74
    0
 49
0
 74
    0
 49
-6.35
 74
    0
  0
LTYPE
  5
3B
330
5
100
AcDbSymbolTableRecord
100
AcDbLinetypeTableRecord
  2
DASHDOTTINY
 70
    0
  3
Dash dot (.15x) _._._._._._._._._._._._._._._.
 72
   65
 73
    4
 40
3.81
 49
1.905
 74
    0
 49
-0.9525
 74
    0
 49
0
 74
    0
 49
-0.9525
 74
    0
  0
LTYPE
  5
3C
330
5
100
AcDbSymbolTableRecord
100
AcDbLinetypeTableRecord
  2
DASHDOT2
 70
    0
  3
Dash dot (.5x) _._._._._._._._._._._._._._._.
 72
   65
 73
    4
 40
12.7
 49
6.35
 74
    0
 49
-3.175
 74
    0
 49
0
 74
    0
 49
-3.175
 74
    0
  0
LTYPE
  5
3D
330
5
100
AcDbSymbolTableRecord
100
AcDbLinetypeTableRecord
  2
DASHDOTX2
 70
    0
  3
Dash dot (2x) ____  .  ____  .  ____  .  ___
 72
   65
 73
    4
 40
50.8
 49
25.4
 74
    0
 49
-12.7
 74
    0
 49
0
 74
    0
 49
-12.7
 74
    0
  0
LTYPE
  5
3E
330
5
100
AcDbSymbolTableRecord
100
AcDbLinetypeTableRecord
  2
DIVIDE
 70
    0
  3
Divide ____ . . ____ . . ____ . . ____ . . ____
 72
   65
 73
    6
 40
31.75
 49
12.7
 74
    0
 49
-6.35
 74
    0
 49
0
 74
    0
 49
-6.35
 74
    0
 49
0
 74
    0
 49
-6.35
 74
    0
  0
LTYPE
  5
3F
330
5
100
AcDbSymbolTableRecord
100
AcDbLinetypeTableRecord
  2
DIVIDETINY
 70
    0
  3
Divide (.15x) __..__..__..__..__..__..__..__.._
 72
   65
 73
    6
 40
4.7625
 49
1.905
 74
    0
 49
-0.9525
 74
    0
 49
0
 74
    0
 49
-0.9525
 74
    0
 49
0
 74
    0
 49
-0.9525
 74
    0
  0
LTYPE
  5
40
330
5
100
AcDbSymbolTableRecord
100
AcDbLinetypeTableRecord
  2
DIVIDE2
 70
    0
  3
Divide (.5x) __..__..__..__..__..__..__..__.._
 72
   65
 73
    6
 40
15.875
 49
6.35
 74
    0
 49
-3.175
 74
    0
 49
0
 74
    0
 49
-3.175
 74
    0
 49
0
 74
    0
 49
-3.175
 74
    0
  0
LTYPE
  5
41
330
5
100
AcDbSymbolTableRecord
100
AcDbLinetypeTableRecord
  2
DIVIDEX2
 70
    0
  3
Divide (2x) ________  .  .  ________  .  .  _
 72
   65
 73
    6
 40
63.5
 49
25.4
 74
    0
 49
-12.7
 74
    0
 49
0
 74
    0
 49
-12.7
 74
    0
 49
0
 74
    0
 49
-12.7
 74
    0
  0
LTYPE
  5
42
330
5
100
AcDbSymbolTableRecord
100
AcDbLinetypeTableRecord
  2
BORDER
 70
    0
  3
Border __ __ . __ __ . __ __ . __ __ . __ __ .
 72
   65
 73
    6
 40
44.45
 49
12.7
 74
    0
 49
-6.35
 74
    0
 49
12.7
 74
    0
 49
-6.35
 74
    0
 49
0
 74
    0
 49
-6.35
 74
    0
  0
LTYPE
  5
43
330
5
100
AcDbSymbolTableRecord
100
AcDbLinetypeTableRecord
  2
BORDERTINY
 70
    0
  3
Border (.15x) __.__.__.__.__.__.__.__.__.__.__.
 72
   65
 73
    6
 40
6.6675
 49
1.905
 74
    0
 49
-0.9525
 74
    0
 49
1.905
 74
    0
 49
-0.9525
 74
    0
 49
0
 74
    0
 49
-0.9525
 74
    0
  0
LTYPE
  5
44
330
5
100
AcDbSymbolTableRecord
100
AcDbLinetypeTableRecord
  2
BORDER2
 70
    0
  3
Border (.5x) __.__.__.__.__.__.__.__.__.__.__.
 72
   65
 73
    6
 40
22.225
 49
6.35
 74
    0
 49
-3.175
 74
    0
 49
6.35
 74
    0
 49
-3.175
 74
    0
 49
0
 74
    0
 49
-3.175
 74
    0
  0
LTYPE
  5
45
330
5
100
AcDbSymbolTableRecord
100
AcDbLinetypeTableRecord
  2
BORDERX2
 70
    0
  3
Border (2x) ____  ____  .  ____  ____  .  ___
 72
   65
 73
    6
 40
88.89999999999999
 49
25.4
 74
    0
 49
-12.7
 74
    0
 49
25.4
 74
    0
 49
-12.7
 74
    0
 49
0
 74
    0
 49
-12.7
 74
    0
  0
LTYPE
  5
46
330
5
100
AcDbSymbolTableRecord
100
AcDbLinetypeTableRecord
  2
CENTER
 70
    0
  3
Center ____ _ ____ _ ____ _ ____ _ ____ _ ____
 72
   65
 73
    4
 40
50.8
 49
31.75
 74
    0
 49
-6.35
 74
    0
 49
6.35
 74
    0
 49
-6.35
 74
    0
  0
LTYPE
  5
47
330
5
100
AcDbSymbolTableRecord
100
AcDbLinetypeTableRecord
  2
CENTERTINY
 70
    0
  3
Center (.15x) ___ _ ___ _ ___ _ ___ _ ___ _ ___
 72
   65
 73
    4
 40
7.62
 49
4.7625
 74
    0
 49
-0.9525
 74
    0
 49
0.9525
 74
    0
 49
-0.9525
 74
    0
  0
LTYPE
  5
48
330
5
100
AcDbSymbolTableRecord
100
AcDbLinetypeTableRecord
  2
CENTER2
 70
    0
  3
Center (.5x) ___ _ ___ _ ___ _ ___ _ ___ _ ___
 72
   65
 73
    4
 40
28.575
 49
19.05
 74
    0
 49
-3.175
 74
    0
 49
3.175
 74
    0
 49
-3.175
 74
    0
  0
LTYPE
  5
49
330
5
100
AcDbSymbolTableRecord
100
AcDbLinetypeTableRecord
  2
CENTERX2
 70
    0
  3
Center (2x) ________  __  ________  __  _____
 72
   65
 73
    4
 40
101.6
 49
63.5
 74
    0
 49
-12.7
 74
    0
 49
12.7
 74
    0
 49
-12.7
 74
    0
  0
ENDTAB
  0
TABLE
  2
LAYER
  5
2
330
0
100
AcDbSymbolTable
 70
    1
  0
LAYER
  5
10
330
2
100
AcDbSymbolTableRecord
100
AcDbLayerTableRecord
  2
0
 70
    0
 62
    7
  6
CONTINUOUS
370
    0
390
F
  0
ENDTAB
  0
TABLE
  2
STYLE
  5
3
330
0
100
AcDbSymbolTable
 70
    3
  0
STYLE
  5
4A
330
2
100
AcDbSymbolTableRecord
100
AcDbTextStyleTableRecord
  2
Standard
 70
    0
 40
0
 41
1
 50
0
 71
    0
 42
1
  3
txt
  4

  0
ENDTAB
  0
TABLE
  2
VIEW
  5
6
330
0
100
AcDbSymbolTable
 70
    0
  0
ENDTAB
  0
TABLE
  2
UCS
  5
7
330
0
100
AcDbSymbolTable
 70
    0
  0
ENDTAB
  0
TABLE
  2
APPID
  5
9
330
0
100
AcDbSymbolTable
 70
    1
  0
APPID
  5
12
330
9
100
AcDbSymbolTableRecord
100
AcDbRegAppTableRecord
  2
ACAD
 70
    0
  0
APPID
  5
4B
330
9
100
AcDbSymbolTableRecord
100
AcDbRegAppTableRecord
  2
LibreCad
 70
    0
  0
ENDTAB
  0
TABLE
  2
DIMSTYLE
  5
A
330
0
100
AcDbSymbolTable
 70
    1
100
AcDbDimStyleTable
 71
    1
  0
DIMSTYLE
105
4C
330
A
100
AcDbSymbolTableRecord
100
AcDbDimStyleTableRecord
  2
Standard
 70
    0
 40
1
 41
2.5
 42
0.625
 43
0.38
 44
1.25
 45
0
 46
0
 47
0
 48
0
140
2.5
141
0.09
142
0
143
25.4
144
1
145
0
146
1
147
0.625
148
0
 71
    0
 72
    0
 73
    0
 74
    1
 75
    0
 76
    0
 77
    0
 78
    0
 79
    0
170
    0
171
    2
172
    0
173
    0
174
    0
175
    0
176
    0
177
    0
178
    0
179
    0
271
    4
272
    4
273
    2
274
    2
275
    0
276
    0
277
    2
278
   46
279
    0
280
    0
281
    0
282
    0
283
    1
284
    0
285
    0
286
    0
288
    0
289
    3
340
Standard
341

371
   -2
372
   -2
  0
ENDTAB
  0
TABLE
  2
BLOCK_RECORD
  5
1
330
0
100
AcDbSymbolTable
 70
    2
  0
BLOCK_RECORD
  5
1F
330
1
100
AcDbSymbolTableRecord
100
AcDbBlockTableRecord
  2
*Model_Space
 70
    0
280
    1
281
    0
  0
BLOCK_RECORD
  5
1E
330
1
100
AcDbSymbolTableRecord
100
AcDbBlockTableRecord
  2
*Paper_Space
 70
    0
280
    1
281
    0
  0
BLOCK_RECORD
  5
4D
330
1
100
AcDbSymbolTableRecord
100
AcDbBlockTableRecord
  2
*D13
 70
    0
280
    1
281
    0
  0
BLOCK_RECORD
  5
50
330
1
100
AcDbSymbolTableRecord
100
AcDbBlockTableRecord
  2
*D27
 70
    0
280
    1
281
    0
  0
BLOCK_RECORD
  5
53
330
1
100
AcDbSymbolTableRecord
100
AcDbBlockTableRecord
  2
*D6
 70
    0
280
    1
281
    0
  0
BLOCK_RECORD
  5
56
330
1
100
AcDbSymbolTableRecord
100
AcDbBlockTableRecord
  2
*D18
 70
    0
280
    1
281
    0
  0
BLOCK_RECORD
  5
59
330
1
100
AcDbSymbolTableRecord
100
AcDbBlockTableRecord
  2
*D26
 70
    0
280
    1
281
    0
  0
BLOCK_RECORD
  5
5C
330
1
100
AcDbSymbolTableRecord
100
AcDbBlockTableRecord
  2
*D17
 70
    0
280
    1
281
    0
  0
BLOCK_RECORD
  5
5F
330
1
100
AcDbSymbolTableRecord
100
AcDbBlockTableRecord
  2
*D1
 70
    0
280
    1
281
    0
  0
BLOCK_RECORD
  5
62
330
1
100
AcDbSymbolTableRecord
100
AcDbBlockTableRecord
  2
*D9
 70
    0
280
    1
281
    0
  0
BLOCK_RECORD
  5
65
330
1
100
AcDbSymbolTableRecord
100
AcDbBlockTableRecord
  2
*D21
 70
    0
280
    1
281
    0
  0
BLOCK_RECORD
  5
68
330
1
100
AcDbSymbolTableRecord
100
AcDbBlockTableRecord
  2
*D3
 70
    0
280
    1
281
    0
  0
BLOCK_RECORD
  5
6B
330
1
100
AcDbSymbolTableRecord
100
AcDbBlockTableRecord
  2
*D29
 70
    0
280
    1
281
    0
  0
BLOCK_RECORD
  5
6E
330
1
100
AcDbSymbolTableRecord
100
AcDbBlockTableRecord
  2
*D16
 70
    0
280
    1
281
    0
  0
BLOCK_RECORD
  5
71
330
1
100
AcDbSymbolTableRecord
100
AcDbBlockTableRecord
  2
*D25
 70
    0
280
    1
281
    0
  0
BLOCK_RECORD
  5
74
330
1
100
AcDbSymbolTableRecord
100
AcDbBlockTableRecord
  2
*D22
 70
    0
280
    1
281
    0
  0
BLOCK_RECORD
  5
77
330
1
100
AcDbSymbolTableRecord
100
AcDbBlockTableRecord
  2
*D19
 70
    0
280
    1
281
    0
  0
BLOCK_RECORD
  5
7A
330
1
100
AcDbSymbolTableRecord
100
AcDbBlockTableRecord
  2
*D28
 70
    0
280
    1
281
    0
  0
BLOCK_RECORD
  5
7D
330
1
100
AcDbSymbolTableRecord
100
AcDbBlockTableRecord
  2
*D15
 70
    0
280
    1
281
    0
  0
BLOCK_RECORD
  5
80
330
1
100
AcDbSymbolTableRecord
100
AcDbBlockTableRecord
  2
*D23
 70
    0
280
    1
281
    0
  0
BLOCK_RECORD
  5
83
330
1
100
AcDbSymbolTableRecord
100
AcDbBlockTableRecord
  2
*D10
 70
    0
280
    1
281
    0
  0
BLOCK_RECORD
  5
86
330
1
100
AcDbSymbolTableRecord
100
AcDbBlockTableRecord
  2
*D12
 70
    0
280
    1
281
    0
  0
BLOCK_RECORD
  5
89
330
1
100
AcDbSymbolTableRecord
100
AcDbBlockTableRecord
  2
*D20
 70
    0
280
    1
281
    0
  0
BLOCK_RECORD
  5
8C
330
1
100
AcDbSymbolTableRecord
100
AcDbBlockTableRecord
  2
*D5
 70
    0
280
    1
281
    0
  0
BLOCK_RECORD
  5
8F
330
1
100
AcDbSymbolTableRecord
100
AcDbBlockTableRecord
  2
*D4
 70
    0
280
    1
281
    0
  0
BLOCK_RECORD
  5
92
330
1
100
AcDbSymbolTableRecord
100
AcDbBlockTableRecord
  2
*D8
 70
    0
280
    1
281
    0
  0
BLOCK_RECORD
  5
95
330
1
100
AcDbSymbolTableRecord
100
AcDbBlockTableRecord
  2
*D2
 70
    0
280
    1
281
    0
  0
BLOCK_RECORD
  5
98
330
1
100
AcDbSymbolTableRecord
100
AcDbBlockTableRecord
  2
*D14
 70
    0
280
    1
281
    0
  0
BLOCK_RECORD
  5
9B
330
1
100
AcDbSymbolTableRecord
100
AcDbBlockTableRecord
  2
*D30
 70
    0
280
    1
281
    0
  0
BLOCK_RECORD
  5
9E
330
1
100
AcDbSymbolTableRecord
100
AcDbBlockTableRecord
  2
*D7
 70
    0
280
    1
281
    0
  0
BLOCK_RECORD
  5
A1
330
1
100
AcDbSymbolTableRecord
100
AcDbBlockTableRecord
  2
*D24
 70
    0
280
    1
281
    0
  0
BLOCK_RECORD
  5
A4
330
1
100
AcDbSymbolTableRecord
100
AcDbBlockTableRecord
  2
*D11
 70
    0
280
    1
281
    0
  0
ENDTAB
  0
ENDSEC
  0
SECTION
  2
BLOCKS
  0
BLOCK
  5
20
330
1F
100
AcDbEntity
  8
0
100
AcDbBlockBegin
  2
*Model_Space
 70
    0
 10
0
 20
0
 30
0
  3
*Model_Space
  1

  0
ENDBLK
  5
21
330
1F
100
AcDbEntity
  8
0
100
AcDbBlockEnd
  0
BLOCK
  5
1C
330
1B
100
AcDbEntity
  8
0
100
AcDbBlockBegin
  2
*Paper_Space
 70
    0
 10
0
 20
0
 30
0
  3
*Paper_Space
  1

  0
ENDBLK
  5
1D
330
1F
100
AcDbEntity
  8
0
100
AcDbBlockEnd
  0
BLOCK
  5
4E
330
4D
100
AcDbEntity
  8
0
100
AcDbBlockBegin
  2
*D13
 70
    1
 10
0
 20
0
  3
*D13
  1

  0
LINE
  5
A7
100
AcDbEntity
  8
0
  6
ByBlock
 62
    0
370
   -2
100
AcDbLine
 10
69.59619407771254
 20
-34.59619407771257
 11
60.40380592228745
 21
-25.40380592228743
  0
SOLID
  5
A8
100
AcDbEntity
  8
0
  6
ByBlock
 62
    0
370
   -2
100
AcDbTrace
 10
66.06066017177982
 20
-31.06066017177982
 30
0
 11
68.12278482916128
 21
-32.5340694203311
 31
0
 12
67.53406942033108
 22
-33.12278482916129
 32
0
 13
67.53406942033108
 23
-33.12278482916129
 33
0
  0
SOLID
  5
A9
100
AcDbEntity
  8
0
  6
ByBlock
 62
    0
370
   -2
100
AcDbTrace
 10
63.93933982822018
 20
-28.93933982822018
 30
0
 11
61.87721517083872
 21
-27.4659305796689
 31
0
 12
62.46593057966891
 22
-26.87721517083871
 32
0
 13
62.46593057966891
 23
-26.87721517083871
 33
0
  0
MTEXT
  5
AA
100
AcDbEntity
  8
0
  6
CONTINUOUS
 62
    0
370
   -2
100
AcDbMText
 10
71.26575175551417
 20
-33.61410132606465
 30
0
 40
2.5
 41
9.722222222222378
 71
    5
 72
    1
  1
3.0000
  7
standard
210
0
220
0
230
1
 50
314.9999999999998
 73
    2
 44
1
  0
ENDBLK
  5
4F
330
4D
100
AcDbEntity
  8
0
100
AcDbBlockEnd
  0
BLOCK
  5
51
330
50
100
AcDbEntity
  8
0
100
AcDbBlockBegin
  2
*D27
 70
    1
 10
0
 20
0
  3
*D27
  1

  0
LINE
  5
AB
100
AcDbEntity
  8
0
  6
ByBlock
 62
    0
370
   -2
100
AcDbLine
 10
-1.993438317382935
 20
-90.83880140218086
 11
7.99343831738293
 21
-99.16119859781914
  0
SOLID
  5
AC
100
AcDbEntity
  8
0
  6
ByBlock
 62
    0
370
   -2
100
AcDbTrace
 10
1.847668080603936
 20
-94.03972340050328
 30
0
 11
-0.3393840621153396
 21
-92.75906113381308
 31
0
 12
0.1936138253363406
 22
-92.11946366887106
 32
0
 13
0.1936138253363406
 23
-92.11946366887106
 33
0
  0
SOLID
  5
AD
100
AcDbEntity
  8
0
  6
ByBlock
 62
    0
370
   -2
100
AcDbTrace
 10
4.152331919396059
 20
-95.96027659949672
 30
0
 11
6.339384062115335
 21
-97.24093886618692
 31
0
 12
5.806386174663655
 22
-97.88053633112894
 32
0
 13
5.806386174663655
 23
-97.88053633112894
 33
0
  0
MTEXT
  5
AE
100
AcDbEntity
  8
0
  6
CONTINUOUS
 62
    0
370
   -2
100
AcDbMText
 10
7.166533467816368
 20
-100.9128142469012
 30
0
 40
2.5
 41
9.722222222222378
 71
    5
 72
    1
  1
3.0000
  7
standard
210
0
220
0
230
1
 50
320.1944289077346
 73
    2
 44
1
  0
ENDBLK
  5
52
330
50
100
AcDbEntity
  8
0
100
AcDbBlockEnd
  0
BLOCK
  5
54
330
53
100
AcDbEntity
  8
0
100
AcDbBlockBegin
  2
*D6
 70
    1
 10
0
 20
0
  3
*D6
  1

  0
LINE
  5
AF
100
AcDbEntity
  8
0
  6
ByBlock
 62
    0
370
   -2
100
AcDbLine
 10
5.050252531694166
 20
10.05025253169417
 11
14.94974746830583
 21
19.94974746830583
  0
SOLID
  5
B0
100
AcDbEntity
  8
0
  6
ByBlock
 62
    0
370
   -2
100
AcDbTrace
 10
8.585786437626904
 20
13.5857864376269
 30
0
 11
7.112377189075632
 21
11.52366178024544
 31
0
 12
6.523661780245439
 22
12.11237718907563
 32
0
 13
6.523661780245439
 23
12.11237718907563
 33
0
  0
SOLID
  5
B1
100
AcDbEntity
  8
0
  6
ByBlock
 62
    0
370
   -2
100
AcDbTrace
 10
11.4142135623731
 20
16.4142135623731
 30
0
 11
12.88762281092437
 21
18.47633821975456
 31
0
 12
13.47633821975456
 22
17.88762281092437
 32
0
 13
13.47633821975456
 23
17.88762281092437
 33
0
  0
MTEXT
  5
B2
100
AcDbEntity
  8
0
  6
CONTINUOUS
 62
    0
370
   -2
100
AcDbMText
 10
14.06586399182265
 20
21.7175144212722
 30
0
 40
2.5
 41
10
 71
    5
 72
    1
  1
4.0000
  7
standard
210
0
220
0
230
1
 50
45
 73
    2
 44
1
  0
ENDBLK
  5
55
330
53
100
AcDbEntity
  8
0
100
AcDbBlockEnd
  0
BLOCK
  5
57
330
56
100
AcDbEntity
  8
0
100
AcDbBlockBegin
  2
*D18
 70
    1
 10
0
 20
0
  3
*D18
  1

  0
LINE
  5
B3
100
AcDbEntity
  8
0
  6
ByBlock
 62
    0
370
   -2
100
AcDbLine
 10
0.4038059222874586
 20
-170.4038059222874
 11
9.596194077712518
 21
-179.5961940777126
  0
SOLID
  5
B4
100
AcDbEntity
  8
0
  6
ByBlock
 62
    0
370
   -2
100
AcDbTrace
 10
3.939339828220172
 20
-173.9393398282202
 30
0
 11
1.877215170838717
 21
-172.4659305796689
 31
0
 12
2.465930579668916
 22
-171.8772151708387
 32
0
 13
2.465930579668916
 23
-171.8772151708387
 33
0
  0
SOLID
  5
B5
100
AcDbEntity
  8
0
  6
ByBlock
 62
    0
370
   -2
100
AcDbTrace
 10
6.060660171779803
 20
-176.0606601717798
 30
0
 11
8.122784829161258
 21
-177.5340694203311
 31
0
 12
7.534069420331061
 22
-178.1227848291613
 32
0
 13
7.534069420331061
 23
-178.1227848291613
 33
0
  0
MTEXT
  5
B6
100
AcDbEntity
  8
0
  6
CONTINUOUS
 62
    0
370
   -2
100
AcDbMText
 10
8.614101326064574
 20
-181.2657517555142
 30
0
 40
2.5
 41
9.722222222222378
 71
    5
 72
    1
  1
3.0000
  7
standard
210
0
220
0
230
1
 50
314.9999999999996
 73
    2
 44
1
  0
ENDBLK
  5
58
330
56
100
AcDbEntity
  8
0
100
AcDbBlockEnd
  0
BLOCK
  5
5A
330
59
100
AcDbEntity
  8
0
100
AcDbBlockBegin
  2
*D26
 70
    1
 10
0
 20
0
  3
*D26
  1

  0
LINE
  5
B7
100
AcDbEntity
  8
0
  6
ByBlock
 62
    0
370
   -2
100
AcDbLine
 10
0.05025253169416555
 20
-110.0502525316942
 11
9.949747468305825
 21
-119.9497474683058
  0
SOLID
  5
B8
100
AcDbEntity
  8
0
  6
ByBlock
 62
    0
370
   -2
100
AcDbTrace
 10
3.585786437626903
 20
-113.5857864376269
 30
0
 11
1.523661780245438
 21
-112.1123771890756
 31
0
 12
2.112377189075631
 22
-111.5236617802454
 32
0
 13
2.112377189075631
 23
-111.5236617802454
 33
0
  0
SOLID
  5
B9
100
AcDbEntity
  8
0
  6
ByBlock
 62
    0
370
   -2
100
AcDbTrace
 10
6.414213562373087
 20
-116.4142135623731
 30
0
 11
8.476338219754552
 21
-117.8876228109244
 31
0
 12
7.887622810924359
 22
-118.4763382197546
 32
0
 13
7.887622810924359
 23
-118.4763382197546
 33
0
  0
MTEXT
  5
BA
100
AcDbEntity
  8
0
  6
CONTINUOUS
 62
    0
370
   -2
100
AcDbMText
 10
9.065863991822644
 20
-121.7175144212722
 30
0
 40
2.5
 41
10
 71
    5
 72
    1
  1
4.0000
  7
standard
210
0
220
0
230
1
 50
315
 73
    2
 44
1
  0
ENDBLK
  5
5B
330
59
100
AcDbEntity
  8
0
100
AcDbBlockEnd
  0
BLOCK
  5
5D
330
5C
100
AcDbEntity
  8
0
100
AcDbBlockBegin
  2
*D17
 70
    1
 10
0
 20
0
  3
*D17
  1

  0
LINE
  5
BB
100
AcDbEntity
  8
0
  6
ByBlock
 62
    0
370
   -2
100
AcDbLine
 10
0.05025253169415711
 20
-180.0502525316942
 11
9.949747468305816
 21
-189.9497474683058
  0
SOLID
  5
BC
100
AcDbEntity
  8
0
  6
ByBlock
 62
    0
370
   -2
100
AcDbTrace
 10
3.585786437626894
 20
-183.5857864376269
 30
0
 11
1.523661780245429
 21
-182.1123771890756
 31
0
 12
2.112377189075623
 22
-181.5236617802454
 32
0
 13
2.112377189075623
 23
-181.5236617802454
 33
0
  0
SOLID
  5
BD
100
AcDbEntity
  8
0
  6
ByBlock
 62
    0
370
   -2
100
AcDbTrace
 10
6.414213562373079
 20
-186.4142135623731
 30
0
 11
8.476338219754544
 21
-187.8876228109243
 31
0
 12
7.887622810924351
 22
-188.4763382197546
 32
0
 13
7.887622810924351
 23
-188.4763382197546
 33
0
  0
MTEXT
  5
BE
100
AcDbEntity
  8
0
  6
CONTINUOUS
 62
    0
370
   -2
100
AcDbMText
 10
9.065863991822635
 20
-191.7175144212722
 30
0
 40
2.5
 41
10
 71
    5
 72
    1
  1
4.0000
  7
standard
210
0
220
0
230
1
 50
315
 73
    2
 44
1
  0
ENDBLK
  5
5E
330
5C
100
AcDbEntity
  8
0
100
AcDbBlockEnd
  0
BLOCK
  5
60
330
5F
100
AcDbEntity
  8
0
100
AcDbBlockBegin
  2
*D1
 70
    1
 10
0
 20
0
  3
*D1
  1

  0
LINE
  5
BF
100
AcDbEntity
  8
0
  6
ByBlock
 62
    0
370
   -2
100
AcDbLine
 10
70.07564726137969
 20
25.93948219089623
 11
59.92435273862031
 21
34.06051780910377
  0
SOLID
  5
C0
100
AcDbEntity
  8
0
  6
ByBlock
 62
    0
370
   -2
100
AcDbTrace
 10
66.17130321416454
 20
29.06295742866836
 30
0
 11
68.38352620185569
 21
27.82628351488678
 31
0
 12
67.86342427368852
 22
27.17615610467782
 32
0
 13
67.86342427368852
 23
27.17615610467782
 33
0
  0
SOLID
  5
C1
100
AcDbEntity
  8
0
  6
ByBlock
 62
    0
370
   -2
100
AcDbTrace
 10
63.82869678583545
 20
30.93704257133164
 30
0
 11
61.6164737981443
 21
32.17371648511322
 31
0
 12
62.13657572631146
 22
32.82384389532218
 32
0
 13
62.13657572631146
 23
32.82384389532218
 33
0
  0
MTEXT
  5
C2
100
AcDbEntity
  8
0
  6
CONTINUOUS
 62
    0
370
   -2
100
AcDbMText
 10
71.62653948013465
 20
27.09994000492957
 30
0
 40
2.5
 41
9.722222222222378
 71
    5
 72
    1
  1
3.0000
  7
standard
210
0
220
0
230
1
 50
321.3401917459097
 73
    2
 44
1
  0
ENDBLK
  5
61
330
5F
100
AcDbEntity
  8
0
100
AcDbBlockEnd
  0
BLOCK
  5
63
330
62
100
AcDbEntity
  8
0
100
AcDbBlockBegin
  2
*D9
 70
    1
 10
0
 20
0
  3
*D9
  1

  0
LINE
  5
C3
100
AcDbEntity
  8
0
  6
ByBlock
 62
    0
370
   -2
100
AcDbLine
 10
0.4038059222874444
 20
4.596194077712562
 11
9.596194077712557
 21
-4.59619407771256
  0
SOLID
  5
C4
100
AcDbEntity
  8
0
  6
ByBlock
 62
    0
370
   -2
100
AcDbTrace
 10
3.93933982822018
 20
1.060660171779823
 30
0
 11
1.877215170838716
 21
2.534069420331097
 31
0
 12
2.46593057966891
 22
3.12278482916129
 32
0
 13
2.46593057966891
 23
3.12278482916129
 33
0
  0
SOLID
  5
C5
100
AcDbEntity
  8
0
  6
ByBlock
 62
    0
370
   -2
100
AcDbTrace
 10
6.060660171779821
 20
-1.060660171779821
 30
0
 11
8.122784829161287
 21
-2.534069420331095
 31
0
 12
7.534069420331092
 22
-3.122784829161288
 32
0
 13
7.534069420331092
 23
-3.122784829161288
 33
0
  0
MTEXT
  5
C6
100
AcDbEntity
  8
0
  6
CONTINUOUS
 62
    0
370
   -2
100
AcDbMText
 10
11.26575175551418
 20
-3.614101326064638
 30
0
 40
2.5
 41
9.722222222222378
 71
    5
 72
    1
  1
3.0000
  7
standard
210
0
220
0
230
1
 50
314.9999999999999
 73
    2
 44
1
  0
ENDBLK
  5
64
330
62
100
AcDbEntity
  8
0
100
AcDbBlockEnd
  0
BLOCK
  5
66
330
65
100
AcDbEntity
  8
0
100
AcDbBlockBegin
  2
*D21
 70
    1
 10
0
 20
0
  3
*D21
  1

  0
LINE
  5
C7
100
AcDbEntity
  8
0
  6
ByBlock
 62
    0
370
   -2
100
AcDbLine
 10
94.94974746830582
 20
-160.0502525316942
 11
85.05025253169416
 21
-169.9497474683058
  0
SOLID
  5
C8
100
AcDbEntity
  8
0
  6
ByBlock
 62
    0
370
   -2
100
AcDbTrace
 10
91.41421356237308
 20
-163.5857864376269
 30
0
 11
92.88762281092436
 21
-161.5236617802454
 31
0
 12
93.47633821975454
 22
-162.1123771890757
 32
0
 13
93.47633821975454
 23
-162.1123771890757
 33
0
  0
SOLID
  5
C9
100
AcDbEntity
  8
0
  6
ByBlock
 62
    0
370
   -2
100
AcDbTrace
 10
88.58578643762689
 20
-166.4142135623731
 30
0
 11
87.11237718907562
 21
-168.4763382197546
 31
0
 12
86.52366178024543
 22
-167.8876228109244
 32
0
 13
86.52366178024543
 23
-167.8876228109244
 33
0
  0
MTEXT
  5
CA
100
AcDbEntity
  8
0
  6
CONTINUOUS
 62
    0
370
   -2
100
AcDbMText
 10
96.71751442127218
 20
-160.9341360081773
 30
0
 40
2.5
 41
10
 71
    5
 72
    1
  1
4.0000
  7
standard
210
0
220
0
230
1
 50
45
 73
    2
 44
1
  0
ENDBLK
  5
67
330
65
100
AcDbEntity
  8
0
100
AcDbBlockEnd
  0
BLOCK
  5
69
330
68
100
AcDbEntity
  8
0
100
AcDbBlockBegin
  2
*D3
 70
    1
 10
0
 20
0
  3
*D3
  1

  0
LINE
  5
CB
100
AcDbEntity
  8
0
  6
ByBlock
 62
    0
370
   -2
100
AcDbLine
 10
99.59619407771254
 20
20.40380592228743
 11
90.40380592228746
 21
29.59619407771257
  0
SOLID
  5
CC
100
AcDbEntity
  8
0
  6
ByBlock
 62
    0
370
   -2
100
AcDbTrace
 10
96.06066017177982
 20
23.93933982822018
 30
0
 11
98.12278482916128
 21
22.4659305796689
 31
0
 12
97.53406942033108
 22
21.87721517083871
 32
0
 13
97.53406942033108
 23
21.87721517083871
 33
0
  0
SOLID
  5
CD
100
AcDbEntity
  8
0
  6
ByBlock
 62
    0
370
   -2
100
AcDbTrace
 10
93.93933982822018
 20
26.06066017177982
 30
0
 11
91.87721517083872
 21
27.5340694203311
 31
0
 12
92.46593057966892
 22
28.12278482916129
 32
0
 13
92.46593057966892
 23
28.12278482916129
 33
0
  0
MTEXT
  5
CE
100
AcDbEntity
  8
0
  6
CONTINUOUS
 62
    0
370
   -2
100
AcDbMText
 10
101.2657517555142
 20
21.38589867393535
 30
0
 40
2.5
 41
9.722222222222378
 71
    5
 72
    1
  1
3.0000
  7
standard
210
0
220
0
230
1
 50
314.9999999999998
 73
    2
 44
1
  0
ENDBLK
  5
6A
330
68
100
AcDbEntity
  8
0
100
AcDbBlockEnd
  0
BLOCK
  5
6C
330
6B
100
AcDbEntity
  8
0
100
AcDbBlockBegin
  2
*D29
 70
    1
 10
0
 20
0
  3
*D29
  1

  0
LINE
  5
CF
100
AcDbEntity
  8
0
  6
ByBlock
 62
    0
370
   -2
100
AcDbLine
 10
94.94974746830584
 20
-139.9497474683058
 11
85.05025253169414
 21
-130.0502525316942
  0
SOLID
  5
D0
100
AcDbEntity
  8
0
  6
ByBlock
 62
    0
370
   -2
100
AcDbTrace
 10
91.41421356237309
 20
-136.4142135623731
 30
0
 11
93.47633821975457
 21
-137.8876228109244
 31
0
 12
92.88762281092437
 22
-138.4763382197546
 32
0
 13
92.88762281092437
 23
-138.4763382197546
 33
0
  0
SOLID
  5
D1
100
AcDbEntity
  8
0
  6
ByBlock
 62
    0
370
   -2
100
AcDbTrace
 10
88.58578643762689
 20
-133.5857864376269
 30
0
 11
86.52366178024542
 21
-132.1123771890757
 31
0
 12
87.11237718907562
 22
-131.5236617802454
 32
0
 13
87.11237718907562
 23
-131.5236617802454
 33
0
  0
MTEXT
  5
D2
100
AcDbEntity
  8
0
  6
CONTINUOUS
 62
    0
370
   -2
100
AcDbMText
 10
94.06586399182265
 20
-141.7175144212722
 30
0
 40
2.5
 41
10
 71
    5
 72
    1
  1
4.0000
  7
standard
210
0
220
0
230
1
 50
315.0000000000002
 73
    2
 44
1
  0
ENDBLK
  5
6D
330
6B
100
AcDbEntity
  8
0
100
AcDbBlockEnd
  0
BLOCK
  5
6F
330
6E
100
AcDbEntity
  8
0
100
AcDbBlockBegin
  2
*D16
 70
    1
 10
0
 20
0
  3
*D16
  1

  0
LINE
  5
D3
100
AcDbEntity
  8
0
  6
ByBlock
 62
    0
370
   -2
100
AcDbLine
 10
29.92435273862029
 20
-175.9394821908963
 11
40.07564726137969
 21
-184.0605178091037
  0
SOLID
  5
D4
100
AcDbEntity
  8
0
  6
ByBlock
 62
    0
370
   -2
100
AcDbTrace
 10
33.82869678583545
 20
-179.0629574286684
 30
0
 11
31.61647379814429
 21
-177.8262835148868
 31
0
 12
32.13657572631145
 22
-177.1761561046778
 32
0
 13
32.13657572631145
 23
-177.1761561046778
 33
0
  0
SOLID
  5
D5
100
AcDbEntity
  8
0
  6
ByBlock
 62
    0
370
   -2
100
AcDbTrace
 10
36.17130321416453
 20
-180.9370425713316
 30
0
 11
38.38352620185569
 21
-182.1737164851132
 31
0
 12
37.86342427368853
 22
-182.8238438953222
 32
0
 13
37.86342427368853
 23
-182.8238438953222
 33
0
  0
MTEXT
  5
D6
100
AcDbEntity
  8
0
  6
CONTINUOUS
 62
    0
370
   -2
100
AcDbMText
 10
39.28393305180555
 20
-185.8283180304818
 30
0
 40
2.5
 41
9.722222222222378
 71
    5
 72
    1
  1
3.0000
  7
standard
210
0
220
0
230
1
 50
321.34019174591
 73
    2
 44
1
  0
ENDBLK
  5
70
330
6E
100
AcDbEntity
  8
0
100
AcDbBlockEnd
  0
BLOCK
  5
72
330
71
100
AcDbEntity
  8
0
100
AcDbBlockBegin
  2
*D25
 70
    1
 10
0
 20
0
  3
*D25
  1

  0
LINE
  5
D7
100
AcDbEntity
  8
0
  6
ByBlock
 62
    0
370
   -2
100
AcDbLine
 10
0.4038059222874542
 20
-120.4038059222874
 11
9.596194077712534
 21
-129.5961940777126
  0
SOLID
  5
D8
100
AcDbEntity
  8
0
  6
ByBlock
 62
    0
370
   -2
100
AcDbTrace
 10
3.939339828220179
 20
-123.9393398282202
 30
0
 11
1.877215170838718
 21
-122.4659305796689
 31
0
 12
2.465930579668914
 22
-121.8772151708387
 32
0
 13
2.465930579668914
 23
-121.8772151708387
 33
0
  0
SOLID
  5
D9
100
AcDbEntity
  8
0
  6
ByBlock
 62
    0
370
   -2
100
AcDbTrace
 10
6.060660171779809
 20
-126.0606601717798
 30
0
 11
8.122784829161269
 21
-127.5340694203311
 31
0
 12
7.534069420331074
 22
-128.1227848291613
 32
0
 13
7.534069420331074
 23
-128.1227848291613
 33
0
  0
MTEXT
  5
DA
100
AcDbEntity
  8
0
  6
CONTINUOUS
 62
    0
370
   -2
100
AcDbMText
 10
8.614101326064594
 20
-131.2657517555142
 30
0
 40
2.5
 41
9.722222222222378
 71
    5
 72
    1
  1
3.0000
  7
standard
210
0
220
0
230
1
 50
314.9999999999998
 73
    2
 44
1
  0
ENDBLK
  5
73
330
71
100
AcDbEntity
  8
0
100
AcDbBlockEnd
  0
BLOCK
  5
75
330
74
100
AcDbEntity
  8
0
100
AcDbBlockBegin
  2
*D22
 70
    1
 10
0
 20
0
  3
*D22
  1

  0
LINE
  5
DB
100
AcDbEntity
  8
0
  6
ByBlock
 62
    0
370
   -2
100
AcDbLine
 10
99.59619407771254
 20
-165.4038059222874
 11
90.40380592228745
 21
-174.5961940777126
  0
SOLID
  5
DC
100
AcDbEntity
  8
0
  6
ByBlock
 62
    0
370
   -2
100
AcDbTrace
 10
96.06066017177982
 20
-168.9393398282202
 30
0
 11
97.53406942033108
 21
-166.8772151708387
 31
0
 12
98.12278482916128
 22
-167.4659305796689
 32
0
 13
98.12278482916128
 23
-167.4659305796689
 33
0
  0
SOLID
  5
DD
100
AcDbEntity
  8
0
  6
ByBlock
 62
    0
370
   -2
100
AcDbTrace
 10
93.93933982822017
 20
-171.0606601717798
 30
0
 11
92.46593057966891
 21
-173.1227848291613
 31
0
 12
91.87721517083871
 22
-172.5340694203311
 32
0
 13
91.87721517083871
 23
-172.5340694203311
 33
0
  0
MTEXT
  5
DE
100
AcDbEntity
  8
0
  6
CONTINUOUS
 62
    0
370
   -2
100
AcDbMText
 10
101.2657517555142
 20
-166.3858986739353
 30
0
 40
2.5
 41
9.722222222222378
 71
    5
 72
    1
  1
3.0000
  7
standard
210
0
220
0
230
1
 50
45.00000000000013
 73
    2
 44
1
  0
ENDBLK
  5
76
330
74
100
AcDbEntity
  8
0
100
AcDbBlockEnd
  0
BLOCK
  5
78
330
77
100
AcDbEntity
  8
0
100
AcDbBlockBegin
  2
*D19
 70
    1
 10
0
 20
0
  3
*D19
  1

  0
LINE
  5
DF
100
AcDbEntity
  8
0
  6
ByBlock
 62
    0
370
   -2
100
AcDbLine
 10
0.4038059222874617
 20
-145.4038059222874
 11
9.596194077712521
 21
-154.5961940777126
  0
SOLID
  5
E0
100
AcDbEntity
  8
0
  6
ByBlock
 62
    0
370
   -2
100
AcDbTrace
 10
3.939339828220175
 20
-148.9393398282202
 30
0
 11
1.877215170838721
 21
-147.4659305796689
 31
0
 12
2.465930579668918
 22
-146.8772151708387
 32
0
 13
2.465930579668918
 23
-146.8772151708387
 33
0
  0
SOLID
  5
E1
100
AcDbEntity
  8
0
  6
ByBlock
 62
    0
370
   -2
100
AcDbTrace
 10
6.060660171779807
 20
-151.0606601717798
 30
0
 11
8.122784829161262
 21
-152.5340694203311
 31
0
 12
7.534069420331065
 22
-153.1227848291613
 32
0
 13
7.534069420331065
 23
-153.1227848291613
 33
0
  0
MTEXT
  5
E2
100
AcDbEntity
  8
0
  6
CONTINUOUS
 62
    0
370
   -2
100
AcDbMText
 10
8.614101326064576
 20
-156.2657517555142
 30
0
 40
2.5
 41
9.722222222222378
 71
    5
 72
    1
  1
3.0000
  7
standard
210
0
220
0
230
1
 50
314.9999999999996
 73
    2
 44
1
  0
ENDBLK
  5
79
330
77
100
AcDbEntity
  8
0
100
AcDbBlockEnd
  0
BLOCK
  5
7B
330
7A
100
AcDbEntity
  8
0
100
AcDbBlockBegin
  2
*D28
 70
    1
 10
0
 20
0
  3
*D28
  1

  0
LINE
  5
E3
100
AcDbEntity
  8
0
  6
ByBlock
 62
    0
370
   -2
100
AcDbLine
 10
30.40380592228745
 20
-115.4038059222874
 11
39.59619407771255
 21
-124.5961940777126
  0
SOLID
  5
E4
100
AcDbEntity
  8
0
  6
ByBlock
 62
    0
370
   -2
100
AcDbTrace
 10
33.93933982822018
 20
-118.9393398282202
 30
0
 11
31.87721517083871
 21
-117.4659305796689
 31
0
 12
32.46593057966891
 22
-116.8772151708387
 32
0
 13
32.46593057966891
 23
-116.8772151708387
 33
0
  0
SOLID
  5
E5
100
AcDbEntity
  8
0
  6
ByBlock
 62
    0
370
   -2
100
AcDbTrace
 10
36.06066017177982
 20
-121.0606601717798
 30
0
 11
38.12278482916128
 21
-122.5340694203311
 31
0
 12
37.53406942033109
 22
-123.1227848291613
 32
0
 13
37.53406942033109
 23
-123.1227848291613
 33
0
  0
MTEXT
  5
E6
100
AcDbEntity
  8
0
  6
CONTINUOUS
 62
    0
370
   -2
100
AcDbMText
 10
38.61410132606462
 20
-126.2657517555142
 30
0
 40
2.5
 41
9.722222222222378
 71
    5
 72
    1
  1
3.0000
  7
standard
210
0
220
0
230
1
 50
314.9999999999999
 73
    2
 44
1
  0
ENDBLK
  5
7C
330
7A
100
AcDbEntity
  8
0
100
AcDbBlockEnd
  0
BLOCK
  5
7E
330
7D
100
AcDbEntity
  8
0
100
AcDbBlockBegin
  2
*D15
 70
    1
 10
0
 20
0
  3
*D15
  1

  0
LINE
  5
E7
100
AcDbEntity
  8
0
  6
ByBlock
 62
    0
370
   -2
100
AcDbLine
 10
0.4038059222874457
 20
-15.40380592228744
 11
9.596194077712555
 21
-24.59619407771256
  0
SOLID
  5
E8
100
AcDbEntity
  8
0
  6
ByBlock
 62
    0
370
   -2
100
AcDbTrace
 10
3.93933982822018
 20
-18.93933982822018
 30
0
 11
1.877215170838716
 21
-17.4659305796689
 31
0
 12
2.46593057966891
 22
-16.87721517083871
 32
0
 13
2.46593057966891
 23
-16.87721517083871
 33
0
  0
SOLID
  5
E9
100
AcDbEntity
  8
0
  6
ByBlock
 62
    0
370
   -2
100
AcDbTrace
 10
6.060660171779821
 20
-21.06066017177982
 30
0
 11
8.122784829161285
 21
-22.5340694203311
 31
0
 12
7.534069420331091
 22
-23.12278482916129
 32
0
 13
7.534069420331091
 23
-23.12278482916129
 33
0
  0
MTEXT
  5
EA
100
AcDbEntity
  8
0
  6
CONTINUOUS
 62
    0
370
   -2
100
AcDbMText
 10
11.26575175551418
 20
-23.61410132606464
 30
0
 40
2.5
 41
9.722222222222378
 71
    5
 72
    1
  1
3.0000
  7
standard
210
0
220
0
230
1
 50
314.9999999999999
 73
    2
 44
1
  0
ENDBLK
  5
7F
330
7D
100
AcDbEntity
  8
0
100
AcDbBlockEnd
  0
BLOCK
  5
81
330
80
100
AcDbEntity
  8
0
100
AcDbBlockBegin
  2
*D23
 70
    1
 10
0
 20
0
  3
*D23
  1

  0
LINE
  5
EB
100
AcDbEntity
  8
0
  6
ByBlock
 62
    0
370
   -2
100
AcDbLine
 10
7.596194077712512
 20
-209.5961940777126
 11
-1.596194077712543
 21
-200.4038059222874
  0
SOLID
  5
EC
100
AcDbEntity
  8
0
  6
ByBlock
 62
    0
370
   -2
100
AcDbTrace
 10
4.0606601717798
 20
-206.0606601717798
 30
0
 11
6.122784829161255
 21
-207.5340694203311
 31
0
 12
5.534069420331058
 22
-208.1227848291613
 32
0
 13
5.534069420331058
 23
-208.1227848291613
 33
0
  0
SOLID
  5
ED
100
AcDbEntity
  8
0
  6
ByBlock
 62
    0
370
   -2
100
AcDbTrace
 10
1.939339828220169
 20
-203.9393398282202
 30
0
 11
-0.1227848291612862
 21
-202.4659305796689
 31
0
 12
0.4659305796689117
 22
-201.8772151708387
 32
0
 13
0.4659305796689117
 23
-201.8772151708387
 33
0
  0
MTEXT
  5
EE
100
AcDbEntity
  8
0
  6
CONTINUOUS
 62
    0
370
   -2
100
AcDbMText
 10
6.614101326064565
 20
-211.2657517555142
 30
0
 40
2.5
 41
9.722222222222378
 71
    5
 72
    1
  1
3.0000
  7
standard
210
0
220
0
230
1
 50
314.9999999999995
 73
    2
 44
1
  0
ENDBLK
  5
82
330
80
100
AcDbEntity
  8
0
100
AcDbBlockEnd
  0
BLOCK
  5
84
330
83
100
AcDbEntity
  8
0
100
AcDbBlockBegin
  2
*D10
 70
    1
 10
0
 20
0
  3
*D10
  1

  0
LINE
  5
EF
100
AcDbEntity
  8
0
  6
ByBlock
 62
    0
370
   -2
100
AcDbLine
 10
99.59619407771254
 20
-29.59619407771257
 11
90.40380592228746
 21
-20.40380592228743
  0
SOLID
  5
F0
100
AcDbEntity
  8
0
  6
ByBlock
 62
    0
370
   -2
100
AcDbTrace
 10
96.06066017177982
 20
-26.06066017177982
 30
0
 11
98.12278482916128
 21
-27.5340694203311
 31
0
 12
97.53406942033108
 22
-28.12278482916129
 32
0
 13
97.53406942033108
 23
-28.12278482916129
 33
0
  0
SOLID
  5
F1
100
AcDbEntity
  8
0
  6
ByBlock
 62
    0
370
   -2
100
AcDbTrace
 10
93.93933982822018
 20
-23.93933982822018
 30
0
 11
91.87721517083872
 21
-22.4659305796689
 31
0
 12
92.46593057966892
 22
-21.87721517083871
 32
0
 13
92.46593057966892
 23
-21.87721517083871
 33
0
  0
MTEXT
  5
F2
100
AcDbEntity
  8
0
  6
CONTINUOUS
 62
    0
370
   -2
100
AcDbMText
 10
101.2657517555142
 20
-28.61410132606465
 30
0
 40
2.5
 41
9.722222222222378
 71
    5
 72
    1
  1
3.0000
  7
standard
210
0
220
0
230
1
 50
314.9999999999998
 73
    2
 44
1
  0
ENDBLK
  5
85
330
83
100
AcDbEntity
  8
0
100
AcDbBlockEnd
  0
BLOCK
  5
87
330
86
100
AcDbEntity
  8
0
100
AcDbBlockBegin
  2
*D12
 70
    1
 10
0
 20
0
  3
*D12
  1

  0
LINE
  5
F3
100
AcDbEntity
  8
0
  6
ByBlock
 62
    0
370
   -2
100
AcDbLine
 10
101.9934383173829
 20
-59.16119859781913
 11
92.00656168261706
 21
-50.83880140218087
  0
SOLID
  5
F4
100
AcDbEntity
  8
0
  6
ByBlock
 62
    0
370
   -2
100
AcDbTrace
 10
98.15233191939606
 20
-55.96027659949672
 30
0
 11
100.3393840621153
 21
-57.24093886618692
 31
0
 12
99.80638617466366
 22
-57.88053633112894
 32
0
 13
99.80638617466366
 23
-57.88053633112894
 33
0
  0
SOLID
  5
F5
100
AcDbEntity
  8
0
  6
ByBlock
 62
    0
370
   -2
100
AcDbTrace
 10
95.84766808060394
 20
-54.03972340050328
 30
0
 11
93.66061593788466
 21
-52.75906113381308
 31
0
 12
94.19361382533634
 22
-52.11946366887106
 32
0
 13
94.19361382533634
 23
-52.11946366887106
 33
0
  0
MTEXT
  5
F6
100
AcDbEntity
  8
0
  6
CONTINUOUS
 62
    0
370
   -2
100
AcDbMText
 10
103.5672249665582
 20
-58.031984448411
 30
0
 40
2.5
 41
9.722222222222378
 71
    5
 72
    1
  1
3.0000
  7
standard
210
0
220
0
230
1
 50
320.1944289077347
 73
    2
 44
1
  0
ENDBLK
  5
88
330
86
100
AcDbEntity
  8
0
100
AcDbBlockEnd
  0
BLOCK
  5
8A
330
89
100
AcDbEntity
  8
0
100
AcDbBlockBegin
  2
*D20
 70
    1
 10
0
 20
0
  3
*D20
  1

  0
LINE
  5
F7
100
AcDbEntity
  8
0
  6
ByBlock
 62
    0
370
   -2
100
AcDbLine
 10
45.40380592228745
 20
-145.4038059222874
 11
54.59619407771254
 21
-154.5961940777126
  0
SOLID
  5
F8
100
AcDbEntity
  8
0
  6
ByBlock
 62
    0
370
   -2
100
AcDbTrace
 10
48.93933982822017
 20
-148.9393398282202
 30
0
 11
46.87721517083871
 21
-147.4659305796689
 31
0
 12
47.46593057966891
 22
-146.8772151708387
 32
0
 13
47.46593057966891
 23
-146.8772151708387
 33
0
  0
SOLID
  5
F9
100
AcDbEntity
  8
0
  6
ByBlock
 62
    0
370
   -2
100
AcDbTrace
 10
51.06066017177982
 20
-151.0606601717798
 30
0
 11
53.12278482916128
 21
-152.5340694203311
 31
0
 12
52.53406942033108
 22
-153.1227848291613
 32
0
 13
52.53406942033108
 23
-153.1227848291613
 33
0
  0
MTEXT
  5
FA
100
AcDbEntity
  8
0
  6
CONTINUOUS
 62
    0
370
   -2
100
AcDbMText
 10
53.61410132606462
 20
-156.2657517555142
 30
0
 40
2.5
 41
9.722222222222378
 71
    5
 72
    1
  1
3.0000
  7
standard
210
0
220
0
230
1
 50
314.9999999999998
 73
    2
 44
1
  0
ENDBLK
  5
8B
330
89
100
AcDbEntity
  8
0
100
AcDbBlockEnd
  0
BLOCK
  5
8D
330
8C
100
AcDbEntity
  8
0
100
AcDbBlockBegin
  2
*D5
 70
    1
 10
0
 20
0
  3
*D5
  1

  0
LINE
  5
FB
100
AcDbEntity
  8
0
  6
ByBlock
 62
    0
370
   -2
100
AcDbLine
 10
54.59619407771256
 20
-4.596194077712557
 11
45.40380592228744
 21
4.596194077712557
  0
SOLID
  5
FC
100
AcDbEntity
  8
0
  6
ByBlock
 62
    0
370
   -2
100
AcDbTrace
 10
51.06066017177982
 20
-1.060660171779821
 30
0
 11
53.12278482916129
 21
-2.534069420331092
 31
0
 12
52.53406942033109
 22
-3.122784829161286
 32
0
 13
52.53406942033109
 23
-3.122784829161286
 33
0
  0
SOLID
  5
FD
100
AcDbEntity
  8
0
  6
ByBlock
 62
    0
370
   -2
100
AcDbTrace
 10
48.93933982822018
 20
1.060660171779821
 30
0
 11
46.87721517083871
 21
2.534069420331092
 31
0
 12
47.46593057966891
 22
3.122784829161286
 32
0
 13
47.46593057966891
 23
3.122784829161286
 33
0
  0
MTEXT
  5
FE
100
AcDbEntity
  8
0
  6
CONTINUOUS
 62
    0
370
   -2
100
AcDbMText
 10
56.26575175551419
 20
-3.614101326064628
 30
0
 40
2.5
 41
9.722222222222378
 71
    5
 72
    1
  1
3.0000
  7
standard
210
0
220
0
230
1
 50
315.0000000000001
 73
    2
 44
1
  0
ENDBLK
  5
8E
330
8C
100
AcDbEntity
  8
0
100
AcDbBlockEnd
  0
BLOCK
  5
90
330
8F
100
AcDbEntity
  8
0
100
AcDbBlockBegin
  2
*D4
 70
    1
 10
0
 20
0
  3
*D4
  1

  0
LINE
  5
FF
100
AcDbEntity
  8
0
  6
ByBlock
 62
    0
370
   -2
100
AcDbLine
 10
99.59619407771254
 20
-4.596194077712569
 11
90.40380592228746
 21
4.596194077712569
  0
SOLID
  5
100
100
AcDbEntity
  8
0
  6
ByBlock
 62
    0
370
   -2
100
AcDbTrace
 10
96.06066017177982
 20
-1.060660171779821
 30
0
 11
98.12278482916128
 21
-2.534069420331099
 31
0
 12
97.53406942033108
 22
-3.122784829161291
 32
0
 13
97.53406942033108
 23
-3.122784829161291
 33
0
  0
SOLID
  5
101
100
AcDbEntity
  8
0
  6
ByBlock
 62
    0
370
   -2
100
AcDbTrace
 10
93.93933982822018
 20
1.060660171779821
 30
0
 11
91.87721517083872
 21
2.534069420331099
 31
0
 12
92.46593057966892
 22
3.122784829161291
 32
0
 13
92.46593057966892
 23
3.122784829161291
 33
0
  0
MTEXT
  5
102
100
AcDbEntity
  8
0
  6
CONTINUOUS
 62
    0
370
   -2
100
AcDbMText
 10
101.2657517555142
 20
-3.614101326064647
 30
0
 40
2.5
 41
9.722222222222378
 71
    5
 72
    1
  1
3.0000
  7
standard
210
0
220
0
230
1
 50
314.9999999999998
 73
    2
 44
1
  0
ENDBLK
  5
91
330
8F
100
AcDbEntity
  8
0
100
AcDbBlockEnd
  0
BLOCK
  5
93
330
92
100
AcDbEntity
  8
0
100
AcDbBlockBegin
  2
*D8
 70
    1
 10
0
 20
0
  3
*D8
  1

  0
LINE
  5
103
100
AcDbEntity
  8
0
  6
ByBlock
 62
    0
370
   -2
100
AcDbLine
 10
92.40380592228746
 20
59.59619407771257
 11
101.5961940777125
 21
50.40380592228743
  0
SOLID
  5
104
100
AcDbEntity
  8
0
  6
ByBlock
 62
    0
370
   -2
100
AcDbTrace
 10
95.93933982822018
 20
56.06066017177982
 30
0
 11
93.87721517083872
 21
57.5340694203311
 31
0
 12
94.46593057966892
 22
58.1227848291613
 32
0
 13
94.46593057966892
 23
58.1227848291613
 33
0
  0
SOLID
  5
105
100
AcDbEntity
  8
0
  6
ByBlock
 62
    0
370
   -2
100
AcDbTrace
 10
98.06066017177982
 20
53.93933982822018
 30
0
 11
100.1227848291613
 21
52.4659305796689
 31
0
 12
99.53406942033108
 22
51.87721517083871
 32
0
 13
99.53406942033108
 23
51.87721517083871
 33
0
  0
MTEXT
  5
106
100
AcDbEntity
  8
0
  6
CONTINUOUS
 62
    0
370
   -2
100
AcDbMText
 10
103.2657517555142
 20
51.38589867393535
 30
0
 40
2.5
 41
9.722222222222378
 71
    5
 72
    1
  1
3.0000
  7
standard
210
0
220
0
230
1
 50
314.9999999999998
 73
    2
 44
1
  0
ENDBLK
  5
94
330
92
100
AcDbEntity
  8
0
100
AcDbBlockEnd
  0
BLOCK
  5
96
330
95
100
AcDbEntity
  8
0
100
AcDbBlockBegin
  2
*D2
 70
    1
 10
0
 20
0
  3
*D2
  1

  0
LINE
  5
107
100
AcDbEntity
  8
0
  6
ByBlock
 62
    0
370
   -2
100
AcDbLine
 10
99.94974746830583
 20
30.05025253169417
 11
90.05025253169417
 21
39.94974746830583
  0
SOLID
  5
108
100
AcDbEntity
  8
0
  6
ByBlock
 62
    0
370
   -2
100
AcDbTrace
 10
96.41421356237309
 20
33.58578643762691
 30
0
 11
98.47633821975455
 21
32.11237718907564
 31
0
 12
97.88762281092437
 22
31.52366178024544
 32
0
 13
97.88762281092437
 23
31.52366178024544
 33
0
  0
SOLID
  5
109
100
AcDbEntity
  8
0
  6
ByBlock
 62
    0
370
   -2
100
AcDbTrace
 10
93.58578643762691
 20
36.41421356237309
 30
0
 11
91.52366178024545
 21
37.88762281092436
 31
0
 12
92.11237718907563
 22
38.47633821975456
 32
0
 13
92.11237718907563
 23
38.47633821975456
 33
0
  0
MTEXT
  5
10A
100
AcDbEntity
  8
0
  6
CONTINUOUS
 62
    0
370
   -2
100
AcDbMText
 10
101.7175144212722
 20
30.93413600817735
 30
0
 40
2.5
 41
10
 71
    5
 72
    1
  1
4.0000
  7
standard
210
0
220
0
230
1
 50
315
 73
    2
 44
1
  0
ENDBLK
  5
97
330
95
100
AcDbEntity
  8
0
100
AcDbBlockEnd
  0
BLOCK
  5
99
330
98
100
AcDbEntity
  8
0
100
AcDbBlockBegin
  2
*D14
 70
    1
 10
0
 20
0
  3
*D14
  1

  0
LINE
  5
10B
100
AcDbEntity
  8
0
  6
ByBlock
 62
    0
370
   -2
100
AcDbLine
 10
5.05025253169417
 20
-10.05025253169416
 11
14.94974746830583
 21
-19.94974746830584
  0
SOLID
  5
10C
100
AcDbEntity
  8
0
  6
ByBlock
 62
    0
370
   -2
100
AcDbTrace
 10
8.585786437626906
 20
-13.5857864376269
 30
0
 11
6.523661780245442
 21
-12.11237718907563
 31
0
 12
7.112377189075636
 22
-11.52366178024544
 32
0
 13
7.112377189075636
 23
-11.52366178024544
 33
0
  0
SOLID
  5
10D
100
AcDbEntity
  8
0
  6
ByBlock
 62
    0
370
   -2
100
AcDbTrace
 10
11.41421356237309
 20
-16.4142135623731
 30
0
 11
13.47633821975456
 21
-17.88762281092437
 31
0
 12
12.88762281092436
 22
-18.47633821975456
 32
0
 13
12.88762281092436
 23
-18.47633821975456
 33
0
  0
MTEXT
  5
10E
100
AcDbEntity
  8
0
  6
CONTINUOUS
 62
    0
370
   -2
100
AcDbMText
 10
16.7175144212722
 20
-19.06586399182266
 30
0
 40
2.5
 41
10
 71
    5
 72
    1
  1
4.0000
  7
standard
210
0
220
0
230
1
 50
314.9999999999999
 73
    2
 44
1
  0
ENDBLK
  5
9A
330
98
100
AcDbEntity
  8
0
100
AcDbBlockEnd
  0
BLOCK
  5
9C
330
9B
100
AcDbEntity
  8
0
100
AcDbBlockBegin
  2
*D30
 70
    1
 10
0
 20
0
  3
*D30
  1

  0
LINE
  5
10F
100
AcDbEntity
  8
0
  6
ByBlock
 62
    0
370
   -2
100
AcDbLine
 10
99.59619407771254
 20
-134.5961940777126
 11
90.40380592228745
 21
-125.4038059222874
  0
SOLID
  5
110
100
AcDbEntity
  8
0
  6
ByBlock
 62
    0
370
   -2
100
AcDbTrace
 10
96.06066017177982
 20
-131.0606601717798
 30
0
 11
98.12278482916128
 21
-132.5340694203311
 31
0
 12
97.53406942033108
 22
-133.1227848291613
 32
0
 13
97.53406942033108
 23
-133.1227848291613
 33
0
  0
SOLID
  5
111
100
AcDbEntity
  8
0
  6
ByBlock
 62
    0
370
   -2
100
AcDbTrace
 10
93.93933982822017
 20
-128.9393398282202
 30
0
 11
91.87721517083871
 21
-127.4659305796689
 31
0
 12
92.46593057966891
 22
-126.8772151708387
 32
0
 13
92.46593057966891
 23
-126.8772151708387
 33
0
  0
MTEXT
  5
112
100
AcDbEntity
  8
0
  6
CONTINUOUS
 62
    0
370
   -2
100
AcDbMText
 10
98.61410132606461
 20
-136.2657517555142
 30
0
 40
2.5
 41
9.722222222222378
 71
    5
 72
    1
  1
3.0000
  7
standard
210
0
220
0
230
1
 50
314.9999999999998
 73
    2
 44
1
  0
ENDBLK
  5
9D
330
9B
100
AcDbEntity
  8
0
100
AcDbBlockEnd
  0
BLOCK
  5
9F
330
9E
100
AcDbEntity
  8
0
100
AcDbBlockBegin
  2
*D7
 70
    1
 10
0
 20
0
  3
*D7
  1

  0
LINE
  5
113
100
AcDbEntity
  8
0
  6
ByBlock
 62
    0
370
   -2
100
AcDbLine
 10
0.4038059222874417
 20
15.40380592228744
 11
9.596194077712557
 21
24.59619407771256
  0
SOLID
  5
114
100
AcDbEntity
  8
0
  6
ByBlock
 62
    0
370
   -2
100
AcDbTrace
 10
3.939339828220179
 20
18.93933982822018
 30
0
 11
2.465930579668908
 21
16.87721517083871
 31
0
 12
1.877215170838714
 22
17.4659305796689
 32
0
 13
1.877215170838714
 23
17.4659305796689
 33
0
  0
SOLID
  5
115
100
AcDbEntity
  8
0
  6
ByBlock
 62
    0
370
   -2
100
AcDbTrace
 10
6.060660171779821
 20
21.06066017177982
 30
0
 11
7.534069420331093
 21
23.12278482916129
 31
0
 12
8.122784829161287
 22
22.5340694203311
 32
0
 13
8.122784829161287
 23
22.5340694203311
 33
0
  0
MTEXT
  5
116
100
AcDbEntity
  8
0
  6
CONTINUOUS
 62
    0
370
   -2
100
AcDbMText
 10
8.614101326064629
 20
26.26575175551419
 30
0
 40
2.5
 41
9.722222222222378
 71
    5
 72
    1
  1
3.0000
  7
standard
210
0
220
0
230
1
 50
45.00000000000002
 73
    2
 44
1
  0
ENDBLK
  5
A0
330
9E
100
AcDbEntity
  8
0
100
AcDbBlockEnd
  0
BLOCK
  5
A2
330
A1
100
AcDbEntity
  8
0
100
AcDbBlockBegin
  2
*D24
 70
    1
 10
0
 20
0
  3
*D24
  1

  0
LINE
  5
117
100
AcDbEntity
  8
0
  6
ByBlock
 62
    0
370
   -2
100
AcDbLine
 10
99.59619407771254
 20
-154.5961940777126
 11
90.40380592228745
 21
-145.4038059222874
  0
SOLID
  5
118
100
AcDbEntity
  8
0
  6
ByBlock
 62
    0
370
   -2
100
AcDbTrace
 10
96.06066017177982
 20
-151.0606601717798
 30
0
 11
98.12278482916128
 21
-152.5340694203311
 31
0
 12
97.53406942033108
 22
-153.1227848291613
 32
0
 13
97.53406942033108
 23
-153.1227848291613
 33
0
  0
SOLID
  5
119
100
AcDbEntity
  8
0
  6
ByBlock
 62
    0
370
   -2
100
AcDbTrace
 10
93.93933982822017
 20
-148.9393398282202
 30
0
 11
91.87721517083871
 21
-147.4659305796689
 31
0
 12
92.46593057966891
 22
-146.8772151708387
 32
0
 13
92.46593057966891
 23
-146.8772151708387
 33
0
  0
MTEXT
  5
11A
100
AcDbEntity
  8
0
  6
CONTINUOUS
 62
    0
370
   -2
100
AcDbMText
 10
98.61410132606461
 20
-156.2657517555142
 30
0
 40
2.5
 41
9.722222222222378
 71
    5
 72
    1
  1
3.0000
  7
standard
210
0
220
0
230
1
 50
314.9999999999998
 73
    2
 44
1
  0
ENDBLK
  5
A3
330
A1
100
AcDbEntity
  8
0
100
AcDbBlockEnd
  0
BLOCK
  5
A5
330
A4
100
AcDbEntity
  8
0
100
AcDbBlockBegin
  2
*D11
 70
    1
 10
0
 20
0
  3
*D11
  1

  0
LINE
  5
11B
100
AcDbEntity
  8
0
  6
ByBlock
 62
    0
370
   -2
100
AcDbLine
 10
99.94974746830583
 20
-39.94974746830583
 11
90.05025253169417
 21
-30.05025253169417
  0
SOLID
  5
11C
100
AcDbEntity
  8
0
  6
ByBlock
 62
    0
370
   -2
100
AcDbTrace
 10
96.41421356237309
 20
-36.41421356237309
 30
0
 11
98.47633821975455
 21
-37.88762281092436
 31
0
 12
97.88762281092437
 22
-38.47633821975456
 32
0
 13
97.88762281092437
 23
-38.47633821975456
 33
0
  0
SOLID
  5
11D
100
AcDbEntity
  8
0
  6
ByBlock
 62
    0
370
   -2
100
AcDbTrace
 10
93.58578643762691
 20
-33.58578643762691
 30
0
 11
91.52366178024545
 21
-32.11237718907564
 31
0
 12
92.11237718907563
 22
-31.52366178024544
 32
0
 13
92.11237718907563
 23
-31.52366178024544
 33
0
  0
MTEXT
  5
11E
100
AcDbEntity
  8
0
  6
CONTINUOUS
 62
    0
370
   -2
100
AcDbMText
 10
101.7175144212722
 20
-39.06586399182265
 30
0
 40
2.5
 41
10
 71
    5
 72
    1
  1
4.0000
  7
standard
210
0
220
0
230
1
 50
315
 73
    2
 44
1
  0
ENDBLK
  5
A6
330
A4
100
AcDbEntity
  8
0
100
AcDbBlockEnd
  0
ENDSEC
  0
SECTION
  2
ENTITIES
  0
LWPOLYLINE
  5
11F
100
AcDbEntity
  8
0
  6
DASHED
 62
    1
370
   -1
100
AcDbPolyline
 90
    4
 70
    1
 43
0
 10
0
 20
-225
 10
100
 20
-225
 10
100
 20
75
 10
0
 20
75
  0
CIRCLE
  5
120
100
AcDbEntity
  8
0
  6
CONTINUOUS
 62
    7
370
   -1
100
AcDbCircle
 10
50
 20
0
 40
1.5
  0
CIRCLE
  5
121
100
AcDbEntity
  8
0
  6
CONTINUOUS
 62
    7
370
   -1
100
AcDbCircle
 10
5
 20
0
 40
1.5
  0
CIRCLE
  5
122
100
AcDbEntity
  8
0
  6
DASHED
 62
    7
370
   -1
100
AcDbCircle
 10
65
 20
30
 40
1.5
  0
LINE
  5
123
100
AcDbEntity
  8
0
  6
CONTINUOUS
 62
    7
370
   -1
100
AcDbLine
 10
70
 20
30
 11
60
 21
30
  0
LINE
  5
124
100
AcDbEntity
  8
0
  6
CONTINUOUS
 62
    7
370
   -1
100
AcDbLine
 10
65
 20
25
 11
65
 21
35
  0
CIRCLE
  5
125
100
AcDbEntity
  8
0
  6
CONTINUOUS
 62
    7
370
   -1
100
AcDbCircle
 10
65
 20
30
 40
1.5
  0
LWPOLYLINE
  5
126
100
AcDbEntity
  8
0
  6
CONTINUOUS
 62
  142
370
   -1
100
AcDbPolyline
 90
    6
 70
    1
 43
0
 10
0
 20
0
 10
0
 20
30
 10
55
 20
75
 10
85
 20
75
 10
100
 20
65
 10
100
 20
0
  0
CIRCLE
  5
127
100
AcDbEntity
  8
0
  6
CONTINUOUS
 62
  142
370
   -1
100
AcDbCircle
 10
97
 20
55
 40
3
  0
LINE
  5
128
100
AcDbEntity
  8
0
  6
CONTINUOUS
 62
  142
370
   -1
100
AcDbLine
 10
102
 20
55
 11
92
 21
55
  0
LINE
  5
129
100
AcDbEntity
  8
0
  6
CONTINUOUS
 62
  142
370
   -1
100
AcDbLine
 10
97
 20
50
 11
97
 21
60
  0
CIRCLE
  5
12A
100
AcDbEntity
  8
0
  6
CONTINUOUS
 62
  142
370
   -1
100
AcDbCircle
 10
97
 20
55
 40
1.5
  0
LINE
  5
12B
100
AcDbEntity
  8
0
  6
CONTINUOUS
 62
  142
370
   -1
100
AcDbLine
 10
55
 20
0
 11
45
 21
0
  0
LINE
  5
12C
100
AcDbEntity
  8
0
  6
CONTINUOUS
 62
  142
370
   -1
100
AcDbLine
 10
50
 20
-5
 11
50
 21
5
  0
CIRCLE
  5
12D
100
AcDbEntity
  8
0
  6
CONTINUOUS
 62
  142
370
   -1
100
AcDbCircle
 10
50
 20
0
 40
1.5
  0
LINE
  5
12E
100
AcDbEntity
  8
0
  6
CONTINUOUS
 62
  142
370
   -1
100
AcDbLine
 10
10
 20
0
 11
0
 21
0
  0
LINE
  5
12F
100
AcDbEntity
  8
0
  6
CONTINUOUS
 62
  142
370
   -1
100
AcDbLine
 10
5
 20
-5
 11
5
 21
5
  0
CIRCLE
  5
130
100
AcDbEntity
  8
0
  6
CONTINUOUS
 62
  142
370
   -1
100
AcDbCircle
 10
5
 20
0
 40
1.5
  0
CIRCLE
  5
131
100
AcDbEntity
  8
0
  6
CONTINUOUS
 62
  142
370
   -1
100
AcDbCircle
 10
95
 20
0
 40
3
  0
CIRCLE
  5
132
100
AcDbEntity
  8
0
  6
CONTINUOUS
 62
  142
370
   -1
100
AcDbCircle
 10
95
 20
25
 40
3
  0
LINE
  5
133
100
AcDbEntity
  8
0
  6
CONTINUOUS
 62
  142
370
   -1
100
AcDbLine
 10
100
 20
25
 11
90
 21
25
  0
LINE
  5
134
100
AcDbEntity
  8
0
  6
CONTINUOUS
 62
  142
370
   -1
100
AcDbLine
 10
95
 20
20
 11
95
 21
30
  0
CIRCLE
  5
135
100
AcDbEntity
  8
0
  6
CONTINUOUS
 62
  142
370
   -1
100
AcDbCircle
 10
95
 20
25
 40
1.5
  0
CIRCLE
  5
136
100
AcDbEntity
  8
0
  6
CONTINUOUS
 62
  142
370
   -1
100
AcDbCircle
 10
5
 20
20
 40
3
  0
LINE
  5
137
100
AcDbEntity
  8
0
  6
CONTINUOUS
 62
  142
370
   -1
100
AcDbLine
 10
10
 20
20
 11
0
 21
20
  0
LINE
  5
138
100
AcDbEntity
  8
0
  6
CONTINUOUS
 62
  142
370
   -1
100
AcDbLine
 10
5
 20
15
 11
5
 21
25
  0
CIRCLE
  5
139
100
AcDbEntity
  8
0
  6
CONTINUOUS
 62
  142
370
   -1
100
AcDbCircle
 10
5
 20
20
 40
1.5
  0
LWPOLYLINE
  5
13A
100
AcDbEntity
  8
0
  6
CONTINUOUS
 62
  142
370
   -1
100
AcDbPolyline
 90
    6
 70
    1
 43
0
 10
0
 20
0
 10
0
 20
-30
 10
55
 20
-75
 10
85
 20
-75
 10
100
 20
-65
 10
100
 20
0
  0
CIRCLE
  5
13B
100
AcDbEntity
  8
0
  6
CONTINUOUS
 62
  142
370
   -1
100
AcDbCircle
 10
97
 20
-55
 40
3
  0
LINE
  5
13C
100
AcDbEntity
  8
0
  6
CONTINUOUS
 62
  142
370
   -1
100
AcDbLine
 10
102
 20
-55
 11
92
 21
-55
  0
LINE
  5
13D
100
AcDbEntity
  8
0
  6
CONTINUOUS
 62
  142
370
   -1
100
AcDbLine
 10
97
 20
-50
 11
97
 21
-60
  0
CIRCLE
  5
13E
100
AcDbEntity
  8
0
  6
CONTINUOUS
 62
  142
370
   -1
100
AcDbCircle
 10
97
 20
-55
 40
1.5
  0
LINE
  5
13F
100
AcDbEntity
  8
0
  6
CONTINUOUS
 62
  142
370
   -1
100
AcDbLine
 10
55
 20
0
 11
45
 21
0
  0
LINE
  5
140
100
AcDbEntity
  8
0
  6
CONTINUOUS
 62
  142
370
   -1
100
AcDbLine
 10
50
 20
5
 11
50
 21
-5
  0
CIRCLE
  5
141
100
AcDbEntity
  8
0
  6
CONTINUOUS
 62
  142
370
   -1
100
AcDbCircle
 10
50
 20
0
 40
1.5
  0
LINE
  5
142
100
AcDbEntity
  8
0
  6
CONTINUOUS
 62
  142
370
   -1
100
AcDbLine
 10
10
 20
0
 11
0
 21
0
  0
LINE
  5
143
100
AcDbEntity
  8
0
  6
CONTINUOUS
 62
  142
370
   -1
100
AcDbLine
 10
5
 20
5
 11
5
 21
-5
  0
CIRCLE
  5
144
100
AcDbEntity
  8
0
  6
CONTINUOUS
 62
  142
370
   -1
100
AcDbCircle
 10
5
 20
0
 40
1.5
  0
CIRCLE
  5
145
100
AcDbEntity
  8
0
  6
CONTINUOUS
 62
  142
370
   -1
100
AcDbCircle
 10
95
 20
-25
 40
3
  0
LINE
  5
146
100
AcDbEntity
  8
0
  6
CONTINUOUS
 62
  142
370
   -1
100
AcDbLine
 10
100
 20
-25
 11
90
 21
-25
  0
LINE
  5
147
100
AcDbEntity
  8
0
  6
CONTINUOUS
 62
  142
370
   -1
100
AcDbLine
 10
95
 20
-20
 11
95
 21
-30
  0
CIRCLE
  5
148
100
AcDbEntity
  8
0
  6
CONTINUOUS
 62
  142
370
   -1
100
AcDbCircle
 10
95
 20
-25
 40
1.5
  0
CIRCLE
  5
149
100
AcDbEntity
  8
0
  6
CONTINUOUS
 62
  142
370
   -1
100
AcDbCircle
 10
5
 20
-20
 40
3
  0
LINE
  5
14A
100
AcDbEntity
  8
0
  6
CONTINUOUS
 62
  142
370
   -1
100
AcDbLine
 10
10
 20
-20
 11
0
 21
-20
  0
LINE
  5
14B
100
AcDbEntity
  8
0
  6
CONTINUOUS
 62
  142
370
   -1
100
AcDbLine
 10
5
 20
-15
 11
5
 21
-25
  0
CIRCLE
  5
14C
100
AcDbEntity
  8
0
  6
CONTINUOUS
 62
  142
370
   -1
100
AcDbCircle
 10
5
 20
-20
 40
1.5
  0
LINE
  5
14D
100
AcDbEntity
  8
0
  6
CONTINUOUS
 62
  142
370
   -1
100
AcDbLine
 10
100
 20
0
 11
90
 21
0
  0
LINE
  5
14E
100
AcDbEntity
  8
0
  6
CONTINUOUS
 62
  142
370
   -1
100
AcDbLine
 10
95
 20
-5
 11
95
 21
5
  0
CIRCLE
  5
14F
100
AcDbEntity
  8
0
  6
CONTINUOUS
 62
  142
370
   -1
100
AcDbCircle
 10
95
 20
0
 40
1.5
  0
LINE
  5
150
100
AcDbEntity
  8
0
  6
DASHED
 62
    1
370
   -1
100
AcDbLine
 10
100
 20
-115
 11
0
 21
-35
  0
CIRCLE
  5
151
100
AcDbEntity
  8
0
  6
CONTINUOUS
 62
    7
370
   -1
100
AcDbCircle
 10
65
 20
30
 40
1.5
  0
CIRCLE
  5
152
100
AcDbEntity
  8
0
  6
CONTINUOUS
 62
    7
370
   -1
100
AcDbCircle
 10
65
 20
-30
 40
1.5
  0
CIRCLE
  5
153
100
AcDbEntity
  8
0
  6
CONTINUOUS
 62
  112
370
   -1
100
AcDbCircle
 10
10
 20
15
 40
3.5
  0
LINE
  5
154
100
AcDbEntity
  8
0
  6
CONTINUOUS
 62
  112
370
   -1
100
AcDbLine
 10
15
 20
15
 11
5
 21
15
  0
LINE
  5
155
100
AcDbEntity
  8
0
  6
CONTINUOUS
 62
  112
370
   -1
100
AcDbLine
 10
10
 20
10
 11
10
 21
20
  0
CIRCLE
  5
156
100
AcDbEntity
  8
0
  6
CONTINUOUS
 62
  112
370
   -1
100
AcDbCircle
 10
10
 20
15
 40
2
  0
CIRCLE
  5
157
100
AcDbEntity
  8
0
  6
CONTINUOUS
 62
  112
370
   -1
100
AcDbCircle
 10
10
 20
-15
 40
3.5
  0
LINE
  5
158
100
AcDbEntity
  8
0
  6
CONTINUOUS
 62
  112
370
   -1
100
AcDbLine
 10
15
 20
-15
 11
5
 21
-15
  0
LINE
  5
159
100
AcDbEntity
  8
0
  6
CONTINUOUS
 62
  112
370
   -1
100
AcDbLine
 10
10
 20
-20
 11
10
 21
-10
  0
CIRCLE
  5
15A
100
AcDbEntity
  8
0
  6
CONTINUOUS
 62
  112
370
   -1
100
AcDbCircle
 10
10
 20
-15
 40
2
  0
CIRCLE
  5
15B
100
AcDbEntity
  8
0
  6
CONTINUOUS
 62
  112
370
   -1
100
AcDbCircle
 10
95
 20
35
 40
3.5
  0
LINE
  5
15C
100
AcDbEntity
  8
0
  6
CONTINUOUS
 62
  112
370
   -1
100
AcDbLine
 10
100
 20
35
 11
90
 21
35
  0
LINE
  5
15D
100
AcDbEntity
  8
0
  6
CONTINUOUS
 62
  112
370
   -1
100
AcDbLine
 10
95
 20
30
 11
95
 21
40
  0
CIRCLE
  5
15E
100
AcDbEntity
  8
0
  6
CONTINUOUS
 62
  112
370
   -1
100
AcDbCircle
 10
95
 20
35
 40
2
  0
CIRCLE
  5
15F
100
AcDbEntity
  8
0
  6
CONTINUOUS
 62
  112
370
   -1
100
AcDbCircle
 10
95
 20
-35
 40
3.5
  0
LINE
  5
160
100
AcDbEntity
  8
0
  6
CONTINUOUS
 62
  112
370
   -1
100
AcDbLine
 10
100
 20
-35
 11
90
 21
-35
  0
LINE
  5
161
100
AcDbEntity
  8
0
  6
CONTINUOUS
 62
  112
370
   -1
100
AcDbLine
 10
95
 20
-40
 11
95
 21
-30
  0
CIRCLE
  5
162
100
AcDbEntity
  8
0
  6
CONTINUOUS
 62
  112
370
   -1
100
AcDbCircle
 10
95
 20
-35
 40
2
  0
CIRCLE
  5
163
100
AcDbEntity
  8
0
  6
CONTINUOUS
 62
  142
370
   -1
100
AcDbCircle
 10
65
 20
30
 40
3
  0
LINE
  5
164
100
AcDbEntity
  8
0
  6
CONTINUOUS
 62
  142
370
   -1
100
AcDbLine
 10
70
 20
30
 11
60
 21
30
  0
LINE
  5
165
100
AcDbEntity
  8
0
  6
CONTINUOUS
 62
  142
370
   -1
100
AcDbLine
 10
65
 20
25
 11
65
 21
35
  0
CIRCLE
  5
166
100
AcDbEntity
  8
0
  6
CONTINUOUS
 62
  142
370
   -1
100
AcDbCircle
 10
65
 20
30
 40
1.5
  0
CIRCLE
  5
167
100
AcDbEntity
  8
0
  6
CONTINUOUS
 62
  142
370
   -1
100
AcDbCircle
 10
65
 20
-30
 40
3
  0
LINE
  5
168
100
AcDbEntity
  8
0
  6
CONTINUOUS
 62
  142
370
   -1
100
AcDbLine
 10
70
 20
-30
 11
60
 21
-30
  0
LINE
  5
169
100
AcDbEntity
  8
0
  6
CONTINUOUS
 62
  142
370
   -1
100
AcDbLine
 10
65
 20
-35
 11
65
 21
-25
  0
CIRCLE
  5
16A
100
AcDbEntity
  8
0
  6
CONTINUOUS
 62
  142
370
   -1
100
AcDbCircle
 10
65
 20
-30
 40
1.5
  0
CIRCLE
  5
16B
100
AcDbEntity
  8
0
  6
CONTINUOUS
 62
  142
370
   -1
100
AcDbCircle
 10
5
 20
0
 40
3
  0
LINE
  5
16C
100
AcDbEntity
  8
0
  6
CONTINUOUS
 62
  142
370
   -1
100
AcDbLine
 10
10
 20
0
 11
0
 21
0
  0
LINE
  5
16D
100
AcDbEntity
  8
0
  6
CONTINUOUS
 62
  142
370
   -1
100
AcDbLine
 10
5
 20
-5
 11
5
 21
5
  0
CIRCLE
  5
16E
100
AcDbEntity
  8
0
  6
CONTINUOUS
 62
  142
370
   -1
100
AcDbCircle
 10
5
 20
0
 40
1.5
  0
CIRCLE
  5
16F
100
AcDbEntity
  8
0
  6
CONTINUOUS
 62
  142
370
   -1
100
AcDbCircle
 10
50
 20
0
 40
3
  0
LINE
  5
170
100
AcDbEntity
  8
0
  6
CONTINUOUS
 62
  142
370
   -1
100
AcDbLine
 10
55
 20
0
 11
45
 21
0
  0
LINE
  5
171
100
AcDbEntity
  8
0
  6
CONTINUOUS
 62
  142
370
   -1
100
AcDbLine
 10
50
 20
-5
 11
50
 21
5
  0
CIRCLE
  5
172
100
AcDbEntity
  8
0
  6
CONTINUOUS
 62
  142
370
   -1
100
AcDbCircle
 10
50
 20
0
 40
1.5
  0
DIMENSION
  5
173
100
AcDbEntity
  8
0
  6
ByLayer
 62
  256
370
   -1
100
AcDbDimension
  2
*D1
 10
66.17130321416454
 20
29.06295742866836
 30
0
 11
66.17130321416455
 21
31.46412901770568
 31
0
 70
   35
 71
    5
  3
Standard
 53
0
210
0
220
0
230
1
100
AcDbDiametricDimension
 15
63.82869678583545
 25
30.93704257133164
 35
0
 40
0
  0
DIMENSION
  5
174
100
AcDbEntity
  8
0
  6
ByLayer
 62
  256
370
   -1
100
AcDbDimension
  2
*D2
 10
96.41421356237309
 20
33.58578643762691
 30
0
 11
96.32582521472477
 21
36.32582521472477
 31
0
 70
   35
 71
    5
  3
Standard
 53
0
210
0
220
0
230
1
100
AcDbDiametricDimension
 15
93.58578643762691
 25
36.41421356237309
 35
0
 40
0
  0
DIMENSION
  5
175
100
AcDbEntity
  8
0
  6
ByLayer
 62
  256
370
   -1
100
AcDbDimension
  2
*D3
 10
96.06066017177982
 20
23.93933982822018
 30
0
 11
96.32582521472479
 21
26.32582521472477
 31
0
 70
   35
 71
    5
  3
Standard
 53
0
210
0
220
0
230
1
100
AcDbDiametricDimension
 15
93.93933982822018
 25
26.06066017177982
 35
0
 40
0
  0
DIMENSION
  5
176
100
AcDbEntity
  8
0
  6
ByLayer
 62
  256
370
   -1
100
AcDbDimension
  2
*D4
 10
96.06066017177982
 20
-1.060660171779821
 30
0
 11
96.32582521472479
 21
1.325825214724772
 31
0
 70
   35
 71
    5
  3
Standard
 53
0
210
0
220
0
230
1
100
AcDbDiametricDimension
 15
93.93933982822018
 25
1.060660171779821
 35
0
 40
0
  0
DIMENSION
  5
177
100
AcDbEntity
  8
0
  6
ByLayer
 62
  256
370
   -1
100
AcDbDimension
  2
*D5
 10
51.06066017177982
 20
-1.060660171779821
 30
0
 11
51.32582521472477
 21
1.325825214724777
 31
0
 70
   35
 71
    5
  3
Standard
 53
0
210
0
220
0
230
1
100
AcDbDiametricDimension
 15
48.93933982822018
 25
1.060660171779821
 35
0
 40
0
  0
DIMENSION
  5
178
100
AcDbEntity
  8
0
  6
ByLayer
 62
  256
370
   -1
100
AcDbDimension
  2
*D6
 10
8.585786437626904
 20
13.5857864376269
 30
0
 11
8.674174785275223
 21
16.32582521472478
 31
0
 70
   35
 71
    5
  3
Standard
 53
0
210
0
220
0
230
1
100
AcDbDiametricDimension
 15
11.4142135623731
 25
16.4142135623731
 35
0
 40
0
  0
DIMENSION
  5
179
100
AcDbEntity
  8
0
  6
ByLayer
 62
  256
370
   -1
100
AcDbDimension
  2
*D7
 10
3.939339828220179
 20
18.93933982822018
 30
0
 11
3.674174785275222
 21
21.32582521472478
 31
0
 70
   35
 71
    5
  3
Standard
 53
0
210
0
220
0
230
1
100
AcDbDiametricDimension
 15
6.060660171779821
 25
21.06066017177982
 35
0
 40
0
  0
DIMENSION
  5
17A
100
AcDbEntity
  8
0
  6
ByLayer
 62
  256
370
   -1
100
AcDbDimension
  2
*D8
 10
95.93933982822018
 20
56.06066017177982
 30
0
 11
98.32582521472479
 21
56.32582521472477
 31
0
 70
   35
 71
    5
  3
Standard
 53
0
210
0
220
0
230
1
100
AcDbDiametricDimension
 15
98.06066017177982
 25
53.93933982822018
 35
0
 40
0
  0
DIMENSION
  5
17B
100
AcDbEntity
  8
0
  6
ByLayer
 62
  256
370
   -1
100
AcDbDimension
  2
*D9
 10
3.93933982822018
 20
1.060660171779823
 30
0
 11
6.325825214724779
 21
1.325825214724776
 31
0
 70
   35
 71
    5
  3
Standard
 53
0
210
0
220
0
230
1
100
AcDbDiametricDimension
 15
6.060660171779821
 25
-1.060660171779821
 35
0
 40
0
  0
DIMENSION
  5
17C
100
AcDbEntity
  8
0
  6
ByLayer
 62
  256
370
   -1
100
AcDbDimension
  2
*D10
 10
96.06066017177982
 20
-26.06066017177982
 30
0
 11
96.32582521472479
 21
-23.67417478527523
 31
0
 70
   35
 71
    5
  3
Standard
 53
0
210
0
220
0
230
1
100
AcDbDiametricDimension
 15
93.93933982822018
 25
-23.93933982822018
 35
0
 40
0
  0
DIMENSION
  5
17D
100
AcDbEntity
  8
0
  6
ByLayer
 62
  256
370
   -1
100
AcDbDimension
  2
*D11
 10
96.41421356237309
 20
-36.41421356237309
 30
0
 11
96.32582521472477
 21
-33.67417478527523
 31
0
 70
   35
 71
    5
  3
Standard
 53
0
210
0
220
0
230
1
100
AcDbDiametricDimension
 15
93.58578643762691
 25
-33.58578643762691
 35
0
 40
0
  0
DIMENSION
  5
17E
100
AcDbEntity
  8
0
  6
ByLayer
 62
  256
370
   -1
100
AcDbDimension
  2
*D12
 10
98.15233191939606
 20
-55.96027659949672
 30
0
 11
98.2003457493709
 21
-53.55958510075492
 31
0
 70
   35
 71
    5
  3
Standard
 53
0
210
0
220
0
230
1
100
AcDbDiametricDimension
 15
95.84766808060394
 25
-54.03972340050328
 35
0
 40
0
  0
DIMENSION
  5
17F
100
AcDbEntity
  8
0
  6
ByLayer
 62
  256
370
   -1
100
AcDbDimension
  2
*D13
 10
66.06066017177982
 20
-31.06066017177982
 30
0
 11
66.32582521472477
 21
-28.67417478527523
 31
0
 70
   35
 71
    5
  3
Standard
 53
0
210
0
220
0
230
1
100
AcDbDiametricDimension
 15
63.93933982822018
 25
-28.93933982822018
 35
0
 40
0
  0
DIMENSION
  5
180
100
AcDbEntity
  8
0
  6
ByLayer
 62
  256
370
   -1
100
AcDbDimension
  2
*D14
 10
8.585786437626906
 20
-13.5857864376269
 30
0
 11
11.32582521472478
 21
-13.67417478527523
 31
0
 70
   35
 71
    5
  3
Standard
 53
0
210
0
220
0
230
1
100
AcDbDiametricDimension
 15
11.41421356237309
 25
-16.4142135623731
 35
0
 40
0
  0
DIMENSION
  5
181
100
AcDbEntity
  8
0
  6
ByLayer
 62
  256
370
   -1
100
AcDbDimension
  2
*D15
 10
3.93933982822018
 20
-18.93933982822018
 30
0
 11
6.325825214724778
 21
-18.67417478527522
 31
0
 70
   35
 71
    5
  3
Standard
 53
0
210
0
220
0
230
1
100
AcDbDiametricDimension
 15
6.060660171779821
 25
-21.06066017177982
 35
0
 40
0
  0
MTEXT
  5
182
100
AcDbEntity
  8
0
  6
ByLayer
 62
  256
370
   -1
100
AcDbMText
 10
0
 20
90
 30
0
 40
5
 41
99.02777722222471
 71
    1
 72
    1
  1
Carbon fiber board (2-2.5mm)
  7

210
0
220
0
230
1
 50
0
 73
    2
 44
1
  0
CIRCLE
  5
183
100
AcDbEntity
  8
0
  6
CONTINUOUS
 62
    7
370
   -1
100
AcDbCircle
 10
49.99999999999999
 20
-150
 40
1.5
  0
CIRCLE
  5
184
100
AcDbEntity
  8
0
  6
CONTINUOUS
 62
    7
370
   -1
100
AcDbCircle
 10
95
 20
-150
 40
1.5
  0
CIRCLE
  5
185
100
AcDbEntity
  8
0
  6
DASHED
 62
    7
370
   -1
100
AcDbCircle
 10
34.99999999999999
 20
-180
 40
1.5
  0
LINE
  5
186
100
AcDbEntity
  8
0
  6
CONTINUOUS
 62
    7
370
   -1
100
AcDbLine
 10
29.99999999999999
 20
-180
 11
39.99999999999999
 21
-180
  0
LINE
  5
187
100
AcDbEntity
  8
0
  6
CONTINUOUS
 62
    7
370
   -1
100
AcDbLine
 10
34.99999999999999
 20
-175
 11
34.99999999999999
 21
-185
  0
CIRCLE
  5
188
100
AcDbEntity
  8
0
  6
CONTINUOUS
 62
    7
370
   -1
100
AcDbCircle
 10
34.99999999999999
 20
-180
 40
1.5
  0
LWPOLYLINE
  5
189
100
AcDbEntity
  8
0
  6
CONTINUOUS
 62
  142
370
   -1
100
AcDbPolyline
 90
    6
 70
    1
 43
0
 10
99.99999999999999
 20
-150
 10
99.99999999999999
 20
-180
 10
44.99999999999998
 20
-225
 10
14.99999999999998
 20
-225
 10
-1.714600683655476e-014
 20
-215
 10
-9.183626081821217e-015
 20
-150
  0
CIRCLE
  5
18A
100
AcDbEntity
  8
0
  6
CONTINUOUS
 62
  142
370
   -1
100
AcDbCircle
 10
2.999999999999986
 20
-205
 40
3
  0
LINE
  5
18B
100
AcDbEntity
  8
0
  6
CONTINUOUS
 62
  142
370
   -1
100
AcDbLine
 10
-2.000000000000016
 20
-205
 11
7.999999999999984
 21
-205
  0
LINE
  5
18C
100
AcDbEntity
  8
0
  6
CONTINUOUS
 62
  142
370
   -1
100
AcDbLine
 10
2.999999999999985
 20
-200
 11
2.999999999999984
 21
-210
  0
CIRCLE
  5
18D
100
AcDbEntity
  8
0
  6
CONTINUOUS
 62
  142
370
   -1
100
AcDbCircle
 10
2.999999999999986
 20
-205
 40
1.5
  0
LINE
  5
18E
100
AcDbEntity
  8
0
  6
CONTINUOUS
 62
  142
370
   -1
100
AcDbLine
 10
44.99999999999999
 20
-150
 11
54.99999999999999
 21
-150
  0
LINE
  5
18F
100
AcDbEntity
  8
0
  6
CONTINUOUS
 62
  142
370
   -1
100
AcDbLine
 10
49.99999999999999
 20
-145
 11
49.99999999999999
 21
-155
  0
CIRCLE
  5
190
100
AcDbEntity
  8
0
  6
CONTINUOUS
 62
  142
370
   -1
100
AcDbCircle
 10
49.99999999999999
 20
-150
 40
1.5
  0
LINE
  5
191
100
AcDbEntity
  8
0
  6
CONTINUOUS
 62
  142
370
   -1
100
AcDbLine
 10
89.99999999999999
 20
-150
 11
99.99999999999999
 21
-150
  0
LINE
  5
192
100
AcDbEntity
  8
0
  6
CONTINUOUS
 62
  142
370
   -1
100
AcDbLine
 10
94.99999999999999
 20
-145
 11
94.99999999999999
 21
-155
  0
CIRCLE
  5
193
100
AcDbEntity
  8
0
  6
CONTINUOUS
 62
  142
370
   -1
100
AcDbCircle
 10
95
 20
-150
 40
1.5
  0
CIRCLE
  5
194
100
AcDbEntity
  8
0
  6
CONTINUOUS
 62
  142
370
   -1
100
AcDbCircle
 10
4.999999999999993
 20
-150
 40
3
  0
CIRCLE
  5
195
100
AcDbEntity
  8
0
  6
CONTINUOUS
 62
  142
370
   -1
100
AcDbCircle
 10
4.999999999999986
 20
-175
 40
3
  0
LINE
  5
196
100
AcDbEntity
  8
0
  6
CONTINUOUS
 62
  142
370
   -1
100
AcDbLine
 10
-1.224714774039626e-014
 20
-175
 11
9.999999999999988
 21
-175
  0
LINE
  5
197
100
AcDbEntity
  8
0
  6
CONTINUOUS
 62
  142
370
   -1
100
AcDbLine
 10
4.999999999999988
 20
-170
 11
4.999999999999988
 21
-180
  0
CIRCLE
  5
198
100
AcDbEntity
  8
0
  6
CONTINUOUS
 62
  142
370
   -1
100
AcDbCircle
 10
4.999999999999986
 20
-175
 40
1.5
  0
CIRCLE
  5
199
100
AcDbEntity
  8
0
  6
CONTINUOUS
 62
  142
370
   -1
100
AcDbCircle
 10
94.99999999999999
 20
-170
 40
3
  0
LINE
  5
19A
100
AcDbEntity
  8
0
  6
CONTINUOUS
 62
  142
370
   -1
100
AcDbLine
 10
89.99999999999999
 20
-170
 11
99.99999999999999
 21
-170
  0
LINE
  5
19B
100
AcDbEntity
  8
0
  6
CONTINUOUS
 62
  142
370
   -1
100
AcDbLine
 10
94.99999999999999
 20
-165
 11
94.99999999999999
 21
-175
  0
CIRCLE
  5
19C
100
AcDbEntity
  8
0
  6
CONTINUOUS
 62
  142
370
   -1
100
AcDbCircle
 10
94.99999999999999
 20
-170
 40
1.5
  0
LWPOLYLINE
  5
19D
100
AcDbEntity
  8
0
  6
CONTINUOUS
 62
  142
370
   -1
100
AcDbPolyline
 90
    6
 70
    1
 43
0
 10
99.99999999999999
 20
-150
 10
100
 20
-120
 10
45
 20
-75
 10
15
 20
-75
 10
-1.224714774039626e-015
 20
-85
 10
-9.183626081821217e-015
 20
-150
  0
CIRCLE
  5
19E
100
AcDbEntity
  8
0
  6
CONTINUOUS
 62
  142
370
   -1
100
AcDbCircle
 10
3
 20
-95
 40
3
  0
LINE
  5
19F
100
AcDbEntity
  8
0
  6
CONTINUOUS
 62
  142
370
   -1
100
AcDbLine
 10
-2.000000000000003
 20
-95
 11
7.999999999999997
 21
-95
  0
LINE
  5
1A0
100
AcDbEntity
  8
0
  6
CONTINUOUS
 62
  142
370
   -1
100
AcDbLine
 10
2.999999999999997
 20
-100
 11
2.999999999999998
 21
-90
  0
CIRCLE
  5
1A1
100
AcDbEntity
  8
0
  6
CONTINUOUS
 62
  142
370
   -1
100
AcDbCircle
 10
3
 20
-95
 40
1.5
  0
LINE
  5
1A2
100
AcDbEntity
  8
0
  6
CONTINUOUS
 62
  142
370
   -1
100
AcDbLine
 10
44.99999999999999
 20
-150
 11
54.99999999999999
 21
-150
  0
LINE
  5
1A3
100
AcDbEntity
  8
0
  6
CONTINUOUS
 62
  142
370
   -1
100
AcDbLine
 10
49.99999999999999
 20
-155
 11
49.99999999999999
 21
-145
  0
CIRCLE
  5
1A4
100
AcDbEntity
  8
0
  6
CONTINUOUS
 62
  142
370
   -1
100
AcDbCircle
 10
49.99999999999999
 20
-150
 40
1.5
  0
LINE
  5
1A5
100
AcDbEntity
  8
0
  6
CONTINUOUS
 62
  142
370
   -1
100
AcDbLine
 10
89.99999999999999
 20
-150
 11
99.99999999999999
 21
-150
  0
LINE
  5
1A6
100
AcDbEntity
  8
0
  6
CONTINUOUS
 62
  142
370
   -1
100
AcDbLine
 10
94.99999999999999
 20
-155
 11
94.99999999999999
 21
-145
  0
CIRCLE
  5
1A7
100
AcDbEntity
  8
0
  6
CONTINUOUS
 62
  142
370
   -1
100
AcDbCircle
 10
95
 20
-150
 40
1.5
  0
CIRCLE
  5
1A8
100
AcDbEntity
  8
0
  6
CONTINUOUS
 62
  142
370
   -1
100
AcDbCircle
 10
4.999999999999993
 20
-125
 40
3
  0
LINE
  5
1A9
100
AcDbEntity
  8
0
  6
CONTINUOUS
 62
  142
370
   -1
100
AcDbLine
 10
-6.123573870198129e-015
 20
-125
 11
9.999999999999995
 21
-125
  0
LINE
  5
1AA
100
AcDbEntity
  8
0
  6
CONTINUOUS
 62
  142
370
   -1
100
AcDbLine
 10
4.999999999999993
 20
-130
 11
4.999999999999995
 21
-120
  0
CIRCLE
  5
1AB
100
AcDbEntity
  8
0
  6
CONTINUOUS
 62
  142
370
   -1
100
AcDbCircle
 10
4.999999999999993
 20
-125
 40
1.5
  0
CIRCLE
  5
1AC
100
AcDbEntity
  8
0
  6
CONTINUOUS
 62
  142
370
   -1
100
AcDbCircle
 10
95
 20
-130
 40
3
  0
LINE
  5
1AD
100
AcDbEntity
  8
0
  6
CONTINUOUS
 62
  142
370
   -1
100
AcDbLine
 10
90
 20
-130
 11
100
 21
-130
  0
LINE
  5
1AE
100
AcDbEntity
  8
0
  6
CONTINUOUS
 62
  142
370
   -1
100
AcDbLine
 10
94.99999999999999
 20
-135
 11
95
 21
-125
  0
CIRCLE
  5
1AF
100
AcDbEntity
  8
0
  6
CONTINUOUS
 62
  142
370
   -1
100
AcDbCircle
 10
95
 20
-130
 40
1.5
  0
LINE
  5
1B0
100
AcDbEntity
  8
0
  6
CONTINUOUS
 62
  142
370
   -1
100
AcDbLine
 10
-9.183626081821217e-015
 20
-150
 11
9.999999999999991
 21
-150
  0
LINE
  5
1B1
100
AcDbEntity
  8
0
  6
CONTINUOUS
 62
  142
370
   -1
100
AcDbLine
 10
4.999999999999991
 20
-145
 11
4.99999999999999
 21
-155
  0
CIRCLE
  5
1B2
100
AcDbEntity
  8
0
  6
CONTINUOUS
 62
  142
370
   -1
100
AcDbCircle
 10
4.999999999999993
 20
-150
 40
1.5
  0
CIRCLE
  5
1B3
100
AcDbEntity
  8
0
  6
CONTINUOUS
 62
    7
370
   -1
100
AcDbCircle
 10
34.99999999999999
 20
-180
 40
1.5
  0
CIRCLE
  5
1B4
100
AcDbEntity
  8
0
  6
CONTINUOUS
 62
    7
370
   -1
100
AcDbCircle
 10
34.99999999999999
 20
-120
 40
1.5
  0
CIRCLE
  5
1B5
100
AcDbEntity
  8
0
  6
CONTINUOUS
 62
  112
370
   -1
100
AcDbCircle
 10
89.99999999999999
 20
-165
 40
3.5
  0
LINE
  5
1B6
100
AcDbEntity
  8
0
  6
CONTINUOUS
 62
  112
370
   -1
100
AcDbLine
 10
84.99999999999999
 20
-165
 11
94.99999999999999
 21
-165
  0
LINE
  5
1B7
100
AcDbEntity
  8
0
  6
CONTINUOUS
 62
  112
370
   -1
100
AcDbLine
 10
89.99999999999999
 20
-160
 11
89.99999999999999
 21
-170
  0
CIRCLE
  5
1B8
100
AcDbEntity
  8
0
  6
CONTINUOUS
 62
  112
370
   -1
100
AcDbCircle
 10
89.99999999999999
 20
-165
 40
2
  0
CIRCLE
  5
1B9
100
AcDbEntity
  8
0
  6
CONTINUOUS
 62
  112
370
   -1
100
AcDbCircle
 10
90
 20
-135
 40
3.5
  0
LINE
  5
1BA
100
AcDbEntity
  8
0
  6
CONTINUOUS
 62
  112
370
   -1
100
AcDbLine
 10
84.99999999999999
 20
-135
 11
94.99999999999999
 21
-135
  0
LINE
  5
1BB
100
AcDbEntity
  8
0
  6
CONTINUOUS
 62
  112
370
   -1
100
AcDbLine
 10
90
 20
-130
 11
89.99999999999999
 21
-140
  0
CIRCLE
  5
1BC
100
AcDbEntity
  8
0
  6
CONTINUOUS
 62
  112
370
   -1
100
AcDbCircle
 10
90
 20
-135
 40
2
  0
CIRCLE
  5
1BD
100
AcDbEntity
  8
0
  6
CONTINUOUS
 62
  112
370
   -1
100
AcDbCircle
 10
4.999999999999986
 20
-185
 40
3.5
  0
LINE
  5
1BE
100
AcDbEntity
  8
0
  6
CONTINUOUS
 62
  112
370
   -1
100
AcDbLine
 10
-1.347186251443588e-014
 20
-185
 11
9.999999999999986
 21
-185
  0
LINE
  5
1BF
100
AcDbEntity
  8
0
  6
CONTINUOUS
 62
  112
370
   -1
100
AcDbLine
 10
4.999999999999988
 20
-180
 11
4.999999999999986
 21
-190
  0
CIRCLE
  5
1C0
100
AcDbEntity
  8
0
  6
CONTINUOUS
 62
  112
370
   -1
100
AcDbCircle
 10
4.999999999999986
 20
-185
 40
2
  0
CIRCLE
  5
1C1
100
AcDbEntity
  8
0
  6
CONTINUOUS
 62
  112
370
   -1
100
AcDbCircle
 10
4.999999999999993
 20
-115
 40
3.5
  0
LINE
  5
1C2
100
AcDbEntity
  8
0
  6
CONTINUOUS
 62
  112
370
   -1
100
AcDbLine
 10
-4.898859096158503e-015
 20
-115
 11
9.999999999999995
 21
-115
  0
LINE
  5
1C3
100
AcDbEntity
  8
0
  6
CONTINUOUS
 62
  112
370
   -1
100
AcDbLine
 10
4.999999999999996
 20
-110
 11
4.999999999999995
 21
-120
  0
CIRCLE
  5
1C4
100
AcDbEntity
  8
0
  6
CONTINUOUS
 62
  112
370
   -1
100
AcDbCircle
 10
4.999999999999993
 20
-115
 40
2
  0
CIRCLE
  5
1C5
100
AcDbEntity
  8
0
  6
CONTINUOUS
 62
  142
370
   -1
100
AcDbCircle
 10
34.99999999999999
 20
-180
 40
3
  0
LINE
  5
1C6
100
AcDbEntity
  8
0
  6
CONTINUOUS
 62
  142
370
   -1
100
AcDbLine
 10
29.99999999999999
 20
-180
 11
39.99999999999999
 21
-180
  0
LINE
  5
1C7
100
AcDbEntity
  8
0
  6
CONTINUOUS
 62
  142
370
   -1
100
AcDbLine
 10
34.99999999999999
 20
-175
 11
34.99999999999999
 21
-185
  0
CIRCLE
  5
1C8
100
AcDbEntity
  8
0
  6
CONTINUOUS
 62
  142
370
   -1
100
AcDbCircle
 10
34.99999999999999
 20
-180
 40
1.5
  0
CIRCLE
  5
1C9
100
AcDbEntity
  8
0
  6
CONTINUOUS
 62
  142
370
   -1
100
AcDbCircle
 10
34.99999999999999
 20
-120
 40
3
  0
LINE
  5
1CA
100
AcDbEntity
  8
0
  6
CONTINUOUS
 62
  142
370
   -1
100
AcDbLine
 10
29.99999999999999
 20
-120
 11
39.99999999999999
 21
-120
  0
LINE
  5
1CB
100
AcDbEntity
  8
0
  6
CONTINUOUS
 62
  142
370
   -1
100
AcDbLine
 10
34.99999999999999
 20
-115
 11
34.99999999999999
 21
-125
  0
CIRCLE
  5
1CC
100
AcDbEntity
  8
0
  6
CONTINUOUS
 62
  142
370
   -1
100
AcDbCircle
 10
34.99999999999999
 20
-120
 40
1.5
  0
CIRCLE
  5
1CD
100
AcDbEntity
  8
0
  6
CONTINUOUS
 62
  142
370
   -1
100
AcDbCircle
 10
95
 20
-150
 40
3
  0
LINE
  5
1CE
100
AcDbEntity
  8
0
  6
CONTINUOUS
 62
  142
370
   -1
100
AcDbLine
 10
89.99999999999999
 20
-150
 11
99.99999999999999
 21
-150
  0
LINE
  5
1CF
100
AcDbEntity
  8
0
  6
CONTINUOUS
 62
  142
370
   -1
100
AcDbLine
 10
94.99999999999999
 20
-145
 11
94.99999999999999
 21
-155
  0
CIRCLE
  5
1D0
100
AcDbEntity
  8
0
  6
CONTINUOUS
 62
  142
370
   -1
100
AcDbCircle
 10
95
 20
-150
 40
1.5
  0
CIRCLE
  5
1D1
100
AcDbEntity
  8
0
  6
CONTINUOUS
 62
  142
370
   -1
100
AcDbCircle
 10
49.99999999999999
 20
-150
 40
3
  0
LINE
  5
1D2
100
AcDbEntity
  8
0
  6
CONTINUOUS
 62
  142
370
   -1
100
AcDbLine
 10
44.99999999999999
 20
-150
 11
54.99999999999999
 21
-150
  0
LINE
  5
1D3
100
AcDbEntity
  8
0
  6
CONTINUOUS
 62
  142
370
   -1
100
AcDbLine
 10
49.99999999999999
 20
-145
 11
49.99999999999999
 21
-155
  0
CIRCLE
  5
1D4
100
AcDbEntity
  8
0
  6
CONTINUOUS
 62
  142
370
   -1
100
AcDbCircle
 10
49.99999999999999
 20
-150
 40
1.5
  0
DIMENSION
  5
1D5
100
AcDbEntity
  8
0
  6
ByLayer
 62
  256
370
   -1
100
AcDbDimension
  2
*D16
 10
33.82869678583545
 20
-179.0629574286684
 30
0
 11
33.82869678583543
 21
-181.4641290177057
 31
0
 70
   35
 71
    5
  3
Standard
 53
0
210
0
220
0
230
1
100
AcDbDiametricDimension
 15
36.17130321416453
 25
-180.9370425713316
 35
0
 40
0
  0
DIMENSION
  5
1D6
100
AcDbEntity
  8
0
  6
ByLayer
 62
  256
370
   -1
100
AcDbDimension
  2
*D17
 10
3.585786437626894
 20
-183.5857864376269
 30
0
 11
3.674174785275213
 21
-186.3258252147248
 31
0
 70
   35
 71
    5
  3
Standard
 53
0
210
0
220
0
230
1
100
AcDbDiametricDimension
 15
6.414213562373079
 25
-186.4142135623731
 35
0
 40
0
  0
DIMENSION
  5
1D7
100
AcDbEntity
  8
0
  6
ByLayer
 62
  256
370
   -1
100
AcDbDimension
  2
*D18
 10
3.939339828220172
 20
-173.9393398282202
 30
0
 11
3.6741747852752
 21
-176.3258252147248
 31
0
 70
   35
 71
    5
  3
Standard
 53
0
210
0
220
0
230
1
100
AcDbDiametricDimension
 15
6.060660171779803
 25
-176.0606601717798
 35
0
 40
0
  0
DIMENSION
  5
1D8
100
AcDbEntity
  8
0
  6
ByLayer
 62
  256
370
   -1
100
AcDbDimension
  2
*D19
 10
3.939339828220175
 20
-148.9393398282202
 30
0
 11
3.674174785275203
 21
-151.3258252147248
 31
0
 70
   35
 71
    5
  3
Standard
 53
0
210
0
220
0
230
1
100
AcDbDiametricDimension
 15
6.060660171779807
 25
-151.0606601717798
 35
0
 40
0
  0
DIMENSION
  5
1D9
100
AcDbEntity
  8
0
  6
ByLayer
 62
  256
370
   -1
100
AcDbDimension
  2
*D20
 10
48.93933982822017
 20
-148.9393398282202
 30
0
 11
48.67417478527522
 21
-151.3258252147248
 31
0
 70
   35
 71
    5
  3
Standard
 53
0
210
0
220
0
230
1
100
AcDbDiametricDimension
 15
51.06066017177982
 25
-151.0606601717798
 35
0
 40
0
  0
DIMENSION
  5
1DA
100
AcDbEntity
  8
0
  6
ByLayer
 62
  256
370
   -1
100
AcDbDimension
  2
*D21
 10
91.41421356237308
 20
-163.5857864376269
 30
0
 11
91.32582521472476
 21
-166.3258252147248
 31
0
 70
   35
 71
    5
  3
Standard
 53
0
210
0
220
0
230
1
100
AcDbDiametricDimension
 15
88.58578643762689
 25
-166.4142135623731
 35
0
 40
0
  0
DIMENSION
  5
1DB
100
AcDbEntity
  8
0
  6
ByLayer
 62
  256
370
   -1
100
AcDbDimension
  2
*D22
 10
96.06066017177982
 20
-168.9393398282202
 30
0
 11
96.32582521472477
 21
-171.3258252147248
 31
0
 70
   35
 71
    5
  3
Standard
 53
0
210
0
220
0
230
1
100
AcDbDiametricDimension
 15
93.93933982822017
 25
-171.0606601717798
 35
0
 40
0
  0
DIMENSION
  5
1DC
100
AcDbEntity
  8
0
  6
ByLayer
 62
  256
370
   -1
100
AcDbDimension
  2
*D23
 10
4.0606601717798
 20
-206.0606601717798
 30
0
 11
1.674174785275197
 21
-206.3258252147248
 31
0
 70
   35
 71
    5
  3
Standard
 53
0
210
0
220
0
230
1
100
AcDbDiametricDimension
 15
1.939339828220169
 25
-203.9393398282202
 35
0
 40
0
  0
DIMENSION
  5
1DD
100
AcDbEntity
  8
0
  6
ByLayer
 62
  256
370
   -1
100
AcDbDimension
  2
*D24
 10
96.06066017177982
 20
-151.0606601717798
 30
0
 11
93.67417478527521
 21
-151.3258252147248
 31
0
 70
   35
 71
    5
  3
Standard
 53
0
210
0
220
0
230
1
100
AcDbDiametricDimension
 15
93.93933982822017
 25
-148.9393398282202
 35
0
 40
0
  0
DIMENSION
  5
1DE
100
AcDbEntity
  8
0
  6
ByLayer
 62
  256
370
   -1
100
AcDbDimension
  2
*D25
 10
3.939339828220179
 20
-123.9393398282202
 30
0
 11
3.674174785275206
 21
-126.3258252147248
 31
0
 70
   35
 71
    5
  3
Standard
 53
0
210
0
220
0
230
1
100
AcDbDiametricDimension
 15
6.060660171779809
 25
-126.0606601717798
 35
0
 40
0
  0
DIMENSION
  5
1DF
100
AcDbEntity
  8
0
  6
ByLayer
 62
  256
370
   -1
100
AcDbDimension
  2
*D26
 10
3.585786437626903
 20
-113.5857864376269
 30
0
 11
3.674174785275222
 21
-116.3258252147248
 31
0
 70
   35
 71
    5
  3
Standard
 53
0
210
0
220
0
230
1
100
AcDbDiametricDimension
 15
6.414213562373087
 25
-116.4142135623731
 35
0
 40
0
  0
DIMENSION
  5
1E0
100
AcDbEntity
  8
0
  6
ByLayer
 62
  256
370
   -1
100
AcDbDimension
  2
*D27
 10
1.847668080603936
 20
-94.03972340050328
 30
0
 11
1.799654250629101
 21
-96.44041489924507
 31
0
 70
   35
 71
    5
  3
Standard
 53
0
210
0
220
0
230
1
100
AcDbDiametricDimension
 15
4.152331919396059
 25
-95.96027659949672
 35
0
 40
0
  0
DIMENSION
  5
1E1
100
AcDbEntity
  8
0
  6
ByLayer
 62
  256
370
   -1
100
AcDbDimension
  2
*D28
 10
33.93933982822018
 20
-118.9393398282202
 30
0
 11
33.67417478527522
 21
-121.3258252147248
 31
0
 70
   35
 71
    5
  3
Standard
 53
0
210
0
220
0
230
1
100
AcDbDiametricDimension
 15
36.06066017177982
 25
-121.0606601717798
 35
0
 40
0
  0
DIMENSION
  5
1E2
100
AcDbEntity
  8
0
  6
ByLayer
 62
  256
370
   -1
100
AcDbDimension
  2
*D29
 10
91.41421356237309
 20
-136.4142135623731
 30
0
 11
88.67417478527521
 21
-136.3258252147248
 31
0
 70
   35
 71
    5
  3
Standard
 53
0
210
0
220
0
230
1
100
AcDbDiametricDimension
 15
88.58578643762689
 25
-133.5857864376269
 35
0
 40
0
  0
DIMENSION
  5
1E3
100
AcDbEntity
  8
0
  6
ByLayer
 62
  256
370
   -1
100
AcDbDimension
  2
*D30
 10
96.06066017177982
 20
-131.0606601717798
 30
0
 11
93.67417478527521
 21
-131.3258252147248
 31
0
 70
   35
 71
    5
  3
Standard
 53
0
210
0
220
0
230
1
100
AcDbDiametricDimension
 15
93.93933982822017
 25
-128.9393398282202
 35
0
 40
0
  0
ENDSEC
  0
SECTION
  2
OBJECTS
  0
DICTIONARY
  5
C
330
0
100
AcDbDictionary
281
    1
  3
ACAD_GROUP
350
D
  0
DICTIONARY
  5
D
330
C
100
AcDbDictionary
281
    1
  0
ENDSEC
  0
EOF
