999
dxfrw 0.6.1
  0
SECTION
  2
HEADER
  9
$ACADVER
  1
AC1021
  9
$DWGCODEPAGE
  3
ANSI_1252
  9
$INSBASE
 10
0
 20
0
 30
0
  9
$EXTMIN
 10
-3.101963130802687e-013
 20
-130
 30
0
  9
$EXTMAX
 10
104.9191810382539
 20
90.55555555555556
 30
0
  9
$LIMMIN
 10
0
 20
0
  9
$LIMMAX
 10
420
 20
297
  9
$ORTHOMODE
 70
    0
  9
$REGENMODE
 70
    1
  9
$FILLMODE
 70
    1
  9
$QTEXTMODE
 70
    0
  9
$MIRRTEXT
 70
    0
  9
$LTSCALE
 40
1
  9
$ATTMODE
 70
    0
  9
$TEXTSIZE
 40
2.5
  9
$TRACEWID
 40
15.68
  9
$TEXTSTYLE
  7
STANDARD
  9
$CLAYER
  8
0
  9
$CELTYPE
  6
BYLAYER
  9
$CECOLOR
 62
  256
  9
$CELTSCALE
 40
1
  9
$DISPSILH
 70
    0
  9
$DIMSCALE
 40
1
  9
$DIMASZ
 40
2.5
  9
$DIMEXO
 40
0.625
  9
$DIMDLI
 40
3.75
  9
$DIMRND
 40
0
  9
$DIMDLE
 40
0
  9
$DIMEXE
 40
1.25
  9
$DIMTP
 40
0
  9
$DIMTM
 40
0
  9
$DIMTXT
 40
2.5
  9
$DIMCEN
 40
2.5
  9
$DIMTSZ
 40
0
  9
$DIMTOL
 70
    0
  9
$DIMLIM
 70
    0
  9
$DIMTIH
 70
    0
  9
$DIMTOH
 70
    0
  9
$DIMSE1
 70
    0
  9
$DIMSE2
 70
    0
  9
$DIMTAD
 70
    1
  9
$DIMZIN
 70
    8
  9
$DIMBLK
  1

  9
$DIMASO
 70
    1
  9
$DIMSHO
 70
    1
  9
$DIMPOST
  1

  9
$DIMAPOST
  1

  9
$DIMALT
 70
    0
  9
$DIMALTD
 70
    3
  9
$DIMALTF
 40
0.03937
  9
$DIMLFAC
 40
1
  9
$DIMTOFL
 70
    1
  9
$DIMTVP
 40
0
  9
$DIMTIX
 70
    0
  9
$DIMSOXD
 70
    0
  9
$DIMSAH
 70
    0
  9
$DIMBLK1
  1

  9
$DIMBLK2
  1

  9
$DIMSTYLE
  2
STANDARD
  9
$DIMCLRD
 70
    0
  9
$DIMCLRE
 70
    0
  9
$DIMCLRT
 70
    0
  9
$DIMTFAC
 40
1
  9
$DIMGAP
 40
0.625
  9
$DIMJUST
 70
    0
  9
$DIMSD1
 70
    0
  9
$DIMSD2
 70
    0
  9
$DIMTOLJ
 70
    0
  9
$DIMTZIN
 70
    8
  9
$DIMALTZ
 70
    0
  9
$DIMALTTZ
 70
    0
  9
$DIMUPT
 70
    0
  9
$DIMDEC
 70
    2
  9
$DIMTDEC
 70
    2
  9
$DIMALTU
 70
    2
  9
$DIMALTTD
 70
    3
  9
$DIMTXSTY
  7
standard
  9
$DIMAUNIT
 70
    0
  9
$DIMADEC
 70
    0
  9
$DIMALTRND
 40
0
  9
$DIMAZIN
 70
    0
  9
$DIMDSEP
 70
   44
  9
$DIMATFIT
 70
    3
  9
$DIMFRAC
 70
    0
  9
$DIMLDRBLK
  1
STANDARD
  9
$DIMLUNIT
 70
    2
  9
$DIMLWD
 70
   -2
  9
$DIMLWE
 70
   -2
  9
$DIMTMOVE
 70
    0
  9
$DIMFXL
 40
1
  9
$DIMFXLON
 70
    0
  9
$DIMJOGANG
 40
0.7854
  9
$DIMTFILL
 70
    0
  9
$DIMTFILLCLR
 70
    0
  9
$DIMARCSYM
 70
    0
  9
$DIMLTYPE
  6

  9
$DIMLTEX1
  6

  9
$DIMLTEX2
  6

  9
$LUNITS
 70
    2
  9
$LUPREC
 70
    4
  9
$SKETCHINC
 40
1
  9
$FILLETRAD
 40
0
  9
$AUNITS
 70
    0
  9
$AUPREC
 70
    2
  9
$MENU
  1
.
  9
$ELEVATION
 40
0
  9
$PELEVATION
 40
0
  9
$THICKNESS
 40
0
  9
$LIMCHECK
 70
    0
  9
$CHAMFERA
 40
0
  9
$CHAMFERB
 40
0
  9
$CHAMFERC
 40
0
  9
$CHAMFERD
 40
0
  9
$SKPOLY
 70
    0
  9
$USRTIMER
 70
    1
  9
$ANGBASE
 50
0
  9
$ANGDIR
 70
    0
  9
$PDMODE
 70
   34
  9
$PDSIZE
 40
0
  9
$PLINEWID
 40
0
  9
$SPLFRAME
 70
    0
  9
$SPLINETYPE
 70
    2
  9
$SPLINESEGS
 70
    8
  9
$HANDSEED
  5
20000
  9
$SURFTAB1
 70
    6
  9
$SURFTAB2
 70
    6
  9
$SURFTYPE
 70
    6
  9
$SURFU
 70
    6
  9
$SURFV
 70
    6
  9
$UCSBASE
  2

  9
$UCSNAME
  2

  9
$UCSORG
 10
0
 20
0
 30
0
  9
$UCSXDIR
 10
1
 20
0
 30
0
  9
$UCSYDIR
 10
0
 20
1
 30
0
  9
$UCSORTHOREF
  2

  9
$UCSORTHOVIEW
 70
    0
  9
$UCSORGTOP
 10
0
 20
0
 30
0
  9
$UCSORGBOTTOM
 10
0
 20
0
 30
0
  9
$UCSORGLEFT
 10
0
 20
0
 30
0
  9
$UCSORGRIGHT
 10
0
 20
0
 30
0
  9
$UCSORGFRONT
 10
0
 20
0
 30
0
  9
$UCSORGBACK
 10
0
 20
0
 30
0
  9
$PUCSBASE
  2

  9
$PUCSNAME
  2

  9
$PUCSORG
 10
0
 20
0
 30
0
  9
$PUCSXDIR
 10
1
 20
0
 30
0
  9
$PUCSYDIR
 10
0
 20
1
 30
0
  9
$PUCSORTHOREF
  2

  9
$PUCSORTHOVIEW
 70
    0
  9
$PUCSORGTOP
 10
0
 20
0
 30
0
  9
$PUCSORGBOTTOM
 10
0
 20
0
 30
0
  9
$PUCSORGLEFT
 10
0
 20
0
 30
0
  9
$PUCSORGRIGHT
 10
0
 20
0
 30
0
  9
$PUCSORGFRONT
 10
0
 20
0
 30
0
  9
$PUCSORGBACK
 10
0
 20
0
 30
0
  9
$USERI1
 70
    0
  9
$USERI2
 70
    0
  9
$USERI3
 70
    0
  9
$USERI4
 70
    0
  9
$USERI5
 70
    0
  9
$USERR1
 40
0
  9
$USERR2
 40
0
  9
$USERR3
 40
0
  9
$USERR4
 40
0
  9
$USERR5
 40
0
  9
$WORLDVIEW
 70
    1
  9
$SHADEDGE
 70
    3
  9
$SHADEDIF
 70
   70
  9
$TILEMODE
 70
    1
  9
$MAXACTVP
 70
   64
  9
$PINSBASE
 10
52.54040948087322
 20
168.2222222222222
 30
0
  9
$PLIMCHECK
 70
    0
  9
$PEXTMIN
 10
0
 20
0
 30
0
  9
$PEXTMAX
 10
0
 20
0
 30
0
  9
$GRIDMODE
 70
    1
  9
$SNAPSTYLE
 70
    0
  9
$GRIDUNIT
 10
0
 20
0
  9
$PLIMMIN
 10
0
 20
0
  9
$PLIMMAX
 10
210
 20
297
  9
$UNITMODE
 70
    0
  9
$VISRETAIN
 70
    1
  9
$PLINEGEN
 70
    0
  9
$PSLTSCALE
 70
    1
  9
$TREEDEPTH
 70
 3020
  9
$CMLSTYLE
  2
Standard
  9
$CMLJUST
 70
    0
  9
$CMLSCALE
 40
20
  9
$PROXYGRAPHICS
 70
    1
  9
$MEASUREMENT
 70
    1
  9
$CELWEIGHT
370
   -1
  9
$ENDCAPS
280
    0
  9
$JOINSTYLE
280
    0
  9
$LWDISPLAY
290
    0
  9
$INSUNITS
 70
    4
  9
$HYPERLINKBASE
  1

  9
$STYLESHEET
  1

  9
$XEDIT
290
    1
  9
$CEPSNTYPE
380
    0
  9
$PSTYLEMODE
290
    1
  9
$EXTNAMES
290
    1
  9
$PSVPSCALE
 40
1
  9
$OLESTARTUP
290
    0
  9
$SORTENTS
280
  127
  9
$INDEXCTL
280
    0
  9
$HIDETEXT
280
    1
  9
$XCLIPFRAME
290
    0
  9
$HALOGAP
280
    0
  9
$OBSCOLOR
 70
  257
  9
$OBSLTYPE
280
    0
  9
$INTERSECTIONDISPLAY
280
    0
  9
$INTERSECTIONCOLOR
 70
  257
  9
$DIMASSOC
280
    0
  9
$PROJECTNAME
  1

  9
$CAMERADISPLAY
290
    0
  9
$LENSLENGTH
 40
50
  9
$CAMERAHEIGHT
 40
0
  9
$STEPSPERSEC
 40
2
  9
$STEPSIZE
 40
50
  9
$3DDWFPREC
 40
2
  9
$PSOLWIDTH
 40
5
  9
$PSOLHEIGHT
 40
80
  9
$LOFTANG1
 40
1.570796326794897
  9
$LOFTANG2
 40
1.570796326794897
  9
$LOFTMAG1
 40
0
  9
$LOFTMAG2
 40
0
  9
$LOFTPARAM
 70
    7
  9
$LOFTNORMALS
280
    1
  9
$LATITUDE
 40
1
  9
$LONGITUDE
 40
1
  9
$NORTHDIRECTION
 40
0
  9
$TIMEZONE
 70
-8000
  9
$LIGHTGLYPHDISPLAY
280
    1
  9
$TILEMODELIGHTSYNCH
280
    1
  9
$SOLIDHIST
280
    1
  9
$SHOWHIST
280
    1
  9
$DWFFRAME
280
    2
  9
$DGNFRAME
280
    0
  9
$REALWORLDSCALE
290
    1
  9
$INTERFERECOLOR
 62
    1
  9
$CSHADOW
280
    0
  9
$SHADOWPLANELOCATION
 40
0
  0
ENDSEC
  0
SECTION
  2
CLASSES
  0
ENDSEC
  0
SECTION
  2
TABLES
  0
TABLE
  2
VPORT
  5
8
330
0
100
AcDbSymbolTable
 70
    1
  0
VPORT
  5
31
330
2
100
AcDbSymbolTableRecord
100
AcDbViewportTableRecord
  2
*ACTIVE
 70
    0
 10
0
 20
0
 11
1
 21
1
 12
174.9227586206904
 22
55.09862068965542
 13
0
 23
0
 14
10
 24
10
 15
10
 25
10
 16
0
 26
0
 36
1
 17
0
 27
0
 37
0
 40
198.2731034482767
 41
2.570247933884298
 42
50
 43
0
 44
0
 50
0
 51
0
 71
    0
 72
  100
 73
    1
 74
    3
 75
    0
 76
    1
 77
    0
 78
    0
281
    0
 65
    1
110
0
120
0
130
0
111
1
121
0
131
0
112
0
122
1
132
0
 79
    0
146
0
348
10020
 60
    7
 61
    5
292
1
282
    1
141
0
142
0
 63
  250
421
3358443
  0
ENDTAB
  0
TABLE
  2
LTYPE
  5
5
330
0
100
AcDbSymbolTable
 70
    4
  0
LTYPE
  5
14
330
5
100
AcDbSymbolTableRecord
100
AcDbLinetypeTableRecord
  2
ByBlock
 70
    0
  3

 72
   65
 73
    0
 40
0
  0
LTYPE
  5
15
330
5
100
AcDbSymbolTableRecord
100
AcDbLinetypeTableRecord
  2
ByLayer
 70
    0
  3

 72
   65
 73
    0
 40
0
  0
LTYPE
  5
16
330
5
100
AcDbSymbolTableRecord
100
AcDbLinetypeTableRecord
  2
Continuous
 70
    0
  3
Solid line
 72
   65
 73
    0
 40
0
  0
LTYPE
  5
32
330
5
100
AcDbSymbolTableRecord
100
AcDbLinetypeTableRecord
  2
DOT
 70
    0
  3
Dot . . . . . . . . . . . . . . . . . . . . . .
 72
   65
 73
    2
 40
6.35
 49
0
 74
    0
 49
-6.35
 74
    0
  0
LTYPE
  5
33
330
5
100
AcDbSymbolTableRecord
100
AcDbLinetypeTableRecord
  2
DOTTINY
 70
    0
  3
Dot (.15x) .....................................
 72
   65
 73
    2
 40
0.9525
 49
0
 74
    0
 49
-0.9525
 74
    0
  0
LTYPE
  5
34
330
5
100
AcDbSymbolTableRecord
100
AcDbLinetypeTableRecord
  2
DOT2
 70
    0
  3
Dot (.5x) .....................................
 72
   65
 73
    2
 40
3.175
 49
0
 74
    0
 49
-3.175
 74
    0
  0
LTYPE
  5
35
330
5
100
AcDbSymbolTableRecord
100
AcDbLinetypeTableRecord
  2
DOTX2
 70
    0
  3
Dot (2x) .  .  .  .  .  .  .  .  .  .  .  .  .
 72
   65
 73
    2
 40
12.7
 49
0
 74
    0
 49
-12.7
 74
    0
  0
LTYPE
  5
36
330
5
100
AcDbSymbolTableRecord
100
AcDbLinetypeTableRecord
  2
DASHED
 70
    0
  3
Dashed _ _ _ _ _ _ _ _ _ _ _ _ _ _ _ _ _
 72
   65
 73
    2
 40
19.05
 49
12.7
 74
    0
 49
-6.35
 74
    0
  0
LTYPE
  5
37
330
5
100
AcDbSymbolTableRecord
100
AcDbLinetypeTableRecord
  2
DASHEDTINY
 70
    0
  3
Dashed (.15x) _ _ _ _ _ _ _ _ _ _ _ _ _ _ _ _ _
 72
   65
 73
    2
 40
2.8575
 49
1.905
 74
    0
 49
-0.9525
 74
    0
  0
LTYPE
  5
38
330
5
100
AcDbSymbolTableRecord
100
AcDbLinetypeTableRecord
  2
DASHED2
 70
    0
  3
Dashed (.5x) _ _ _ _ _ _ _ _ _ _ _ _ _ _ _ _ _
 72
   65
 73
    2
 40
9.524999999999999
 49
6.35
 74
    0
 49
-3.175
 74
    0
  0
LTYPE
  5
39
330
5
100
AcDbSymbolTableRecord
100
AcDbLinetypeTableRecord
  2
DASHEDX2
 70
    0
  3
Dashed (2x) ____  ____  ____  ____  ____  ___
 72
   65
 73
    2
 40
38.09999999999999
 49
25.4
 74
    0
 49
-12.7
 74
    0
  0
LTYPE
  5
3A
330
5
100
AcDbSymbolTableRecord
100
AcDbLinetypeTableRecord
  2
DASHDOT
 70
    0
  3
Dash dot __ . __ . __ . __ . __ . __ . __ . __
 72
   65
 73
    4
 40
25.4
 49
12.7
 74
    0
 49
-6.35
 74
    0
 49
0
 74
    0
 49
-6.35
 74
    0
  0
LTYPE
  5
3B
330
5
100
AcDbSymbolTableRecord
100
AcDbLinetypeTableRecord
  2
DASHDOTTINY
 70
    0
  3
Dash dot (.15x) _._._._._._._._._._._._._._._.
 72
   65
 73
    4
 40
3.81
 49
1.905
 74
    0
 49
-0.9525
 74
    0
 49
0
 74
    0
 49
-0.9525
 74
    0
  0
LTYPE
  5
3C
330
5
100
AcDbSymbolTableRecord
100
AcDbLinetypeTableRecord
  2
DASHDOT2
 70
    0
  3
Dash dot (.5x) _._._._._._._._._._._._._._._.
 72
   65
 73
    4
 40
12.7
 49
6.35
 74
    0
 49
-3.175
 74
    0
 49
0
 74
    0
 49
-3.175
 74
    0
  0
LTYPE
  5
3D
330
5
100
AcDbSymbolTableRecord
100
AcDbLinetypeTableRecord
  2
DASHDOTX2
 70
    0
  3
Dash dot (2x) ____  .  ____  .  ____  .  ___
 72
   65
 73
    4
 40
50.8
 49
25.4
 74
    0
 49
-12.7
 74
    0
 49
0
 74
    0
 49
-12.7
 74
    0
  0
LTYPE
  5
3E
330
5
100
AcDbSymbolTableRecord
100
AcDbLinetypeTableRecord
  2
DIVIDE
 70
    0
  3
Divide ____ . . ____ . . ____ . . ____ . . ____
 72
   65
 73
    6
 40
31.75
 49
12.7
 74
    0
 49
-6.35
 74
    0
 49
0
 74
    0
 49
-6.35
 74
    0
 49
0
 74
    0
 49
-6.35
 74
    0
  0
LTYPE
  5
3F
330
5
100
AcDbSymbolTableRecord
100
AcDbLinetypeTableRecord
  2
DIVIDETINY
 70
    0
  3
Divide (.15x) __..__..__..__..__..__..__..__.._
 72
   65
 73
    6
 40
4.7625
 49
1.905
 74
    0
 49
-0.9525
 74
    0
 49
0
 74
    0
 49
-0.9525
 74
    0
 49
0
 74
    0
 49
-0.9525
 74
    0
  0
LTYPE
  5
40
330
5
100
AcDbSymbolTableRecord
100
AcDbLinetypeTableRecord
  2
DIVIDE2
 70
    0
  3
Divide (.5x) __..__..__..__..__..__..__..__.._
 72
   65
 73
    6
 40
15.875
 49
6.35
 74
    0
 49
-3.175
 74
    0
 49
0
 74
    0
 49
-3.175
 74
    0
 49
0
 74
    0
 49
-3.175
 74
    0
  0
LTYPE
  5
41
330
5
100
AcDbSymbolTableRecord
100
AcDbLinetypeTableRecord
  2
DIVIDEX2
 70
    0
  3
Divide (2x) ________  .  .  ________  .  .  _
 72
   65
 73
    6
 40
63.5
 49
25.4
 74
    0
 49
-12.7
 74
    0
 49
0
 74
    0
 49
-12.7
 74
    0
 49
0
 74
    0
 49
-12.7
 74
    0
  0
LTYPE
  5
42
330
5
100
AcDbSymbolTableRecord
100
AcDbLinetypeTableRecord
  2
BORDER
 70
    0
  3
Border __ __ . __ __ . __ __ . __ __ . __ __ .
 72
   65
 73
    6
 40
44.45
 49
12.7
 74
    0
 49
-6.35
 74
    0
 49
12.7
 74
    0
 49
-6.35
 74
    0
 49
0
 74
    0
 49
-6.35
 74
    0
  0
LTYPE
  5
43
330
5
100
AcDbSymbolTableRecord
100
AcDbLinetypeTableRecord
  2
BORDERTINY
 70
    0
  3
Border (.15x) __.__.__.__.__.__.__.__.__.__.__.
 72
   65
 73
    6
 40
6.6675
 49
1.905
 74
    0
 49
-0.9525
 74
    0
 49
1.905
 74
    0
 49
-0.9525
 74
    0
 49
0
 74
    0
 49
-0.9525
 74
    0
  0
LTYPE
  5
44
330
5
100
AcDbSymbolTableRecord
100
AcDbLinetypeTableRecord
  2
BORDER2
 70
    0
  3
Border (.5x) __.__.__.__.__.__.__.__.__.__.__.
 72
   65
 73
    6
 40
22.225
 49
6.35
 74
    0
 49
-3.175
 74
    0
 49
6.35
 74
    0
 49
-3.175
 74
    0
 49
0
 74
    0
 49
-3.175
 74
    0
  0
LTYPE
  5
45
330
5
100
AcDbSymbolTableRecord
100
AcDbLinetypeTableRecord
  2
BORDERX2
 70
    0
  3
Border (2x) ____  ____  .  ____  ____  .  ___
 72
   65
 73
    6
 40
88.89999999999999
 49
25.4
 74
    0
 49
-12.7
 74
    0
 49
25.4
 74
    0
 49
-12.7
 74
    0
 49
0
 74
    0
 49
-12.7
 74
    0
  0
LTYPE
  5
46
330
5
100
AcDbSymbolTableRecord
100
AcDbLinetypeTableRecord
  2
CENTER
 70
    0
  3
Center ____ _ ____ _ ____ _ ____ _ ____ _ ____
 72
   65
 73
    4
 40
50.8
 49
31.75
 74
    0
 49
-6.35
 74
    0
 49
6.35
 74
    0
 49
-6.35
 74
    0
  0
LTYPE
  5
47
330
5
100
AcDbSymbolTableRecord
100
AcDbLinetypeTableRecord
  2
CENTERTINY
 70
    0
  3
Center (.15x) ___ _ ___ _ ___ _ ___ _ ___ _ ___
 72
   65
 73
    4
 40
7.62
 49
4.7625
 74
    0
 49
-0.9525
 74
    0
 49
0.9525
 74
    0
 49
-0.9525
 74
    0
  0
LTYPE
  5
48
330
5
100
AcDbSymbolTableRecord
100
AcDbLinetypeTableRecord
  2
CENTER2
 70
    0
  3
Center (.5x) ___ _ ___ _ ___ _ ___ _ ___ _ ___
 72
   65
 73
    4
 40
28.575
 49
19.05
 74
    0
 49
-3.175
 74
    0
 49
3.175
 74
    0
 49
-3.175
 74
    0
  0
LTYPE
  5
49
330
5
100
AcDbSymbolTableRecord
100
AcDbLinetypeTableRecord
  2
CENTERX2
 70
    0
  3
Center (2x) ________  __  ________  __  _____
 72
   65
 73
    4
 40
101.6
 49
63.5
 74
    0
 49
-12.7
 74
    0
 49
12.7
 74
    0
 49
-12.7
 74
    0
  0
ENDTAB
  0
TABLE
  2
LAYER
  5
2
330
0
100
AcDbSymbolTable
 70
    1
  0
LAYER
  5
10
330
2
100
AcDbSymbolTableRecord
100
AcDbLayerTableRecord
  2
0
 70
    0
 62
    7
  6
CONTINUOUS
370
    0
390
F
  0
ENDTAB
  0
TABLE
  2
STYLE
  5
3
330
0
100
AcDbSymbolTable
 70
    3
  0
STYLE
  5
4A
330
2
100
AcDbSymbolTableRecord
100
AcDbTextStyleTableRecord
  2
standard
 70
    0
 40
0
 41
1
 50
0
 71
    0
 42
1
  3
standard
  4

  0
ENDTAB
  0
TABLE
  2
VIEW
  5
6
330
0
100
AcDbSymbolTable
 70
    0
  0
ENDTAB
  0
TABLE
  2
UCS
  5
7
330
0
100
AcDbSymbolTable
 70
    0
  0
ENDTAB
  0
TABLE
  2
APPID
  5
9
330
0
100
AcDbSymbolTable
 70
    1
  0
APPID
  5
12
330
9
100
AcDbSymbolTableRecord
100
AcDbRegAppTableRecord
  2
ACAD
 70
    0
  0
APPID
  5
4B
330
9
100
AcDbSymbolTableRecord
100
AcDbRegAppTableRecord
  2
LibreCad
 70
    0
  0
ENDTAB
  0
TABLE
  2
DIMSTYLE
  5
A
330
0
100
AcDbSymbolTable
 70
    1
100
AcDbDimStyleTable
 71
    1
  0
DIMSTYLE
105
4C
330
A
100
AcDbSymbolTableRecord
100
AcDbDimStyleTableRecord
  2
Standard
 70
    0
 40
1
 41
2.5
 42
0.625
 43
0.38
 44
1.25
 45
0
 46
0
 47
0
 48
0
140
2.5
141
0.09
142
0
143
25.4
144
1
145
0
146
1
147
0.625
148
0
 71
    0
 72
    0
 73
    0
 74
    1
 75
    0
 76
    0
 77
    0
 78
    0
 79
    0
170
    0
171
    2
172
    0
173
    0
174
    0
175
    0
176
    0
177
    0
178
    0
179
    0
271
    4
272
    4
273
    2
274
    2
275
    0
276
    0
277
    2
278
   46
279
    0
280
    0
281
    0
282
    0
283
    1
284
    0
285
    0
286
    0
288
    0
289
    3
340
Standard
341

371
   -2
372
   -2
  0
ENDTAB
  0
TABLE
  2
BLOCK_RECORD
  5
1
330
0
100
AcDbSymbolTable
 70
    2
  0
BLOCK_RECORD
  5
1F
330
1
100
AcDbSymbolTableRecord
100
AcDbBlockTableRecord
  2
*Model_Space
 70
    0
280
    1
281
    0
  0
BLOCK_RECORD
  5
1E
330
1
100
AcDbSymbolTableRecord
100
AcDbBlockTableRecord
  2
*Paper_Space
 70
    0
280
    1
281
    0
  0
BLOCK_RECORD
  5
4D
330
1
100
AcDbSymbolTableRecord
100
AcDbBlockTableRecord
  2
*D10
 70
    0
280
    1
281
    0
  0
BLOCK_RECORD
  5
50
330
1
100
AcDbSymbolTableRecord
100
AcDbBlockTableRecord
  2
*D14
 70
    0
280
    1
281
    0
  0
BLOCK_RECORD
  5
53
330
1
100
AcDbSymbolTableRecord
100
AcDbBlockTableRecord
  2
*D2
 70
    0
280
    1
281
    0
  0
BLOCK_RECORD
  5
56
330
1
100
AcDbSymbolTableRecord
100
AcDbBlockTableRecord
  2
*D4
 70
    0
280
    1
281
    0
  0
BLOCK_RECORD
  5
59
330
1
100
AcDbSymbolTableRecord
100
AcDbBlockTableRecord
  2
*D6
 70
    0
280
    1
281
    0
  0
BLOCK_RECORD
  5
5C
330
1
100
AcDbSymbolTableRecord
100
AcDbBlockTableRecord
  2
*D7
 70
    0
280
    1
281
    0
  0
BLOCK_RECORD
  5
5F
330
1
100
AcDbSymbolTableRecord
100
AcDbBlockTableRecord
  2
*D11
 70
    0
280
    1
281
    0
  0
BLOCK_RECORD
  5
62
330
1
100
AcDbSymbolTableRecord
100
AcDbBlockTableRecord
  2
*D13
 70
    0
280
    1
281
    0
  0
BLOCK_RECORD
  5
65
330
1
100
AcDbSymbolTableRecord
100
AcDbBlockTableRecord
  2
*D15
 70
    0
280
    1
281
    0
  0
BLOCK_RECORD
  5
68
330
1
100
AcDbSymbolTableRecord
100
AcDbBlockTableRecord
  2
*D16
 70
    0
280
    1
281
    0
  0
BLOCK_RECORD
  5
6B
330
1
100
AcDbSymbolTableRecord
100
AcDbBlockTableRecord
  2
*D1
 70
    0
280
    1
281
    0
  0
BLOCK_RECORD
  5
6E
330
1
100
AcDbSymbolTableRecord
100
AcDbBlockTableRecord
  2
*D3
 70
    0
280
    1
281
    0
  0
BLOCK_RECORD
  5
71
330
1
100
AcDbSymbolTableRecord
100
AcDbBlockTableRecord
  2
*D8
 70
    0
280
    1
281
    0
  0
BLOCK_RECORD
  5
74
330
1
100
AcDbSymbolTableRecord
100
AcDbBlockTableRecord
  2
*D12
 70
    0
280
    1
281
    0
  0
BLOCK_RECORD
  5
77
330
1
100
AcDbSymbolTableRecord
100
AcDbBlockTableRecord
  2
*D17
 70
    0
280
    1
281
    0
  0
BLOCK_RECORD
  5
7A
330
1
100
AcDbSymbolTableRecord
100
AcDbBlockTableRecord
  2
*D9
 70
    0
280
    1
281
    0
  0
BLOCK_RECORD
  5
7D
330
1
100
AcDbSymbolTableRecord
100
AcDbBlockTableRecord
  2
*D5
 70
    0
280
    1
281
    0
  0
ENDTAB
  0
ENDSEC
  0
SECTION
  2
BLOCKS
  0
BLOCK
  5
20
330
1F
100
AcDbEntity
  8
0
100
AcDbBlockBegin
  2
*Model_Space
 70
    0
 10
0
 20
0
 30
0
  3
*Model_Space
  1

  0
ENDBLK
  5
21
330
1F
100
AcDbEntity
  8
0
100
AcDbBlockEnd
  0
BLOCK
  5
1C
330
1B
100
AcDbEntity
  8
0
100
AcDbBlockBegin
  2
*Paper_Space
 70
    0
 10
0
 20
0
 30
0
  3
*Paper_Space
  1

  0
ENDBLK
  5
1D
330
1F
100
AcDbEntity
  8
0
100
AcDbBlockEnd
  0
BLOCK
  5
4E
330
4D
100
AcDbEntity
  8
0
100
AcDbBlockBegin
  2
*D10
 70
    1
 10
0
 20
0
  3
*D10
  1

  0
LINE
  5
80
100
AcDbEntity
  8
0
  6
ByBlock
 62
    0
370
   -2
100
AcDbLine
 10
99.59619407771254
 20
-29.59619407771256
 11
90.40380592228746
 21
-20.40380592228744
  0
SOLID
  5
81
100
AcDbEntity
  8
0
  6
ByBlock
 62
    0
370
   -2
100
AcDbTrace
 10
96.06066017177982
 20
-26.06066017177982
 30
0
 11
98.12278482916128
 21
-27.5340694203311
 31
0
 12
97.53406942033108
 22
-28.12278482916129
 32
0
 13
97.53406942033108
 23
-28.12278482916129
 33
0
  0
SOLID
  5
82
100
AcDbEntity
  8
0
  6
ByBlock
 62
    0
370
   -2
100
AcDbTrace
 10
93.93933982822018
 20
-23.93933982822018
 30
0
 11
91.87721517083872
 21
-22.4659305796689
 31
0
 12
92.46593057966892
 22
-21.87721517083871
 32
0
 13
92.46593057966892
 23
-21.87721517083871
 33
0
  0
MTEXT
  5
83
100
AcDbEntity
  8
0
  6
CONTINUOUS
 62
    0
370
   -2
100
AcDbMText
 10
99.9399265407894
 20
-27.28827611133987
 30
0
 40
2.5
 41
5.972222222222378
 71
    5
 72
    1
  1
3,00
  7
standard
210
0
220
0
230
1
 50
314.9999999999998
 73
    2
 44
1
  0
ENDBLK
  5
4F
330
4D
100
AcDbEntity
  8
0
100
AcDbBlockEnd
  0
BLOCK
  5
51
330
50
100
AcDbEntity
  8
0
100
AcDbBlockBegin
  2
*D14
 70
    1
 10
0
 20
0
  3
*D14
  1

  0
LINE
  5
84
100
AcDbEntity
  8
0
  6
ByBlock
 62
    0
370
   -2
100
AcDbLine
 10
5.050252531694176
 20
-10.05025253169416
 11
14.94974746830582
 21
-19.94974746830584
  0
SOLID
  5
85
100
AcDbEntity
  8
0
  6
ByBlock
 62
    0
370
   -2
100
AcDbTrace
 10
8.585786437626906
 20
-13.5857864376269
 30
0
 11
6.523661780245445
 21
-12.11237718907562
 31
0
 12
7.11237718907564
 22
-11.52366178024543
 32
0
 13
7.11237718907564
 23
-11.52366178024543
 33
0
  0
SOLID
  5
86
100
AcDbEntity
  8
0
  6
ByBlock
 62
    0
370
   -2
100
AcDbTrace
 10
11.41421356237309
 20
-16.4142135623731
 30
0
 11
13.47633821975455
 21
-17.88762281092438
 31
0
 12
12.88762281092436
 22
-18.47633821975457
 32
0
 13
12.88762281092436
 23
-18.47633821975457
 33
0
  0
MTEXT
  5
87
100
AcDbEntity
  8
0
  6
CONTINUOUS
 62
    0
370
   -2
100
AcDbMText
 10
15.39168920654742
 20
-17.74003877709789
 30
0
 40
2.5
 41
6.25
 71
    5
 72
    1
  1
4,00
  7
standard
210
0
220
0
230
1
 50
314.9999999999998
 73
    2
 44
1
  0
ENDBLK
  5
52
330
50
100
AcDbEntity
  8
0
100
AcDbBlockEnd
  0
BLOCK
  5
54
330
53
100
AcDbEntity
  8
0
100
AcDbBlockBegin
  2
*D2
 70
    1
 10
0
 20
0
  3
*D2
  1

  0
LINE
  5
88
100
AcDbEntity
  8
0
  6
ByBlock
 62
    0
370
   -2
100
AcDbLine
 10
99.94974746830583
 20
30.05025253169417
 11
90.05025253169417
 21
39.94974746830583
  0
SOLID
  5
89
100
AcDbEntity
  8
0
  6
ByBlock
 62
    0
370
   -2
100
AcDbTrace
 10
96.41421356237309
 20
33.58578643762691
 30
0
 11
98.47633821975455
 21
32.11237718907564
 31
0
 12
97.88762281092437
 22
31.52366178024544
 32
0
 13
97.88762281092437
 23
31.52366178024544
 33
0
  0
SOLID
  5
8A
100
AcDbEntity
  8
0
  6
ByBlock
 62
    0
370
   -2
100
AcDbTrace
 10
93.58578643762691
 20
36.41421356237309
 30
0
 11
91.52366178024545
 21
37.88762281092436
 31
0
 12
92.11237718907563
 22
38.47633821975456
 32
0
 13
92.11237718907563
 23
38.47633821975456
 33
0
  0
MTEXT
  5
8B
100
AcDbEntity
  8
0
  6
CONTINUOUS
 62
    0
370
   -2
100
AcDbMText
 10
100.3916892065474
 20
32.25996122290213
 30
0
 40
2.5
 41
6.25
 71
    5
 72
    1
  1
4,00
  7
standard
210
0
220
0
230
1
 50
315
 73
    2
 44
1
  0
ENDBLK
  5
55
330
53
100
AcDbEntity
  8
0
100
AcDbBlockEnd
  0
BLOCK
  5
57
330
56
100
AcDbEntity
  8
0
100
AcDbBlockBegin
  2
*D4
 70
    1
 10
0
 20
0
  3
*D4
  1

  0
LINE
  5
8C
100
AcDbEntity
  8
0
  6
ByBlock
 62
    0
370
   -2
100
AcDbLine
 10
99.59619407771254
 20
-4.596194077712569
 11
90.40380592228746
 21
4.596194077712569
  0
SOLID
  5
8D
100
AcDbEntity
  8
0
  6
ByBlock
 62
    0
370
   -2
100
AcDbTrace
 10
96.06066017177982
 20
-1.060660171779821
 30
0
 11
98.12278482916128
 21
-2.534069420331098
 31
0
 12
97.53406942033108
 22
-3.12278482916129
 32
0
 13
97.53406942033108
 23
-3.12278482916129
 33
0
  0
SOLID
  5
8E
100
AcDbEntity
  8
0
  6
ByBlock
 62
    0
370
   -2
100
AcDbTrace
 10
93.93933982822018
 20
1.060660171779821
 30
0
 11
91.87721517083872
 21
2.534069420331099
 31
0
 12
92.46593057966892
 22
3.122784829161291
 32
0
 13
92.46593057966892
 23
3.122784829161291
 33
0
  0
MTEXT
  5
8F
100
AcDbEntity
  8
0
  6
CONTINUOUS
 62
    0
370
   -2
100
AcDbMText
 10
99.9399265407894
 20
-2.288276111339867
 30
0
 40
2.5
 41
5.972222222222378
 71
    5
 72
    1
  1
3,00
  7
standard
210
0
220
0
230
1
 50
314.9999999999998
 73
    2
 44
1
  0
ENDBLK
  5
58
330
56
100
AcDbEntity
  8
0
100
AcDbBlockEnd
  0
BLOCK
  5
5A
330
59
100
AcDbEntity
  8
0
100
AcDbBlockBegin
  2
*D6
 70
    1
 10
0
 20
0
  3
*D6
  1

  0
LINE
  5
90
100
AcDbEntity
  8
0
  6
ByBlock
 62
    0
370
   -2
100
AcDbLine
 10
5.050252531694167
 20
10.05025253169416
 11
14.94974746830584
 21
19.94974746830584
  0
SOLID
  5
91
100
AcDbEntity
  8
0
  6
ByBlock
 62
    0
370
   -2
100
AcDbTrace
 10
8.585786437626904
 20
13.5857864376269
 30
0
 11
7.112377189075634
 21
11.52366178024543
 31
0
 12
6.52366178024544
 22
12.11237718907563
 32
0
 13
6.52366178024544
 23
12.11237718907563
 33
0
  0
SOLID
  5
92
100
AcDbEntity
  8
0
  6
ByBlock
 62
    0
370
   -2
100
AcDbTrace
 10
11.4142135623731
 20
16.4142135623731
 30
0
 11
12.88762281092437
 21
18.47633821975456
 31
0
 12
13.47633821975456
 22
17.88762281092437
 32
0
 13
13.47633821975456
 23
17.88762281092437
 33
0
  0
MTEXT
  5
93
100
AcDbEntity
  8
0
  6
CONTINUOUS
 62
    0
370
   -2
100
AcDbMText
 10
12.74003877709787
 20
20.39168920654743
 30
0
 40
2.5
 41
6.25
 71
    5
 72
    1
  1
4,00
  7
standard
210
0
220
0
230
1
 50
45.00000000000001
 73
    2
 44
1
  0
ENDBLK
  5
5B
330
59
100
AcDbEntity
  8
0
100
AcDbBlockEnd
  0
BLOCK
  5
5D
330
5C
100
AcDbEntity
  8
0
100
AcDbBlockBegin
  2
*D7
 70
    1
 10
0
 20
0
  3
*D7
  1

  0
LINE
  5
94
100
AcDbEntity
  8
0
  6
ByBlock
 62
    0
370
   -2
100
AcDbLine
 10
0.4038059222874377
 20
15.40380592228745
 11
9.596194077712562
 21
24.59619407771255
  0
SOLID
  5
95
100
AcDbEntity
  8
0
  6
ByBlock
 62
    0
370
   -2
100
AcDbTrace
 10
3.939339828220179
 20
18.93933982822018
 30
0
 11
2.465930579668905
 21
16.87721517083872
 31
0
 12
1.877215170838712
 22
17.46593057966891
 32
0
 13
1.877215170838712
 23
17.46593057966891
 33
0
  0
SOLID
  5
96
100
AcDbEntity
  8
0
  6
ByBlock
 62
    0
370
   -2
100
AcDbTrace
 10
6.060660171779821
 20
21.06066017177982
 30
0
 11
7.534069420331095
 21
23.12278482916128
 31
0
 12
8.122784829161288
 22
22.53406942033109
 32
0
 13
8.122784829161288
 23
22.53406942033109
 33
0
  0
MTEXT
  5
97
100
AcDbEntity
  8
0
  6
CONTINUOUS
 62
    0
370
   -2
100
AcDbMText
 10
7.288276111339854
 20
24.93992654078941
 30
0
 40
2.5
 41
5.972222222222378
 71
    5
 72
    1
  1
3,00
  7
standard
210
0
220
0
230
1
 50
44.99999999999995
 73
    2
 44
1
  0
ENDBLK
  5
5E
330
5C
100
AcDbEntity
  8
0
100
AcDbBlockEnd
  0
BLOCK
  5
60
330
5F
100
AcDbEntity
  8
0
100
AcDbBlockBegin
  2
*D11
 70
    1
 10
0
 20
0
  3
*D11
  1

  0
LINE
  5
98
100
AcDbEntity
  8
0
  6
ByBlock
 62
    0
370
   -2
100
AcDbLine
 10
99.94974746830583
 20
-39.94974746830583
 11
90.05025253169417
 21
-30.05025253169417
  0
SOLID
  5
99
100
AcDbEntity
  8
0
  6
ByBlock
 62
    0
370
   -2
100
AcDbTrace
 10
96.41421356237309
 20
-36.41421356237309
 30
0
 11
98.47633821975455
 21
-37.88762281092436
 31
0
 12
97.88762281092437
 22
-38.47633821975456
 32
0
 13
97.88762281092437
 23
-38.47633821975456
 33
0
  0
SOLID
  5
9A
100
AcDbEntity
  8
0
  6
ByBlock
 62
    0
370
   -2
100
AcDbTrace
 10
93.58578643762691
 20
-33.58578643762691
 30
0
 11
91.52366178024545
 21
-32.11237718907564
 31
0
 12
92.11237718907563
 22
-31.52366178024544
 32
0
 13
92.11237718907563
 23
-31.52366178024544
 33
0
  0
MTEXT
  5
9B
100
AcDbEntity
  8
0
  6
CONTINUOUS
 62
    0
370
   -2
100
AcDbMText
 10
100.3916892065474
 20
-37.74003877709787
 30
0
 40
2.5
 41
6.25
 71
    5
 72
    1
  1
4,00
  7
standard
210
0
220
0
230
1
 50
315
 73
    2
 44
1
  0
ENDBLK
  5
61
330
5F
100
AcDbEntity
  8
0
100
AcDbBlockEnd
  0
BLOCK
  5
63
330
62
100
AcDbEntity
  8
0
100
AcDbBlockBegin
  2
*D13
 70
    1
 10
0
 20
0
  3
*D13
  1

  0
LINE
  5
9C
100
AcDbEntity
  8
0
  6
ByBlock
 62
    0
370
   -2
100
AcDbLine
 10
69.59619407771255
 20
-34.59619407771256
 11
60.40380592228744
 21
-25.40380592228744
  0
SOLID
  5
9D
100
AcDbEntity
  8
0
  6
ByBlock
 62
    0
370
   -2
100
AcDbTrace
 10
66.06066017177982
 20
-31.06066017177982
 30
0
 11
68.12278482916128
 21
-32.53406942033109
 31
0
 12
67.53406942033109
 22
-33.12278482916128
 32
0
 13
67.53406942033109
 23
-33.12278482916128
 33
0
  0
SOLID
  5
9E
100
AcDbEntity
  8
0
  6
ByBlock
 62
    0
370
   -2
100
AcDbTrace
 10
63.93933982822018
 20
-28.93933982822018
 30
0
 11
61.87721517083871
 21
-27.46593057966891
 31
0
 12
62.46593057966891
 22
-26.87721517083871
 32
0
 13
62.46593057966891
 23
-26.87721517083871
 33
0
  0
MTEXT
  5
9F
100
AcDbEntity
  8
0
  6
CONTINUOUS
 62
    0
370
   -2
100
AcDbMText
 10
69.9399265407894
 20
-32.28827611133986
 30
0
 40
2.5
 41
5.972222222222378
 71
    5
 72
    1
  1
3,00
  7
standard
210
0
220
0
230
1
 50
315
 73
    2
 44
1
  0
ENDBLK
  5
64
330
62
100
AcDbEntity
  8
0
100
AcDbBlockEnd
  0
BLOCK
  5
66
330
65
100
AcDbEntity
  8
0
100
AcDbBlockBegin
  2
*D15
 70
    1
 10
0
 20
0
  3
*D15
  1

  0
LINE
  5
A0
100
AcDbEntity
  8
0
  6
ByBlock
 62
    0
370
   -2
100
AcDbLine
 10
0.4038059222874395
 20
-15.40380592228745
 11
9.59619407771256
 21
-24.59619407771255
  0
SOLID
  5
A1
100
AcDbEntity
  8
0
  6
ByBlock
 62
    0
370
   -2
100
AcDbTrace
 10
3.93933982822018
 20
-18.93933982822018
 30
0
 11
1.877215170838713
 21
-17.46593057966891
 31
0
 12
2.465930579668906
 22
-16.87721517083872
 32
0
 13
2.465930579668906
 23
-16.87721517083872
 33
0
  0
SOLID
  5
A2
100
AcDbEntity
  8
0
  6
ByBlock
 62
    0
370
   -2
100
AcDbTrace
 10
6.060660171779821
 20
-21.06066017177982
 30
0
 11
8.122784829161288
 21
-22.53406942033109
 31
0
 12
7.534069420331095
 22
-23.12278482916128
 32
0
 13
7.534069420331095
 23
-23.12278482916128
 33
0
  0
MTEXT
  5
A3
100
AcDbEntity
  8
0
  6
CONTINUOUS
 62
    0
370
   -2
100
AcDbMText
 10
9.939926540789411
 20
-22.28827611133985
 30
0
 40
2.5
 41
5.972222222222378
 71
    5
 72
    1
  1
3,00
  7
standard
210
0
220
0
230
1
 50
315.0000000000001
 73
    2
 44
1
  0
ENDBLK
  5
67
330
65
100
AcDbEntity
  8
0
100
AcDbBlockEnd
  0
BLOCK
  5
69
330
68
100
AcDbEntity
  8
0
100
AcDbBlockBegin
  2
*D16
 70
    1
 10
0
 20
0
  3
*D16
  1

  0
LINE
  5
A4
100
AcDbEntity
  8
0
  6
ByBlock
 62
    0
370
   -2
100
AcDbLine
 10
70
 20
75
 11
70
 21
-75
  0
SOLID
  5
A5
100
AcDbEntity
  8
0
  6
ByBlock
 62
    0
370
   -2
100
AcDbTrace
 10
70
 20
75
 30
0
 11
70.41628465777283
 21
72.5
 31
0
 12
69.58371534222717
 22
72.5
 32
0
 13
69.58371534222717
 23
72.5
 33
0
  0
SOLID
  5
A6
100
AcDbEntity
  8
0
  6
ByBlock
 62
    0
370
   -2
100
AcDbTrace
 10
70
 20
-75
 30
0
 11
69.58371534222717
 21
-72.5
 31
0
 12
70.41628465777283
 22
-72.5
 32
0
 13
70.41628465777283
 23
-72.5
 33
0
  0
MTEXT
  5
A7
100
AcDbEntity
  8
0
  6
CONTINUOUS
 62
    0
370
   -2
100
AcDbMText
 10
68.125
 20
2.296136913416957e-016
 30
0
 40
2.5
 41
9.30555555555571
 71
    5
 72
    1
  1
150,00
  7
standard
210
0
220
0
230
1
 50
90
 73
    2
 44
1
  0
LINE
  5
A8
100
AcDbEntity
  8
0
  6
ByBlock
 62
    0
370
   -2
100
AcDbLine
 10
55.625
 20
75
 11
71.25
 21
75
  0
LINE
  5
A9
100
AcDbEntity
  8
0
  6
ByBlock
 62
    0
370
   -2
100
AcDbLine
 10
55.625
 20
-75
 11
71.25
 21
-75
  0
ENDBLK
  5
6A
330
68
100
AcDbEntity
  8
0
100
AcDbBlockEnd
  0
BLOCK
  5
6C
330
6B
100
AcDbEntity
  8
0
100
AcDbBlockBegin
  2
*D1
 70
    1
 10
0
 20
0
  3
*D1
  1

  0
LINE
  5
AA
100
AcDbEntity
  8
0
  6
ByBlock
 62
    0
370
   -2
100
AcDbLine
 10
70.07564726137969
 20
25.93948219089623
 11
59.9243527386203
 21
34.06051780910377
  0
SOLID
  5
AB
100
AcDbEntity
  8
0
  6
ByBlock
 62
    0
370
   -2
100
AcDbTrace
 10
66.17130321416454
 20
29.06295742866836
 30
0
 11
68.38352620185569
 21
27.82628351488677
 31
0
 12
67.86342427368852
 22
27.17615610467782
 32
0
 13
67.86342427368852
 23
27.17615610467782
 33
0
  0
SOLID
  5
AC
100
AcDbEntity
  8
0
  6
ByBlock
 62
    0
370
   -2
100
AcDbTrace
 10
63.82869678583545
 20
30.93704257133164
 30
0
 11
61.61647379814429
 21
32.17371648511323
 31
0
 12
62.13657572631146
 22
32.82384389532218
 32
0
 13
62.13657572631146
 23
32.82384389532218
 33
0
  0
MTEXT
  5
AD
100
AcDbEntity
  8
0
  6
CONTINUOUS
 62
    0
370
   -2
100
AcDbMText
 10
70.16241046242899
 20
28.27124321909412
 30
0
 40
2.5
 41
5.972222222222378
 71
    5
 72
    1
  1
3,00
  7
standard
210
0
220
0
230
1
 50
321.3401917459098
 73
    2
 44
1
  0
ENDBLK
  5
6D
330
6B
100
AcDbEntity
  8
0
100
AcDbBlockEnd
  0
BLOCK
  5
6F
330
6E
100
AcDbEntity
  8
0
100
AcDbBlockBegin
  2
*D3
 70
    1
 10
0
 20
0
  3
*D3
  1

  0
LINE
  5
AE
100
AcDbEntity
  8
0
  6
ByBlock
 62
    0
370
   -2
100
AcDbLine
 10
99.59619407771254
 20
20.40380592228744
 11
90.40380592228746
 21
29.59619407771256
  0
SOLID
  5
AF
100
AcDbEntity
  8
0
  6
ByBlock
 62
    0
370
   -2
100
AcDbTrace
 10
96.06066017177982
 20
23.93933982822018
 30
0
 11
98.12278482916128
 21
22.4659305796689
 31
0
 12
97.53406942033108
 22
21.87721517083871
 32
0
 13
97.53406942033108
 23
21.87721517083871
 33
0
  0
SOLID
  5
B0
100
AcDbEntity
  8
0
  6
ByBlock
 62
    0
370
   -2
100
AcDbTrace
 10
93.93933982822018
 20
26.06066017177982
 30
0
 11
91.87721517083872
 21
27.5340694203311
 31
0
 12
92.46593057966892
 22
28.12278482916129
 32
0
 13
92.46593057966892
 23
28.12278482916129
 33
0
  0
MTEXT
  5
B1
100
AcDbEntity
  8
0
  6
CONTINUOUS
 62
    0
370
   -2
100
AcDbMText
 10
99.9399265407894
 20
22.71172388866013
 30
0
 40
2.5
 41
5.972222222222378
 71
    5
 72
    1
  1
3,00
  7
standard
210
0
220
0
230
1
 50
314.9999999999998
 73
    2
 44
1
  0
ENDBLK
  5
70
330
6E
100
AcDbEntity
  8
0
100
AcDbBlockEnd
  0
BLOCK
  5
72
330
71
100
AcDbEntity
  8
0
100
AcDbBlockBegin
  2
*D8
 70
    1
 10
0
 20
0
  3
*D8
  1

  0
LINE
  5
B2
100
AcDbEntity
  8
0
  6
ByBlock
 62
    0
370
   -2
100
AcDbLine
 10
92.40380592228746
 20
59.59619407771257
 11
101.5961940777125
 21
50.40380592228743
  0
SOLID
  5
B3
100
AcDbEntity
  8
0
  6
ByBlock
 62
    0
370
   -2
100
AcDbTrace
 10
95.93933982822018
 20
56.06066017177982
 30
0
 11
93.87721517083872
 21
57.5340694203311
 31
0
 12
94.46593057966892
 22
58.1227848291613
 32
0
 13
94.46593057966892
 23
58.1227848291613
 33
0
  0
SOLID
  5
B4
100
AcDbEntity
  8
0
  6
ByBlock
 62
    0
370
   -2
100
AcDbTrace
 10
98.06066017177982
 20
53.93933982822018
 30
0
 11
100.1227848291613
 21
52.4659305796689
 31
0
 12
99.53406942033108
 22
51.87721517083871
 32
0
 13
99.53406942033108
 23
51.87721517083871
 33
0
  0
MTEXT
  5
B5
100
AcDbEntity
  8
0
  6
CONTINUOUS
 62
    0
370
   -2
100
AcDbMText
 10
101.9399265407894
 20
52.71172388866013
 30
0
 40
2.5
 41
5.972222222222378
 71
    5
 72
    1
  1
3,00
  7
standard
210
0
220
0
230
1
 50
314.9999999999998
 73
    2
 44
1
  0
ENDBLK
  5
73
330
71
100
AcDbEntity
  8
0
100
AcDbBlockEnd
  0
BLOCK
  5
75
330
74
100
AcDbEntity
  8
0
100
AcDbBlockBegin
  2
*D12
 70
    1
 10
0
 20
0
  3
*D12
  1

  0
LINE
  5
B6
100
AcDbEntity
  8
0
  6
ByBlock
 62
    0
370
   -2
100
AcDbLine
 10
101.9934383173829
 20
-59.16119859781913
 11
92.00656168261706
 21
-50.83880140218087
  0
SOLID
  5
B7
100
AcDbEntity
  8
0
  6
ByBlock
 62
    0
370
   -2
100
AcDbTrace
 10
98.15233191939606
 20
-55.96027659949672
 30
0
 11
100.3393840621153
 21
-57.24093886618692
 31
0
 12
99.80638617466366
 22
-57.88053633112894
 32
0
 13
99.80638617466366
 23
-57.88053633112894
 33
0
  0
SOLID
  5
B8
100
AcDbEntity
  8
0
  6
ByBlock
 62
    0
370
   -2
100
AcDbTrace
 10
95.84766808060394
 20
-54.03972340050328
 30
0
 11
93.66061593788466
 21
-52.75906113381308
 31
0
 12
94.19361382533634
 22
-52.11946366887106
 32
0
 13
94.19361382533634
 23
-52.11946366887106
 33
0
  0
MTEXT
  5
B9
100
AcDbEntity
  8
0
  6
CONTINUOUS
 62
    0
370
   -2
100
AcDbMText
 10
102.1268100673131
 20
-56.8316386990401
 30
0
 40
2.5
 41
5.972222222222378
 71
    5
 72
    1
  1
3,00
  7
standard
210
0
220
0
230
1
 50
320.1944289077347
 73
    2
 44
1
  0
ENDBLK
  5
76
330
74
100
AcDbEntity
  8
0
100
AcDbBlockEnd
  0
BLOCK
  5
78
330
77
100
AcDbEntity
  8
0
100
AcDbBlockBegin
  2
*D17
 70
    1
 10
0
 20
0
  3
*D17
  1

  0
LINE
  5
BA
100
AcDbEntity
  8
0
  6
ByBlock
 62
    0
370
   -2
100
AcDbLine
 10
0
 20
10
 11
100
 21
10
  0
SOLID
  5
BB
100
AcDbEntity
  8
0
  6
ByBlock
 62
    0
370
   -2
100
AcDbTrace
 10
0
 20
10
 30
0
 11
2.5
 21
10.41628465777284
 31
0
 12
2.5
 22
9.583715342227158
 32
0
 13
2.5
 23
9.583715342227158
 33
0
  0
SOLID
  5
BC
100
AcDbEntity
  8
0
  6
ByBlock
 62
    0
370
   -2
100
AcDbTrace
 10
100
 20
10
 30
0
 11
97.5
 21
9.58371534222716
 31
0
 12
97.5
 22
10.41628465777284
 32
0
 13
97.5
 23
10.41628465777284
 33
0
  0
MTEXT
  5
BD
100
AcDbEntity
  8
0
  6
CONTINUOUS
 62
    0
370
   -2
100
AcDbMText
 10
50
 20
11.875
 30
0
 40
2.5
 41
9.305555555555557
 71
    5
 72
    1
  1
100,00
  7
standard
210
0
220
0
230
1
 50
0
 73
    2
 44
1
  0
LINE
  5
BE
100
AcDbEntity
  8
0
  6
ByBlock
 62
    0
370
   -2
100
AcDbLine
 10
3.826894855694929e-017
 20
0.625
 11
7.653789711389858e-017
 21
11.25
  0
LINE
  5
BF
100
AcDbEntity
  8
0
  6
ByBlock
 62
    0
370
   -2
100
AcDbLine
 10
100
 20
0.625
 11
100
 21
11.25
  0
ENDBLK
  5
79
330
77
100
AcDbEntity
  8
0
100
AcDbBlockEnd
  0
BLOCK
  5
7B
330
7A
100
AcDbEntity
  8
0
100
AcDbBlockBegin
  2
*D9
 70
    1
 10
0
 20
0
  3
*D9
  1

  0
LINE
  5
C0
100
AcDbEntity
  8
0
  6
ByBlock
 62
    0
370
   -2
100
AcDbLine
 10
0.4038059222874444
 20
4.596194077712562
 11
9.596194077712557
 21
-4.59619407771256
  0
SOLID
  5
C1
100
AcDbEntity
  8
0
  6
ByBlock
 62
    0
370
   -2
100
AcDbTrace
 10
3.93933982822018
 20
1.060660171779823
 30
0
 11
1.877215170838716
 21
2.534069420331097
 31
0
 12
2.46593057966891
 22
3.12278482916129
 32
0
 13
2.46593057966891
 23
3.12278482916129
 33
0
  0
SOLID
  5
C2
100
AcDbEntity
  8
0
  6
ByBlock
 62
    0
370
   -2
100
AcDbTrace
 10
6.060660171779821
 20
-1.060660171779821
 30
0
 11
8.122784829161287
 21
-2.534069420331094
 31
0
 12
7.534069420331092
 22
-3.122784829161287
 32
0
 13
7.534069420331092
 23
-3.122784829161287
 33
0
  0
MTEXT
  5
C3
100
AcDbEntity
  8
0
  6
CONTINUOUS
 62
    0
370
   -2
100
AcDbMText
 10
9.939926540789408
 20
-2.28827611133986
 30
0
 40
2.5
 41
5.972222222222378
 71
    5
 72
    1
  1
3,00
  7
standard
210
0
220
0
230
1
 50
314.9999999999999
 73
    2
 44
1
  0
ENDBLK
  5
7C
330
7A
100
AcDbEntity
  8
0
100
AcDbBlockEnd
  0
BLOCK
  5
7E
330
7D
100
AcDbEntity
  8
0
100
AcDbBlockBegin
  2
*D5
 70
    1
 10
0
 20
0
  3
*D5
  1

  0
LINE
  5
C4
100
AcDbEntity
  8
0
  6
ByBlock
 62
    0
370
   -2
100
AcDbLine
 10
54.59619407771256
 20
-4.596194077712556
 11
45.40380592228744
 21
4.596194077712556
  0
SOLID
  5
C5
100
AcDbEntity
  8
0
  6
ByBlock
 62
    0
370
   -2
100
AcDbTrace
 10
51.06066017177982
 20
-1.060660171779821
 30
0
 11
53.12278482916129
 21
-2.534069420331091
 31
0
 12
52.53406942033109
 22
-3.122784829161285
 32
0
 13
52.53406942033109
 23
-3.122784829161285
 33
0
  0
SOLID
  5
C6
100
AcDbEntity
  8
0
  6
ByBlock
 62
    0
370
   -2
100
AcDbTrace
 10
48.93933982822018
 20
1.060660171779821
 30
0
 11
46.87721517083871
 21
2.534069420331092
 31
0
 12
47.46593057966891
 22
3.122784829161286
 32
0
 13
47.46593057966891
 23
3.122784829161286
 33
0
  0
MTEXT
  5
C7
100
AcDbEntity
  8
0
  6
CONTINUOUS
 62
    0
370
   -2
100
AcDbMText
 10
54.93992654078941
 20
-2.288276111339852
 30
0
 40
2.5
 41
5.972222222222378
 71
    5
 72
    1
  1
3,00
  7
standard
210
0
220
0
230
1
 50
315.0000000000001
 73
    2
 44
1
  0
ENDBLK
  5
7F
330
7D
100
AcDbEntity
  8
0
100
AcDbBlockEnd
  0
ENDSEC
  0
SECTION
  2
ENTITIES
  0
CIRCLE
  5
C8
100
AcDbEntity
  8
0
  6
CONTINUOUS
 62
    7
370
   -1
100
AcDbCircle
 10
50
 20
0
 40
1.5
  0
CIRCLE
  5
C9
100
AcDbEntity
  8
0
  6
CONTINUOUS
 62
    7
370
   -1
100
AcDbCircle
 10
5
 20
0
 40
1.5
  0
CIRCLE
  5
CA
100
AcDbEntity
  8
0
  6
DASHED
 62
    7
370
   -1
100
AcDbCircle
 10
65
 20
30
 40
1.5
  0
LINE
  5
CB
100
AcDbEntity
  8
0
  6
CONTINUOUS
 62
    7
370
   -1
100
AcDbLine
 10
70
 20
30
 11
60
 21
30
  0
LINE
  5
CC
100
AcDbEntity
  8
0
  6
CONTINUOUS
 62
    7
370
   -1
100
AcDbLine
 10
65
 20
25
 11
65
 21
35
  0
CIRCLE
  5
CD
100
AcDbEntity
  8
0
  6
CONTINUOUS
 62
    7
370
   -1
100
AcDbCircle
 10
65
 20
30
 40
1.5
  0
CIRCLE
  5
CE
100
AcDbEntity
  8
0
  6
CONTINUOUS
 62
  142
370
   -1
100
AcDbCircle
 10
97
 20
55
 40
3
  0
LINE
  5
CF
100
AcDbEntity
  8
0
  6
CONTINUOUS
 62
  142
370
   -1
100
AcDbLine
 10
102
 20
55
 11
92
 21
55
  0
LINE
  5
D0
100
AcDbEntity
  8
0
  6
CONTINUOUS
 62
  142
370
   -1
100
AcDbLine
 10
97
 20
50
 11
97
 21
60
  0
CIRCLE
  5
D1
100
AcDbEntity
  8
0
  6
CONTINUOUS
 62
  142
370
   -1
100
AcDbCircle
 10
97
 20
55
 40
1.5
  0
LINE
  5
D2
100
AcDbEntity
  8
0
  6
CONTINUOUS
 62
  142
370
   -1
100
AcDbLine
 10
55
 20
0
 11
45
 21
0
  0
LINE
  5
D3
100
AcDbEntity
  8
0
  6
CONTINUOUS
 62
  142
370
   -1
100
AcDbLine
 10
50
 20
-5
 11
50
 21
5
  0
CIRCLE
  5
D4
100
AcDbEntity
  8
0
  6
CONTINUOUS
 62
  142
370
   -1
100
AcDbCircle
 10
50
 20
0
 40
1.5
  0
LINE
  5
D5
100
AcDbEntity
  8
0
  6
CONTINUOUS
 62
  142
370
   -1
100
AcDbLine
 10
10
 20
0
 11
0
 21
0
  0
LINE
  5
D6
100
AcDbEntity
  8
0
  6
CONTINUOUS
 62
  142
370
   -1
100
AcDbLine
 10
5
 20
-5
 11
5
 21
5
  0
CIRCLE
  5
D7
100
AcDbEntity
  8
0
  6
CONTINUOUS
 62
  142
370
   -1
100
AcDbCircle
 10
5
 20
0
 40
1.5
  0
CIRCLE
  5
D8
100
AcDbEntity
  8
0
  6
CONTINUOUS
 62
  142
370
   -1
100
AcDbCircle
 10
95
 20
0
 40
3
  0
CIRCLE
  5
D9
100
AcDbEntity
  8
0
  6
CONTINUOUS
 62
  142
370
   -1
100
AcDbCircle
 10
95
 20
25
 40
3
  0
LINE
  5
DA
100
AcDbEntity
  8
0
  6
CONTINUOUS
 62
  142
370
   -1
100
AcDbLine
 10
100
 20
25
 11
90
 21
25
  0
LINE
  5
DB
100
AcDbEntity
  8
0
  6
CONTINUOUS
 62
  142
370
   -1
100
AcDbLine
 10
95
 20
20
 11
95
 21
30
  0
CIRCLE
  5
DC
100
AcDbEntity
  8
0
  6
CONTINUOUS
 62
  142
370
   -1
100
AcDbCircle
 10
95
 20
25
 40
1.5
  0
CIRCLE
  5
DD
100
AcDbEntity
  8
0
  6
CONTINUOUS
 62
  142
370
   -1
100
AcDbCircle
 10
5
 20
20
 40
3
  0
LINE
  5
DE
100
AcDbEntity
  8
0
  6
CONTINUOUS
 62
  142
370
   -1
100
AcDbLine
 10
10
 20
20
 11
0
 21
20
  0
LINE
  5
DF
100
AcDbEntity
  8
0
  6
CONTINUOUS
 62
  142
370
   -1
100
AcDbLine
 10
5
 20
15
 11
5
 21
25
  0
CIRCLE
  5
E0
100
AcDbEntity
  8
0
  6
CONTINUOUS
 62
  142
370
   -1
100
AcDbCircle
 10
5
 20
20
 40
1.5
  0
CIRCLE
  5
E1
100
AcDbEntity
  8
0
  6
CONTINUOUS
 62
  142
370
   -1
100
AcDbCircle
 10
97
 20
-55
 40
3
  0
LINE
  5
E2
100
AcDbEntity
  8
0
  6
CONTINUOUS
 62
  142
370
   -1
100
AcDbLine
 10
102
 20
-55
 11
92
 21
-55
  0
LINE
  5
E3
100
AcDbEntity
  8
0
  6
CONTINUOUS
 62
  142
370
   -1
100
AcDbLine
 10
97
 20
-50
 11
97
 21
-60
  0
CIRCLE
  5
E4
100
AcDbEntity
  8
0
  6
CONTINUOUS
 62
  142
370
   -1
100
AcDbCircle
 10
97
 20
-55
 40
1.5
  0
LINE
  5
E5
100
AcDbEntity
  8
0
  6
CONTINUOUS
 62
  142
370
   -1
100
AcDbLine
 10
55
 20
0
 11
45
 21
0
  0
LINE
  5
E6
100
AcDbEntity
  8
0
  6
CONTINUOUS
 62
  142
370
   -1
100
AcDbLine
 10
50
 20
5
 11
50
 21
-5
  0
CIRCLE
  5
E7
100
AcDbEntity
  8
0
  6
CONTINUOUS
 62
  142
370
   -1
100
AcDbCircle
 10
50
 20
0
 40
1.5
  0
LINE
  5
E8
100
AcDbEntity
  8
0
  6
CONTINUOUS
 62
  142
370
   -1
100
AcDbLine
 10
10
 20
0
 11
0
 21
0
  0
LINE
  5
E9
100
AcDbEntity
  8
0
  6
CONTINUOUS
 62
  142
370
   -1
100
AcDbLine
 10
5
 20
5
 11
5
 21
-5
  0
CIRCLE
  5
EA
100
AcDbEntity
  8
0
  6
CONTINUOUS
 62
  142
370
   -1
100
AcDbCircle
 10
5
 20
0
 40
1.5
  0
CIRCLE
  5
EB
100
AcDbEntity
  8
0
  6
CONTINUOUS
 62
  142
370
   -1
100
AcDbCircle
 10
95
 20
-25
 40
3
  0
LINE
  5
EC
100
AcDbEntity
  8
0
  6
CONTINUOUS
 62
  142
370
   -1
100
AcDbLine
 10
100
 20
-25
 11
90
 21
-25
  0
LINE
  5
ED
100
AcDbEntity
  8
0
  6
CONTINUOUS
 62
  142
370
   -1
100
AcDbLine
 10
95
 20
-20
 11
95
 21
-30
  0
CIRCLE
  5
EE
100
AcDbEntity
  8
0
  6
CONTINUOUS
 62
  142
370
   -1
100
AcDbCircle
 10
95
 20
-25
 40
1.5
  0
CIRCLE
  5
EF
100
AcDbEntity
  8
0
  6
CONTINUOUS
 62
  142
370
   -1
100
AcDbCircle
 10
5
 20
-20
 40
3
  0
LINE
  5
F0
100
AcDbEntity
  8
0
  6
CONTINUOUS
 62
  142
370
   -1
100
AcDbLine
 10
10
 20
-20
 11
0
 21
-20
  0
LINE
  5
F1
100
AcDbEntity
  8
0
  6
CONTINUOUS
 62
  142
370
   -1
100
AcDbLine
 10
5
 20
-15
 11
5
 21
-25
  0
CIRCLE
  5
F2
100
AcDbEntity
  8
0
  6
CONTINUOUS
 62
  142
370
   -1
100
AcDbCircle
 10
5
 20
-20
 40
1.5
  0
LINE
  5
F3
100
AcDbEntity
  8
0
  6
CONTINUOUS
 62
  142
370
   -1
100
AcDbLine
 10
100
 20
0
 11
90
 21
0
  0
LINE
  5
F4
100
AcDbEntity
  8
0
  6
CONTINUOUS
 62
  142
370
   -1
100
AcDbLine
 10
95
 20
-5
 11
95
 21
5
  0
CIRCLE
  5
F5
100
AcDbEntity
  8
0
  6
CONTINUOUS
 62
  142
370
   -1
100
AcDbCircle
 10
95
 20
0
 40
1.5
  0
CIRCLE
  5
F6
100
AcDbEntity
  8
0
  6
CONTINUOUS
 62
    7
370
   -1
100
AcDbCircle
 10
65
 20
30
 40
1.5
  0
CIRCLE
  5
F7
100
AcDbEntity
  8
0
  6
CONTINUOUS
 62
    7
370
   -1
100
AcDbCircle
 10
65
 20
-30
 40
1.5
  0
CIRCLE
  5
F8
100
AcDbEntity
  8
0
  6
CONTINUOUS
 62
  112
370
   -1
100
AcDbCircle
 10
10
 20
15
 40
3.5
  0
LINE
  5
F9
100
AcDbEntity
  8
0
  6
CONTINUOUS
 62
  112
370
   -1
100
AcDbLine
 10
15
 20
15
 11
5
 21
15
  0
LINE
  5
FA
100
AcDbEntity
  8
0
  6
CONTINUOUS
 62
  112
370
   -1
100
AcDbLine
 10
10
 20
10
 11
10
 21
20
  0
CIRCLE
  5
FB
100
AcDbEntity
  8
0
  6
CONTINUOUS
 62
  112
370
   -1
100
AcDbCircle
 10
10
 20
15
 40
2
  0
CIRCLE
  5
FC
100
AcDbEntity
  8
0
  6
CONTINUOUS
 62
  112
370
   -1
100
AcDbCircle
 10
10
 20
-15
 40
3.5
  0
LINE
  5
FD
100
AcDbEntity
  8
0
  6
CONTINUOUS
 62
  112
370
   -1
100
AcDbLine
 10
15
 20
-15
 11
5
 21
-15
  0
LINE
  5
FE
100
AcDbEntity
  8
0
  6
CONTINUOUS
 62
  112
370
   -1
100
AcDbLine
 10
10
 20
-20
 11
10
 21
-10
  0
CIRCLE
  5
FF
100
AcDbEntity
  8
0
  6
CONTINUOUS
 62
  112
370
   -1
100
AcDbCircle
 10
10
 20
-15
 40
2
  0
CIRCLE
  5
100
100
AcDbEntity
  8
0
  6
CONTINUOUS
 62
  112
370
   -1
100
AcDbCircle
 10
95
 20
35
 40
3.5
  0
LINE
  5
101
100
AcDbEntity
  8
0
  6
CONTINUOUS
 62
  112
370
   -1
100
AcDbLine
 10
100
 20
35
 11
90
 21
35
  0
LINE
  5
102
100
AcDbEntity
  8
0
  6
CONTINUOUS
 62
  112
370
   -1
100
AcDbLine
 10
95
 20
30
 11
95
 21
40
  0
CIRCLE
  5
103
100
AcDbEntity
  8
0
  6
CONTINUOUS
 62
  112
370
   -1
100
AcDbCircle
 10
95
 20
35
 40
2
  0
CIRCLE
  5
104
100
AcDbEntity
  8
0
  6
CONTINUOUS
 62
  112
370
   -1
100
AcDbCircle
 10
95
 20
-35
 40
3.5
  0
LINE
  5
105
100
AcDbEntity
  8
0
  6
CONTINUOUS
 62
  112
370
   -1
100
AcDbLine
 10
100
 20
-35
 11
90
 21
-35
  0
LINE
  5
106
100
AcDbEntity
  8
0
  6
CONTINUOUS
 62
  112
370
   -1
100
AcDbLine
 10
95
 20
-40
 11
95
 21
-30
  0
CIRCLE
  5
107
100
AcDbEntity
  8
0
  6
CONTINUOUS
 62
  112
370
   -1
100
AcDbCircle
 10
95
 20
-35
 40
2
  0
CIRCLE
  5
108
100
AcDbEntity
  8
0
  6
CONTINUOUS
 62
  142
370
   -1
100
AcDbCircle
 10
65
 20
30
 40
3
  0
LINE
  5
109
100
AcDbEntity
  8
0
  6
CONTINUOUS
 62
  142
370
   -1
100
AcDbLine
 10
70
 20
30
 11
60
 21
30
  0
LINE
  5
10A
100
AcDbEntity
  8
0
  6
CONTINUOUS
 62
  142
370
   -1
100
AcDbLine
 10
65
 20
25
 11
65
 21
35
  0
CIRCLE
  5
10B
100
AcDbEntity
  8
0
  6
CONTINUOUS
 62
  142
370
   -1
100
AcDbCircle
 10
65
 20
30
 40
1.5
  0
CIRCLE
  5
10C
100
AcDbEntity
  8
0
  6
CONTINUOUS
 62
  142
370
   -1
100
AcDbCircle
 10
65
 20
-30
 40
3
  0
LINE
  5
10D
100
AcDbEntity
  8
0
  6
CONTINUOUS
 62
  142
370
   -1
100
AcDbLine
 10
70
 20
-30
 11
60
 21
-30
  0
LINE
  5
10E
100
AcDbEntity
  8
0
  6
CONTINUOUS
 62
  142
370
   -1
100
AcDbLine
 10
65
 20
-35
 11
65
 21
-25
  0
CIRCLE
  5
10F
100
AcDbEntity
  8
0
  6
CONTINUOUS
 62
  142
370
   -1
100
AcDbCircle
 10
65
 20
-30
 40
1.5
  0
CIRCLE
  5
110
100
AcDbEntity
  8
0
  6
CONTINUOUS
 62
  142
370
   -1
100
AcDbCircle
 10
5
 20
0
 40
3
  0
LINE
  5
111
100
AcDbEntity
  8
0
  6
CONTINUOUS
 62
  142
370
   -1
100
AcDbLine
 10
10
 20
0
 11
0
 21
0
  0
LINE
  5
112
100
AcDbEntity
  8
0
  6
CONTINUOUS
 62
  142
370
   -1
100
AcDbLine
 10
5
 20
-5
 11
5
 21
5
  0
CIRCLE
  5
113
100
AcDbEntity
  8
0
  6
CONTINUOUS
 62
  142
370
   -1
100
AcDbCircle
 10
5
 20
0
 40
1.5
  0
CIRCLE
  5
114
100
AcDbEntity
  8
0
  6
CONTINUOUS
 62
  142
370
   -1
100
AcDbCircle
 10
50
 20
0
 40
3
  0
LINE
  5
115
100
AcDbEntity
  8
0
  6
CONTINUOUS
 62
  142
370
   -1
100
AcDbLine
 10
55
 20
0
 11
45
 21
0
  0
LINE
  5
116
100
AcDbEntity
  8
0
  6
CONTINUOUS
 62
  142
370
   -1
100
AcDbLine
 10
50
 20
-5
 11
50
 21
5
  0
CIRCLE
  5
117
100
AcDbEntity
  8
0
  6
CONTINUOUS
 62
  142
370
   -1
100
AcDbCircle
 10
50
 20
0
 40
1.5
  0
DIMENSION
  5
118
100
AcDbEntity
  8
0
  6
ByLayer
 62
  256
370
   -1
100
AcDbDimension
  2
*D1
 10
66.17130321416454
 20
29.06295742866836
 30
0
 11
66.17130321416455
 21
31.46412901770568
 31
0
 70
   35
 71
    5
  3
Standard
 53
0
210
0
220
0
230
1
100
AcDbDiametricDimension
 15
63.82869678583545
 25
30.93704257133164
 35
0
 40
0
  0
DIMENSION
  5
119
100
AcDbEntity
  8
0
  6
ByLayer
 62
  256
370
   -1
100
AcDbDimension
  2
*D2
 10
96.41421356237309
 20
33.58578643762691
 30
0
 11
96.32582521472477
 21
36.32582521472477
 31
0
 70
   35
 71
    5
  3
Standard
 53
0
210
0
220
0
230
1
100
AcDbDiametricDimension
 15
93.58578643762691
 25
36.41421356237309
 35
0
 40
0
  0
DIMENSION
  5
11A
100
AcDbEntity
  8
0
  6
ByLayer
 62
  256
370
   -1
100
AcDbDimension
  2
*D3
 10
96.06066017177982
 20
23.93933982822018
 30
0
 11
96.32582521472479
 21
26.32582521472477
 31
0
 70
   35
 71
    5
  3
Standard
 53
0
210
0
220
0
230
1
100
AcDbDiametricDimension
 15
93.93933982822018
 25
26.06066017177982
 35
0
 40
0
  0
DIMENSION
  5
11B
100
AcDbEntity
  8
0
  6
ByLayer
 62
  256
370
   -1
100
AcDbDimension
  2
*D4
 10
96.06066017177982
 20
-1.060660171779821
 30
0
 11
96.32582521472479
 21
1.325825214724772
 31
0
 70
   35
 71
    5
  3
Standard
 53
0
210
0
220
0
230
1
100
AcDbDiametricDimension
 15
93.93933982822018
 25
1.060660171779821
 35
0
 40
0
  0
DIMENSION
  5
11C
100
AcDbEntity
  8
0
  6
ByLayer
 62
  256
370
   -1
100
AcDbDimension
  2
*D5
 10
51.06066017177982
 20
-1.060660171779821
 30
0
 11
51.32582521472477
 21
1.325825214724777
 31
0
 70
   35
 71
    5
  3
Standard
 53
0
210
0
220
0
230
1
100
AcDbDiametricDimension
 15
48.93933982822018
 25
1.060660171779821
 35
0
 40
0
  0
DIMENSION
  5
11D
100
AcDbEntity
  8
0
  6
ByLayer
 62
  256
370
   -1
100
AcDbDimension
  2
*D6
 10
8.585786437626904
 20
13.5857864376269
 30
0
 11
8.674174785275223
 21
16.32582521472478
 31
0
 70
   35
 71
    5
  3
Standard
 53
0
210
0
220
0
230
1
100
AcDbDiametricDimension
 15
11.4142135623731
 25
16.4142135623731
 35
0
 40
0
  0
DIMENSION
  5
11E
100
AcDbEntity
  8
0
  6
ByLayer
 62
  256
370
   -1
100
AcDbDimension
  2
*D7
 10
3.939339828220179
 20
18.93933982822018
 30
0
 11
3.674174785275222
 21
21.32582521472478
 31
0
 70
   35
 71
    5
  3
Standard
 53
0
210
0
220
0
230
1
100
AcDbDiametricDimension
 15
6.060660171779821
 25
21.06066017177982
 35
0
 40
0
  0
DIMENSION
  5
11F
100
AcDbEntity
  8
0
  6
ByLayer
 62
  256
370
   -1
100
AcDbDimension
  2
*D8
 10
95.93933982822018
 20
56.06066017177982
 30
0
 11
98.32582521472479
 21
56.32582521472477
 31
0
 70
   35
 71
    5
  3
Standard
 53
0
210
0
220
0
230
1
100
AcDbDiametricDimension
 15
98.06066017177982
 25
53.93933982822018
 35
0
 40
0
  0
DIMENSION
  5
120
100
AcDbEntity
  8
0
  6
ByLayer
 62
  256
370
   -1
100
AcDbDimension
  2
*D9
 10
3.93933982822018
 20
1.060660171779823
 30
0
 11
6.325825214724779
 21
1.325825214724776
 31
0
 70
   35
 71
    5
  3
Standard
 53
0
210
0
220
0
230
1
100
AcDbDiametricDimension
 15
6.060660171779821
 25
-1.060660171779821
 35
0
 40
0
  0
DIMENSION
  5
121
100
AcDbEntity
  8
0
  6
ByLayer
 62
  256
370
   -1
100
AcDbDimension
  2
*D10
 10
96.06066017177982
 20
-26.06066017177982
 30
0
 11
96.32582521472479
 21
-23.67417478527523
 31
0
 70
   35
 71
    5
  3
Standard
 53
0
210
0
220
0
230
1
100
AcDbDiametricDimension
 15
93.93933982822018
 25
-23.93933982822018
 35
0
 40
0
  0
DIMENSION
  5
122
100
AcDbEntity
  8
0
  6
ByLayer
 62
  256
370
   -1
100
AcDbDimension
  2
*D11
 10
96.41421356237309
 20
-36.41421356237309
 30
0
 11
96.32582521472477
 21
-33.67417478527523
 31
0
 70
   35
 71
    5
  3
Standard
 53
0
210
0
220
0
230
1
100
AcDbDiametricDimension
 15
93.58578643762691
 25
-33.58578643762691
 35
0
 40
0
  0
DIMENSION
  5
123
100
AcDbEntity
  8
0
  6
ByLayer
 62
  256
370
   -1
100
AcDbDimension
  2
*D12
 10
98.15233191939606
 20
-55.96027659949672
 30
0
 11
98.2003457493709
 21
-53.55958510075492
 31
0
 70
   35
 71
    5
  3
Standard
 53
0
210
0
220
0
230
1
100
AcDbDiametricDimension
 15
95.84766808060394
 25
-54.03972340050328
 35
0
 40
0
  0
DIMENSION
  5
124
100
AcDbEntity
  8
0
  6
ByLayer
 62
  256
370
   -1
100
AcDbDimension
  2
*D13
 10
66.06066017177982
 20
-31.06066017177982
 30
0
 11
66.32582521472477
 21
-28.67417478527523
 31
0
 70
   35
 71
    5
  3
Standard
 53
0
210
0
220
0
230
1
100
AcDbDiametricDimension
 15
63.93933982822018
 25
-28.93933982822018
 35
0
 40
0
  0
DIMENSION
  5
125
100
AcDbEntity
  8
0
  6
ByLayer
 62
  256
370
   -1
100
AcDbDimension
  2
*D14
 10
8.585786437626906
 20
-13.5857864376269
 30
0
 11
11.32582521472478
 21
-13.67417478527523
 31
0
 70
   35
 71
    5
  3
Standard
 53
0
210
0
220
0
230
1
100
AcDbDiametricDimension
 15
11.41421356237309
 25
-16.4142135623731
 35
0
 40
0
  0
DIMENSION
  5
126
100
AcDbEntity
  8
0
  6
ByLayer
 62
  256
370
   -1
100
AcDbDimension
  2
*D15
 10
3.93933982822018
 20
-18.93933982822018
 30
0
 11
6.325825214724778
 21
-18.67417478527522
 31
0
 70
   35
 71
    5
  3
Standard
 53
0
210
0
220
0
230
1
100
AcDbDiametricDimension
 15
6.060660171779821
 25
-21.06066017177982
 35
0
 40
0
  0
MTEXT
  5
127
100
AcDbEntity
  8
0
  6
ByLayer
 62
  256
370
   -1
100
AcDbMText
 10
0
 20
90
 30
0
 40
5
 41
99.02777722222471
 71
    1
 72
    1
  1
Carbon fiber board (2-2.5mm)
  7
standard
210
0
220
0
230
1
 50
0
 73
    2
 44
1
  0
LINE
  5
128
100
AcDbEntity
  8
0
  6
DASHED
 62
    9
370
   -1
100
AcDbLine
 10
0
 20
75
 11
0
 21
-130
  0
LINE
  5
129
100
AcDbEntity
  8
0
  6
DASHED
 62
    9
370
   -1
100
AcDbLine
 10
100
 20
75
 11
0
 21
75
  0
LINE
  5
12A
100
AcDbEntity
  8
0
  6
DASHED
 62
  253
420
10526884
370
   -1
100
AcDbLine
 10
100
 20
-130
 11
100
 21
75
  0
LWPOLYLINE
  5
12B
100
AcDbEntity
  8
0
  6
CONTINUOUS
 62
    7
370
   -1
100
AcDbPolyline
 90
    7
 70
    1
 43
0
 10
0
 20
0
 10
0
 20
-30
 10
55
 20
-75
 10
85
 20
-75
 10
100
 20
-65
 10
100
 20
0
 10
100
 20
0
  0
LWPOLYLINE
  5
12C
100
AcDbEntity
  8
0
  6
CONTINUOUS
 62
    7
370
   -1
100
AcDbPolyline
 90
    7
 70
    1
 43
0
 10
0
 20
0
 10
0
 20
30
 10
55
 20
75
 10
85
 20
75
 10
100
 20
65
 10
100
 20
0
 10
100
 20
0
  0
LINE
  5
12D
100
AcDbEntity
  8
0
  6
DOTTINY
 62
    7
370
   -1
100
AcDbLine
 10
45
 20
-75
 11
15
 21
-75
  0
LINE
  5
12E
100
AcDbEntity
  8
0
  6
DOTTINY
 62
    7
370
   -1
100
AcDbLine
 10
15
 20
-75
 11
-1.22471e-015
 21
-85
  0
LINE
  5
12F
100
AcDbEntity
  8
0
  6
DOTTINY
 62
    7
370
   -1
100
AcDbLine
 10
100
 20
-120
 11
45
 21
-75
  0
LINE
  5
130
100
AcDbEntity
  8
0
  6
DOTTINY
 62
    7
370
   -1
100
AcDbLine
 10
100
 20
-115
 11
0
 21
-35
  0
DIMENSION
  5
131
100
AcDbEntity
  8
0
  6
ByLayer
 62
  256
370
   -1
100
AcDbDimension
  2
*D16
 10
70
 20
-75
 30
0
 11
68.125
 21
2.296136913416957e-016
 31
0
 70
   32
 71
    5
  3
Standard
 53
0
210
0
220
0
230
1
100
AcDbAlignedDimension
 13
55
 23
75
 33
0
 14
55
 24
-75
 34
0
 50
90
100
AcDbRotatedDimension
  0
DIMENSION
  5
132
100
AcDbEntity
  8
0
  6
ByLayer
 62
  256
370
   -1
100
AcDbDimension
  2
*D17
 10
100
 20
10
 30
0
 11
50
 21
11.875
 31
0
 70
   32
 71
    5
  3
Standard
 53
0
210
0
220
0
230
1
100
AcDbAlignedDimension
 13
0
 23
0
 33
0
 14
100
 24
0
 34
0
100
AcDbRotatedDimension
  0
ENDSEC
  0
SECTION
  2
OBJECTS
  0
DICTIONARY
  5
C
330
0
100
AcDbDictionary
281
    1
  3
ACAD_GROUP
350
D
  0
DICTIONARY
  5
D
330
C
100
AcDbDictionary
281
    1
  0
ENDSEC
  0
EOF
